STARTFONT 2.1
FONT -FontForge-Good Times Rg-Book-R-Normal--70-670-75-75-P-518-ISO10646-1
SIZE 67 75 75
FONTBOUNDINGBOX 139 83 -19 -15
COMMENT "Generated by fontforge, http://fontforge.sourceforge.net"
COMMENT "(c) 1998-2012 Typodermic Fonts Inc. See attached license agreement. If agreement is missing visit typodermicfonts.com for more info. Languages by Chikako Larabie"
STARTPROPERTIES 39
FOUNDRY "FontForge"
FAMILY_NAME "Good Times Rg"
WEIGHT_NAME "Book"
SLANT "R"
SETWIDTH_NAME "Normal"
ADD_STYLE_NAME ""
PIXEL_SIZE 70
POINT_SIZE 670
RESOLUTION_X 75
RESOLUTION_Y 75
SPACING "P"
AVERAGE_WIDTH 518
CHARSET_REGISTRY "ISO10646"
CHARSET_ENCODING "1"
FONTNAME_REGISTRY ""
CHARSET_COLLECTIONS "ISO8859-2 ISO8859-9 ISO8859-4 ISO10646-1"
FONT_NAME "GoodTimesRg-Regular"
FACE_NAME "GoodTimesRg-Regular"
COPYRIGHT "(c) 1998-2012 Typodermic Fonts Inc. See attached license agreement. If agreement is missing visit typodermicfonts.com for more info. Languages by Chikako Larabie"
FONT_VERSION "4.001"
FONT_ASCENT 56
FONT_DESCENT 14
UNDERLINE_POSITION -10
UNDERLINE_THICKNESS 2
X_HEIGHT 50
CAP_HEIGHT 50
RAW_ASCENT 799
RAW_DESCENT 201
NORM_SPACE 21
RELATIVE_WEIGHT 40
RELATIVE_SETWIDTH 50
SUPERSCRIPT_X 0
SUPERSCRIPT_Y 21
SUPERSCRIPT_SIZE 21
SUBSCRIPT_X 0
SUBSCRIPT_Y 0
SUBSCRIPT_SIZE 21
AVG_LOWERCASE_WIDTH 596
AVG_UPPERCASE_WIDTH 593
ENDPROPERTIES
CHARS 304
STARTCHAR space
ENCODING 32
SWIDTH 294 0
DWIDTH 21 0
BBX 1 1 0 0
BITMAP
00
ENDCHAR
STARTCHAR exclam
ENCODING 33
SWIDTH 298 0
DWIDTH 21 0
BBX 9 51 6 0
BITMAP
FF80
FF80
FF80
FF80
FF80
FF80
FF80
FF80
FF80
FF80
FF80
FF80
FF80
FF80
FF80
FF80
FF80
FF80
FF80
FF80
FF80
FF80
FF80
FF80
FF80
FF80
FF80
FF80
FF80
FF80
FF80
FF80
FF80
FF80
FF80
0000
0000
0000
0000
0000
0000
3E00
7F00
FF80
FF80
FF80
FF80
FF80
FF80
7F00
3E00
ENDCHAR
STARTCHAR quotedbl
ENCODING 34
SWIDTH 452 0
DWIDTH 32 0
BBX 22 18 5 33
BITMAP
FF87FC
FF87FC
FF87FC
FF07FC
FF07F8
FF07F8
FF07F8
FF03F8
7F03F8
7F03F8
7F03F8
7F03F8
7F03F8
7F03F8
7F03F8
7E03F8
7E03F0
7E03F0
ENDCHAR
STARTCHAR numbersign
ENCODING 35
SWIDTH 697 0
DWIDTH 49 0
BBX 43 51 3 0
BITMAP
00007F003F80
00007F003F00
00007E003F00
00007E007F00
0000FE007E00
0000FC007E00
0000FC00FE00
0001FC00FC00
0001F800FC00
0001F801FC00
0003F801F800
0003F001F800
0003F001F800
07FFFFFFFFE0
07FFFFFFFFE0
07FFFFFFFFE0
07FFFFFFFFE0
07FFFFFFFFE0
07FFFFFFFFE0
000FC00FE000
001FC00FC000
001F800FC000
001F801FC000
003F801FC000
003F001F8000
003F001F8000
003F003F8000
007F003F0000
007E003F0000
007E007F0000
00FE007E0000
FFFFFFFFFC00
FFFFFFFFFC00
FFFFFFFFFC00
FFFFFFFFFC00
FFFFFFFFFC00
FFFFFFFFFC00
03F801F80000
03F001F80000
03F003F80000
07F003F00000
07E003F00000
07E007F00000
0FE007F00000
0FC007E00000
0FC007E00000
0FC00FE00000
1FC00FC00000
1F800FC00000
1F801FC00000
3F801F800000
ENDCHAR
STARTCHAR dollar
ENCODING 36
SWIDTH 744 0
DWIDTH 52 0
BBX 44 51 4 0
BITMAP
00000F000000
00000F000000
00000F000000
00000F000000
00000F000000
00FFFFFFFFC0
03FFFFFFFFC0
0FFFFFFFFFC0
1FFFFFFFFFC0
3FFFFFFFFFC0
7FFFFFFFFFC0
7FFFFFFFFFC0
7FC00F000000
FF800F000000
FF000F000000
FF000F000000
FE000F000000
FE000F000000
FF000F000000
FF000F000000
7F800F000000
7FC00F000000
3FFFFFFFF000
3FFFFFFFFE00
1FFFFFFFFF00
0FFFFFFFFF80
03FFFFFFFFC0
00FFFFFFFFE0
00000F003FE0
00000F000FE0
00000F000FF0
00000F0007F0
00000F0007F0
00000F0007F0
00000F0007F0
00000F0007F0
00000F000FF0
00000F000FF0
00000F003FE0
7FFFFFFFFFE0
7FFFFFFFFFC0
7FFFFFFFFFC0
7FFFFFFFFF80
7FFFFFFFFF00
7FFFFFFFFC00
7FFFFFFFF000
00000F000000
00000F000000
00000F000000
00000F000000
00000F000000
ENDCHAR
STARTCHAR percent
ENCODING 37
SWIDTH 965 0
DWIDTH 68 0
BBX 62 59 3 -5
BITMAP
0000000000007F00
0000000000007E00
007F80000000FC00
01FFF0000001F800
07FFF8000003F000
0FFFFC000007E000
1FFFFE000007E000
3FC0FF00000FC000
7F001F80001F8000
7E000F80003F0000
7C000FC0003F0000
F80007C0007E0000
F80007C000FC0000
F80003C001F80000
F00003C003F00000
F00003C003F00000
F00003C007E00000
F80003C00FC00000
F80007C01F800000
780007801F800000
7C000F803F000000
3E000F807E000000
3F001F00FC000000
1FC0FE01F8000000
0FFFFC01F8000000
07FFF803F0000000
01FFE007E0000000
007F800FC0000000
0000000FC0000000
0000001F800FF000
0000003F003FFE00
0000007E00FFFF00
000000FC01FFFFC0
000000FC03FFFFE0
000001F807F80FE0
000003F007E003F0
000007E00FC001F8
000007E00F8000F8
00000FC00F0000F8
00001F801F000078
00003F001F00007C
00007E001F00007C
00007E001F00007C
0000FC001F000078
0001F8001F000078
0003F0000F000078
0003F0000F0000F8
0007E0000F8000F0
000FC00007C001F0
001F800003E003E0
003F000003F80FC0
003F000001FFFF80
007E0000007FFF00
00FC0000003FFE00
01F800000007F000
01F8000000000000
03F0000000000000
07E0000000000000
0FC0000000000000
ENDCHAR
STARTCHAR ampersand
ENCODING 38
SWIDTH 759 0
DWIDTH 53 0
BBX 48 51 3 0
BITMAP
0007FFF00000
007FFFF00000
01FFFFF00000
03FFFFF00000
07FFFFF00000
0FFFFFF00000
1FFFFFF00000
1FFFFFF00000
3FFFFFF00000
3FFC00000000
3FF000000000
7FE000000000
7FE000000000
7FE000000000
7FC000000000
7FC000000000
3FC000000000
3FE000000000
3FE000000000
1FE000000000
1FF000000000
0FFC00000000
07FFFFFFFFF8
03FFFFFFFFF8
00FFFFFFFFF8
03FFFFFFFFF8
07FFFFFFFFF8
0FFFFFFFFFF8
1FFFFFFFFFF8
3FFC0003FE00
3FF00003FE00
7FC00003FE00
7FC00003FE00
7FC00003FE00
FF800003FE00
FF800003FE00
FF800003FE00
FFC00003FE00
7FC00003FE00
7FE00003FE00
7FF00003FE00
7FFC0003FE00
3FFFFFFFFFFF
3FFFFFFFFFFF
1FFFFFFFFFFF
0FFFFFFFFFFF
0FFFFFFFFFFF
07FFFFFFFFFF
01FFFFFFFFFF
007FFFFFFFFF
000FFFFFFFFF
ENDCHAR
STARTCHAR quotesingle
ENCODING 39
SWIDTH 255 0
DWIDTH 18 0
BBX 9 18 4 33
BITMAP
FF80
7F80
7F80
7F80
7F80
7F80
7F80
7F80
7F80
7F80
7F00
7F00
3F00
3F00
3F00
3F00
3F00
3F00
ENDCHAR
STARTCHAR parenleft
ENCODING 40
SWIDTH 356 0
DWIDTH 25 0
BBX 14 64 7 -6
BITMAP
01F8
03F8
03F0
03F0
07F0
07E0
0FE0
0FC0
0FC0
1FC0
1F80
1F80
3F80
3F00
3F00
3F00
7E00
7E00
7E00
7E00
7E00
FC00
FC00
FC00
FC00
FC00
FC00
F800
F800
F800
F800
F800
F800
F800
F800
F800
F800
FC00
FC00
FC00
FC00
FC00
FC00
7C00
7E00
7E00
7E00
7E00
3F00
3F00
3F00
3F00
1F80
1F80
1F80
0FC0
0FC0
0FE0
07E0
07E0
03F0
03F0
01F8
01FC
ENDCHAR
STARTCHAR parenright
ENCODING 41
SWIDTH 355 0
DWIDTH 25 0
BBX 14 64 4 -6
BITMAP
7E00
7E00
3F00
3F00
3F80
1F80
1F80
0FC0
0FC0
0FC0
07E0
07E0
07E0
03F0
03F0
03F0
03F8
01F8
01F8
01F8
01F8
00F8
00FC
00FC
00FC
00FC
00FC
00FC
00FC
007C
00FC
007C
007C
007C
007C
00FC
00FC
00FC
00FC
00FC
00FC
00FC
00F8
01F8
01F8
01F8
01F8
01F8
03F0
03F0
03F0
07E0
07E0
07E0
0FE0
0FC0
0FC0
1F80
1F80
3F80
3F00
3F00
7E00
FE00
ENDCHAR
STARTCHAR asterisk
ENCODING 42
SWIDTH 469 0
DWIDTH 33 0
BBX 24 23 4 28
BITMAP
003C00
003C00
003C00
003C00
003C00
003C00
403C02
7C3C1F
7FBCFF
7FFFFF
FFFFFF
07FFF0
00FF80
007F00
00FF80
01FFC0
03F7C0
03E3E0
07C1F0
0F81F0
0F80F8
070070
020060
ENDCHAR
STARTCHAR plus
ENCODING 43
SWIDTH 690 0
DWIDTH 48 0
BBX 40 40 4 6
BITMAP
00007E0000
00007E0000
00007E0000
00007E0000
00007E0000
00007E0000
00007E0000
00007E0000
00007E0000
00007E0000
00007E0000
00007E0000
00007E0000
00007E0000
00007E0000
00007E0000
00007E0000
FFFFFFFFFF
FFFFFFFFFF
FFFFFFFFFF
FFFFFFFFFF
FFFFFFFFFF
FFFFFFFFFF
00007E0000
00007E0000
00007E0000
00007E0000
00007E0000
00007E0000
00007E0000
00007E0000
00007E0000
00007E0000
00007E0000
00007E0000
00007E0000
00007E0000
00007E0000
00007E0000
00007E0000
ENDCHAR
STARTCHAR comma
ENCODING 44
SWIDTH 259 0
DWIDTH 18 0
BBX 9 18 5 -8
BITMAP
FF80
FF00
FF00
FF00
FF00
FF00
FE00
FE00
FE00
FE00
FE00
FE00
FC00
FC00
FC00
FC00
FC00
F800
ENDCHAR
STARTCHAR hyphen
ENCODING 45
SWIDTH 296 0
DWIDTH 21 0
BBX 17 6 2 23
BITMAP
FFFF80
FFFF80
FFFF80
FFFF80
FFFF80
FFFF80
ENDCHAR
STARTCHAR period
ENCODING 46
SWIDTH 262 0
DWIDTH 18 0
BBX 10 10 4 0
BITMAP
1E00
3F80
7F80
7FC0
FFC0
FFC0
7FC0
7F80
3F80
1E00
ENDCHAR
STARTCHAR slash
ENCODING 47
SWIDTH 444 0
DWIDTH 31 0
BBX 29 51 1 0
BITMAP
000001F8
000001F8
000003F0
000003F0
000007E0
000007E0
00000FC0
00000FC0
00000F80
00001F80
00001F80
00003F00
00003F00
00007E00
00007E00
0000FC00
0000FC00
0001F800
0001F800
0003F000
0003F000
0007E000
0007E000
0007E000
000FC000
000FC000
001F8000
001F8000
003F0000
003F0000
007E0000
007E0000
00FC0000
00FC0000
01F80000
01F80000
03F80000
03F00000
07F00000
07E00000
07E00000
0FC00000
0FC00000
1F800000
1F800000
3F000000
3F000000
7E000000
7E000000
FE000000
FC000000
ENDCHAR
STARTCHAR zero
ENCODING 48
SWIDTH 838 0
DWIDTH 59 0
BBX 53 51 3 0
BITMAP
000007FF000000
00007FFFF00000
0003FFFFFC0000
000FFFFFFF0000
001FFFFFFFC000
007FFFFFFFE000
00FFFFFFFFF000
01FFFFFFFFFC00
03FFFFFFFFFE00
07FFF801FFFE00
0FFFC0001FFF00
0FFF00000FFF80
1FFE000003FF80
1FF8000001FFC0
3FF0000000FFC0
3FF00000007FE0
7FE00000007FE0
7FE00000003FF0
7FC00000003FF0
FFC00000001FF0
FF800000001FF0
FF800000001FF0
FF800000000FF8
FF800000000FF8
FF800000000FF8
FF800000000FF8
FF800000000FF8
FF800000000FF8
FF800000000FF0
FF800000001FF0
FF800000001FF0
7FC00000001FF0
7FC00000003FF0
7FE00000003FE0
3FE00000007FE0
3FF00000007FE0
1FF8000000FFC0
1FFC000001FFC0
0FFE000003FF80
0FFF00000FFF00
07FFC0003FFF00
03FFF801FFFE00
01FFFFFFFFFC00
00FFFFFFFFF800
007FFFFFFFF000
003FFFFFFFE000
001FFFFFFF8000
0007FFFFFF0000
0001FFFFFC0000
00007FFFE00000
000007FF000000
ENDCHAR
STARTCHAR one
ENCODING 49
SWIDTH 385 0
DWIDTH 27 0
BBX 21 51 2 0
BITMAP
FF8000
FFF000
FFFC00
FFFF00
FFFF80
FFFF80
FFFFC0
FFFFE0
FFFFE0
00FFE0
007FF0
003FF0
001FF0
001FF0
000FF0
000FF8
000FF8
000FF8
000FF8
000FF8
000FF8
000FF8
000FF8
000FF8
000FF8
000FF8
000FF8
000FF8
000FF8
000FF8
000FF8
000FF8
000FF8
000FF8
000FF8
000FF8
000FF8
000FF8
000FF8
000FF8
000FF8
000FF8
000FF8
000FF8
000FF8
000FF8
000FF8
000FF8
000FF8
000FF8
000FF8
ENDCHAR
STARTCHAR two
ENCODING 50
SWIDTH 825 0
DWIDTH 58 0
BBX 50 51 4 0
BITMAP
7FFFFFFFFE0000
7FFFFFFFFFC000
7FFFFFFFFFF000
7FFFFFFFFFF800
7FFFFFFFFFFC00
7FFFFFFFFFFE00
7FFFFFFFFFFF00
7FFFFFFFFFFF80
7FFFFFFFFFFF80
0000000003FF80
0000000001FFC0
0000000000FFC0
00000000007FC0
00000000007FC0
00000000007FC0
00000000007FC0
00000000007FC0
00000000007FC0
0000000000FFC0
0000000001FF80
0000000007FF80
001FFFFFFFFF00
00FFFFFFFFFF00
03FFFFFFFFFE00
07FFFFFFFFFC00
0FFFFFFFFFF800
1FFFFFFFFFF000
3FFFFFFFFFC000
3FFFFFFFFE0000
7FF80000000000
7FE00000000000
7FC00000000000
7F800000000000
FF800000000000
FF800000000000
FF800000000000
FF800000000000
FF800000000000
FF800000000000
FF800000000000
FF800000000000
FF800000000000
FFFFFFFFFFFF80
FFFFFFFFFFFF80
FFFFFFFFFFFF80
FFFFFFFFFFFF80
FFFFFFFFFFFF80
FFFFFFFFFFFF80
FFFFFFFFFFFF80
FFFFFFFFFFFF80
FFFFFFFFFFFF80
ENDCHAR
STARTCHAR three
ENCODING 51
SWIDTH 827 0
DWIDTH 58 0
BBX 51 51 3 0
BITMAP
FFFFFFFFFE0000
FFFFFFFFFFE000
FFFFFFFFFFF800
FFFFFFFFFFFC00
FFFFFFFFFFFE00
FFFFFFFFFFFF00
FFFFFFFFFFFF80
FFFFFFFFFFFF80
FFFFFFFFFFFFC0
0000000007FFC0
0000000000FFC0
00000000007FC0
00000000007FC0
00000000007FC0
00000000007FC0
00000000007FC0
00000000007FC0
00000000007FC0
00000000007FC0
0000000000FF80
0000000003FF00
000FFFFFFFFE00
000FFFFFFFFC00
000FFFFFFFF800
000FFFFFFFF800
000FFFFFFFFE00
000FFFFFFFFF00
000FFFFFFFFF80
000FFFFFFFFFC0
0000000003FFC0
0000000000FFE0
00000000007FE0
00000000003FE0
00000000003FE0
00000000003FE0
00000000003FE0
00000000003FE0
00000000003FE0
00000000003FE0
00000000007FE0
0000000000FFE0
0000000007FFC0
FFFFFFFFFFFFC0
FFFFFFFFFFFFC0
FFFFFFFFFFFF80
FFFFFFFFFFFF00
FFFFFFFFFFFE00
FFFFFFFFFFFC00
FFFFFFFFFFF800
FFFFFFFFFFE000
FFFFFFFFFF0000
ENDCHAR
STARTCHAR four
ENCODING 52
SWIDTH 845 0
DWIDTH 59 0
BBX 54 51 3 0
BITMAP
FF80000003FE00
FF80000003FE00
FF80000003FE00
FF80000003FE00
FF80000003FE00
FF80000003FE00
FF80000003FE00
FF80000003FE00
FF80000003FE00
FF80000003FE00
FF80000003FE00
FF80000003FE00
FF80000003FE00
FF80000003FE00
FF80000003FE00
FF80000003FE00
FF80000003FE00
FF80000003FE00
FF80000003FE00
FF80000003FE00
FF80000003FE00
FF80000003FE00
FF80000003FE00
FF80000003FE00
7FC0000003FE00
7FC0000003FE00
7FC0000003FE00
7FE0000003FE00
7FF8000003FE00
3FFFFFFFFFFFFC
3FFFFFFFFFFFFC
1FFFFFFFFFFFFC
1FFFFFFFFFFFFC
0FFFFFFFFFFFFC
07FFFFFFFFFFFC
01FFFFFFFFFFFC
007FFFFFFFFFFC
000FFFFFFFFFFC
0000000003FE00
0000000003FE00
0000000003FE00
0000000003FE00
0000000003FE00
0000000003FE00
0000000003FE00
0000000003FE00
0000000003FE00
0000000003FE00
0000000003FE00
0000000003FE00
0000000003FE00
ENDCHAR
STARTCHAR five
ENCODING 53
SWIDTH 885 0
DWIDTH 62 0
BBX 54 51 4 0
BITMAP
FFFFFFFFFFFFF0
FFFFFFFFFFFFF0
FFFFFFFFFFFFF0
FFFFFFFFFFFFF0
FFFFFFFFFFFFF0
FFFFFFFFFFFFF0
FFFFFFFFFFFFF0
FFFFFFFFFFFFF0
FFFFFFFFFFFFF0
FFC00000000000
FFC00000000000
FFC00000000000
FFC00000000000
FFC00000000000
FFC00000000000
FFC00000000000
FFC00000000000
FFC00000000000
FFC00000000000
FFC00000000000
FFC00000000000
FFFFFFFFFFF000
FFFFFFFFFFFE00
FFFFFFFFFFFF80
FFFFFFFFFFFFC0
FFFFFFFFFFFFE0
FFFFFFFFFFFFF0
FFFFFFFFFFFFF0
FFFFFFFFFFFFF8
00000000003FF8
00000000000FFC
000000000007FC
000000000007FC
000000000003FC
000000000003FC
000000000003FC
000000000003FC
000000000003FC
000000000007FC
000000000007FC
00000000000FFC
00000000003FF8
FFFFFFFFFFFFF8
FFFFFFFFFFFFF8
FFFFFFFFFFFFF0
FFFFFFFFFFFFE0
FFFFFFFFFFFFE0
FFFFFFFFFFFFC0
FFFFFFFFFFFF00
FFFFFFFFFFFC00
FFFFFFFFFFE000
ENDCHAR
STARTCHAR six
ENCODING 54
SWIDTH 872 0
DWIDTH 61 0
BBX 54 51 3 0
BITMAP
00007FFFFFFFF0
0007FFFFFFFFF0
001FFFFFFFFFF0
007FFFFFFFFFF0
00FFFFFFFFFFF0
01FFFFFFFFFFF0
03FFFFFFFFFFF0
07FFFFFFFFFFF0
0FFFFFFFFFFFF0
1FFFC000000000
1FFE0000000000
3FFC0000000000
3FF80000000000
3FF00000000000
7FE00000000000
7FE00000000000
7FC00000000000
7FC00000000000
FFC00000000000
FF800000000000
FF800000000000
FFFFFFFFFFF000
FFFFFFFFFFFE00
FFFFFFFFFFFF80
FFFFFFFFFFFFC0
FFFFFFFFFFFFE0
FFFFFFFFFFFFF0
FFFFFFFFFFFFF8
FFFFFFFFFFFFF8
FF800000003FF8
FF800000000FFC
FF8000000007FC
7FC000000007FC
7FC000000003FC
7FC000000003FC
7FE000000003FC
3FE000000003FC
3FF000000003FC
3FF800000007FC
1FFC00000007FC
1FFE0000000FFC
0FFFC000003FF8
0FFFFFFFFFFFF8
07FFFFFFFFFFF8
03FFFFFFFFFFF0
01FFFFFFFFFFE0
00FFFFFFFFFFE0
003FFFFFFFFFC0
001FFFFFFFFF00
0003FFFFFFFE00
00007FFFFFE000
ENDCHAR
STARTCHAR seven
ENCODING 55
SWIDTH 756 0
DWIDTH 53 0
BBX 48 51 3 0
BITMAP
FFFFFFFFFFFC
FFFFFFFFFFFE
FFFFFFFFFFFF
FFFFFFFFFFFF
FFFFFFFFFFFF
FFFFFFFFFFFF
FFFFFFFFFFFF
FFFFFFFFFFFE
FFFFFFFFFFFE
000000001FFC
000000003FF8
000000007FF0
00000000FFE0
00000001FFE0
00000001FFC0
00000003FF80
00000007FF00
0000000FFE00
0000001FFE00
0000001FFC00
0000003FF800
0000007FF000
000000FFE000
000001FFC000
000003FFC000
000003FF8000
000007FF0000
00000FFE0000
00001FFC0000
00003FFC0000
00007FF80000
00007FF00000
0000FFE00000
0001FFC00000
0003FFC00000
0007FF800000
000FFF000000
000FFE000000
001FFC000000
003FF8000000
007FF8000000
00FFF0000000
00FFE0000000
01FFC0000000
03FF80000000
07FF80000000
0FFF00000000
1FFE00000000
1FFC00000000
3FF800000000
FFF000000000
ENDCHAR
STARTCHAR eight
ENCODING 56
SWIDTH 898 0
DWIDTH 63 0
BBX 55 51 4 0
BITMAP
000FFFFFFFE000
00FFFFFFFFFE00
03FFFFFFFFFF80
07FFFFFFFFFFC0
0FFFFFFFFFFFE0
1FFFFFFFFFFFF0
3FFFFFFFFFFFF8
3FFFFFFFFFFFF8
7FFFFFFFFFFFFC
7FFC0000007FFC
7FE00000001FFC
7FC00000000FFC
7FC000000007FC
7FC000000007FC
7FC000000007FC
7FC000000007FC
7FC000000007FC
7FC000000007FC
7FC000000007F8
3FE00000000FF8
1FF80000003FF0
1FFFFFFFFFFFE0
07FFFFFFFFFFC0
03FFFFFFFFFF00
03FFFFFFFFFF80
0FFFFFFFFFFFC0
1FFFFFFFFFFFF0
3FFFFFFFFFFFF8
7FFFFFFFFFFFF8
7FF80000003FFC
FFE00000000FFC
FFC000000007FE
FF8000000003FE
FF8000000003FE
FF8000000003FE
FF8000000003FE
FF8000000003FE
FF8000000003FE
FF8000000003FE
FFC000000007FE
FFE00000000FFE
7FFC0000007FFC
7FFFFFFFFFFFFC
7FFFFFFFFFFFF8
3FFFFFFFFFFFF8
1FFFFFFFFFFFF0
0FFFFFFFFFFFE0
07FFFFFFFFFFC0
03FFFFFFFFFF80
00FFFFFFFFFE00
001FFFFFFFF000
ENDCHAR
STARTCHAR nine
ENCODING 57
SWIDTH 861 0
DWIDTH 60 0
BBX 54 51 3 0
BITMAP
001FFFFFF80000
00FFFFFFFF8000
03FFFFFFFFE000
07FFFFFFFFF800
0FFFFFFFFFFC00
1FFFFFFFFFFE00
3FFFFFFFFFFF00
3FFFFFFFFFFF80
7FFFFFFFFFFFC0
7FF800000FFFC0
7FE0000001FFE0
FFC0000000FFE0
FFC00000007FF0
FF800000003FF0
FF800000001FF8
FF800000001FF8
FF800000000FF8
FF800000000FF8
FF800000000FFC
FF8000000007FC
FFC000000007FC
7FC000000007FC
7FE000000007FC
7FF800000007FC
3FFFFFFFFFFFFC
3FFFFFFFFFFFFC
1FFFFFFFFFFFFC
0FFFFFFFFFFFFC
07FFFFFFFFFFFC
01FFFFFFFFFFFC
003FFFFFFFFFFC
000000000007FC
000000000007FC
00000000000FFC
00000000000FF8
00000000000FF8
00000000001FF8
00000000003FF8
00000000003FF0
0000000000FFF0
0000000001FFE0
000000000FFFE0
03FFFFFFFFFFC0
03FFFFFFFFFF80
03FFFFFFFFFF80
03FFFFFFFFFF00
03FFFFFFFFFE00
03FFFFFFFFF800
03FFFFFFFFE000
03FFFFFFFF8000
03FFFFFFF80000
ENDCHAR
STARTCHAR colon
ENCODING 58
SWIDTH 262 0
DWIDTH 18 0
BBX 10 33 4 0
BITMAP
1E00
3F80
7F80
7FC0
FFC0
FFC0
7FC0
7F80
3F80
1E00
0000
0000
0000
0000
0000
0000
0000
0000
0000
0000
0000
0000
0000
1E00
3F80
7F80
7FC0
FFC0
FFC0
7FC0
7F80
3F80
1E00
ENDCHAR
STARTCHAR semicolon
ENCODING 59
SWIDTH 262 0
DWIDTH 18 0
BBX 10 41 4 -8
BITMAP
1E00
3F80
7F80
7FC0
FFC0
FFC0
7FC0
7F80
3F80
1E00
0000
0000
0000
0000
0000
0000
0000
0000
0000
0000
0000
0000
0000
7FC0
7F80
7F80
7F80
7F80
7F80
7F00
7F00
7F00
7F00
7F00
7F00
7E00
7E00
7E00
7E00
7E00
7C00
ENDCHAR
STARTCHAR less
ENCODING 60
SWIDTH 690 0
DWIDTH 48 0
BBX 40 38 4 7
BITMAP
0000000001
0000000007
000000003F
00000000FF
00000003FF
0000001FFF
0000007FFF
000003FFFC
00000FFFE0
00003FFF00
0001FFFC00
0007FFE000
001FFF8000
00FFFC0000
03FFF00000
1FFF800000
3FFE000000
7FF0000000
FF80000000
FF80000000
7FF0000000
7FFC000000
1FFF800000
03FFE00000
00FFFC0000
003FFF0000
0007FFE000
0001FFF800
00007FFF00
00000FFFC0
000003FFF8
000000FFFE
0000001FFF
00000007FF
00000000FF
000000003F
000000000F
0000000001
ENDCHAR
STARTCHAR equal
ENCODING 61
SWIDTH 690 0
DWIDTH 48 0
BBX 40 25 4 13
BITMAP
FFFFFFFFFF
FFFFFFFFFF
FFFFFFFFFF
FFFFFFFFFF
FFFFFFFFFF
FFFFFFFFFF
0000000000
0000000000
0000000000
0000000000
0000000000
0000000000
0000000000
0000000000
0000000000
0000000000
0000000000
0000000000
0000000000
FFFFFFFFFF
FFFFFFFFFF
FFFFFFFFFF
FFFFFFFFFF
FFFFFFFFFF
FFFFFFFFFF
ENDCHAR
STARTCHAR greater
ENCODING 62
SWIDTH 690 0
DWIDTH 48 0
BBX 40 38 4 7
BITMAP
8000000000
F000000000
FC00000000
FF00000000
FFE0000000
FFF8000000
FFFF000000
1FFFC00000
07FFF00000
00FFFE0000
003FFF8000
0007FFE000
0000FFFC00
00003FFF00
000007FFE0
000001FFF8
0000003FFE
0000000FFE
00000001FF
00000001FF
00000007FF
0000003FFE
000000FFF8
000007FFE0
00001FFF00
0000FFFC00
0007FFF000
001FFF8000
00FFFE0000
03FFF80000
1FFFC00000
7FFF000000
FFF8000000
FFE0000000
FF80000000
FC00000000
F000000000
C000000000
ENDCHAR
STARTCHAR question
ENCODING 63
SWIDTH 776 0
DWIDTH 54 0
BBX 49 51 3 0
BITMAP
FFFFFFFFFC0000
FFFFFFFFFF8000
FFFFFFFFFFE000
FFFFFFFFFFF800
FFFFFFFFFFFC00
FFFFFFFFFFFC00
FFFFFFFFFFFE00
FFFFFFFFFFFF00
FFFFFFFFFFFF00
0000000007FF00
0000000003FF80
0000000001FF80
0000000000FF80
0000000000FF80
0000000000FF80
0000000000FF80
0000000000FF80
0000000000FF80
0000000001FF80
0000000003FF00
0000000007FF00
000FFFFFFFFF00
007FFFFFFFFE00
00FFFFFFFFFC00
01FFFFFFFFF800
03FFFFFFFFF000
03FFFFFFFFE000
07FFFFFFFF8000
07FFFFFFFC0000
07FC0000000000
07F80000000000
07F80000000000
07F80000000000
07F80000000000
00000000000000
00000000000000
00000000000000
00000000000000
00000000000000
00000000000000
00000000000000
01E00000000000
03F80000000000
07F80000000000
07FC0000000000
0FFC0000000000
0FFC0000000000
07FC0000000000
07F80000000000
03F80000000000
01E00000000000
ENDCHAR
STARTCHAR at
ENCODING 64
SWIDTH 833 0
DWIDTH 58 0
BBX 51 51 3 0
BITMAP
00000FFFFFFFE0
00007FFFFFFFE0
0003FFFFFFFFE0
000FFFFFFFFFE0
001FFFFFFFFFE0
007FFFFFFFFFE0
00FFFFFFFFFFE0
01FFF800000FE0
03FF8000000FE0
07FE0000000FE0
07FC0000000FE0
0FF80000000FE0
1FF00000000FE0
1FE00000000FE0
3FC007FFFC0FE0
3F801FFFFC0FE0
3F803FFFFC0FE0
7F007FFFFC0FE0
7F00FFFFFC0FE0
7E00FF00FC0FE0
FE01FC00FC0FE0
FE01F800FC0FE0
FE01F800FC0FE0
FE01F800FC0FE0
FE03F000FC0FE0
FE03F000FC0FE0
FE03F000FC0FE0
FE03F800FC0FE0
FE01F800FC0FE0
FE01F800FC0FE0
FE01FC00FC0FE0
FE01FF00FC0FE0
7F00FFFFFFFFE0
7F00FFFFFFFFE0
7F007FFFFFFFE0
3F803FFFFFFFE0
3F801FFFFFFFE0
3FC007FFFFFFE0
1FE00000000000
1FE00000000000
0FF80000000000
07FC0000000000
03FE0000000000
01FF8000000000
00FFF800000000
007FFFFFFFFFE0
003FFFFFFFFFE0
000FFFFFFFFFE0
0003FFFFFFFFE0
0000FFFFFFFFE0
00000FFFFFFFE0
ENDCHAR
STARTCHAR A
ENCODING 65
SWIDTH 989 0
DWIDTH 69 0
BBX 67 52 1 0
BITMAP
000000004000000000
00000001F000000000
00000003F800000000
00000007FC00000000
00000007FE00000000
0000000FFE00000000
0000001FFF00000000
0000001FFF00000000
0000003FFF80000000
0000003FFFC0000000
0000007FFFC0000000
000000FFFFE0000000
000000FFFFE0000000
000001FFFFF0000000
000001FF3FF8000000
000003FF1FF8000000
000007FE1FFC000000
000007FE0FFC000000
00000FFC0FFE000000
00000FFC07FF000000
00001FF803FF000000
00003FF003FF800000
00003FF001FF800000
00007FE001FFC00000
00007FE000FFE00000
0000FFC0007FE00000
0001FF80007FF00000
0001FF80003FF00000
0003FF00003FF80000
0007FF00001FFC0000
0007FE00000FFC0000
000FFC00000FFE0000
000FFC07FFFFFE0000
001FF80FFFFFFF0000
003FF81FFFFFFF8000
003FF01FFFFFFF8000
007FE03FFFFFFFC000
007FE03FFFFFFFC000
00FFC07FFFFFFFE000
01FFC00000007FF000
01FF800000003FF000
03FF000000003FF800
03FF000000001FF800
07FE000000001FFC00
0FFE000000000FFE00
0FFC0000000007FE00
1FF80000000007FF00
1FF80000000003FF00
3FF00000000003FF80
7FF00000000001FFC0
7FE00000000000FFC0
FFC00000000000FFE0
ENDCHAR
STARTCHAR B
ENCODING 66
SWIDTH 891 0
DWIDTH 62 0
BBX 55 51 4 0
BITMAP
FFFFFFFFFFE000
FFFFFFFFFFFC00
FFFFFFFFFFFF00
FFFFFFFFFFFFC0
FFFFFFFFFFFFE0
FFFFFFFFFFFFF0
FFFFFFFFFFFFF0
FFFFFFFFFFFFF8
FFFFFFFFFFFFF8
FF800000007FFC
FF800000001FFC
FF800000000FFC
FF8000000007FC
FF8000000007FC
FF8000000007FC
FF8000000007FC
FF8000000007FC
FF8000000007FC
FF800000000FF8
FF800000001FF8
FF800000007FF0
FF80FFFFFFFFE0
FF80FFFFFFFFC0
FF80FFFFFFFF00
FF80FFFFFFFF00
FF80FFFFFFFFC0
FF80FFFFFFFFE0
FF80FFFFFFFFF0
FF80FFFFFFFFF8
FF800000003FFC
FF800000000FFC
FF8000000007FC
FF8000000007FE
FF8000000003FE
FF8000000003FE
FF8000000003FE
FF8000000003FE
FF8000000003FE
FF8000000007FE
FF800000000FFE
FF800000001FFC
FF80000000FFFC
FFFFFFFFFFFFFC
FFFFFFFFFFFFF8
FFFFFFFFFFFFF0
FFFFFFFFFFFFF0
FFFFFFFFFFFFE0
FFFFFFFFFFFFC0
FFFFFFFFFFFF00
FFFFFFFFFFFC00
FFFFFFFFFFE000
ENDCHAR
STARTCHAR C
ENCODING 67
SWIDTH 829 0
DWIDTH 58 0
BBX 52 51 3 0
BITMAP
00001FFFFFFFF0
0000FFFFFFFFF0
0007FFFFFFFFF0
001FFFFFFFFFF0
003FFFFFFFFFF0
00FFFFFFFFFFF0
01FFFFFFFFFFF0
03FFFFFFFFFFF0
07FFFFFFFFFFF0
07FFF000000000
0FFFC000000000
1FFF0000000000
1FFC0000000000
3FF80000000000
3FF00000000000
7FF00000000000
7FE00000000000
7FE00000000000
7FC00000000000
FFC00000000000
FF800000000000
FF800000000000
FF800000000000
FF800000000000
FF800000000000
FF800000000000
FF800000000000
FF800000000000
FF800000000000
FF800000000000
FF800000000000
7FC00000000000
7FC00000000000
7FE00000000000
7FE00000000000
3FF00000000000
3FF80000000000
1FF80000000000
1FFE0000000000
0FFF0000000000
0FFFC000000000
07FFF000000000
03FFFFFFFFFFF0
01FFFFFFFFFFF0
00FFFFFFFFFFF0
007FFFFFFFFFF0
003FFFFFFFFFF0
000FFFFFFFFFF0
0003FFFFFFFFF0
0000FFFFFFFFF0
00001FFFFFFFF0
ENDCHAR
STARTCHAR D
ENCODING 68
SWIDTH 879 0
DWIDTH 62 0
BBX 55 51 4 0
BITMAP
FFFFFFFFE00000
FFFFFFFFFE0000
FFFFFFFFFF8000
FFFFFFFFFFE000
FFFFFFFFFFF800
FFFFFFFFFFFC00
FFFFFFFFFFFE00
FFFFFFFFFFFF00
FFFFFFFFFFFF80
FF8000003FFFC0
FF80000007FFE0
FF80000001FFE0
FF80000000FFF0
FF800000007FF0
FF800000003FF8
FF800000001FF8
FF800000001FF8
FF800000000FFC
FF800000000FFC
FF8000000007FC
FF8000000007FC
FF8000000007FC
FF8000000003FE
FF8000000003FE
FF8000000003FE
FF8000000003FE
FF8000000003FE
FF8000000003FE
FF8000000007FC
FF8000000007FC
FF8000000007FC
FF8000000007FC
FF800000000FFC
FF800000000FF8
FF800000001FF8
FF800000001FF8
FF800000003FF0
FF800000007FF0
FF80000000FFE0
FF80000001FFE0
FF80000007FFC0
FF8000003FFF80
FFFFFFFFFFFF80
FFFFFFFFFFFF00
FFFFFFFFFFFE00
FFFFFFFFFFFC00
FFFFFFFFFFF000
FFFFFFFFFFE000
FFFFFFFFFF8000
FFFFFFFFFE0000
FFFFFFFFE00000
ENDCHAR
STARTCHAR E
ENCODING 69
SWIDTH 759 0
DWIDTH 53 0
BBX 46 51 4 0
BITMAP
FFFFFFFFFFFC
FFFFFFFFFFFC
FFFFFFFFFFFC
FFFFFFFFFFFC
FFFFFFFFFFFC
FFFFFFFFFFFC
FFFFFFFFFFFC
FFFFFFFFFFFC
FFFFFFFFFFFC
FF8000000000
FF8000000000
FF8000000000
FF8000000000
FF8000000000
FF8000000000
FF8000000000
FF8000000000
FF8000000000
FF8000000000
FF8000000000
FF8000000000
FF80FFFFFFF0
FF80FFFFFFF0
FF80FFFFFFF0
FF80FFFFFFF0
FF80FFFFFFF0
FF80FFFFFFF0
FF80FFFFFFF0
FF80FFFFFFF0
FF8000000000
FF8000000000
FF8000000000
FF8000000000
FF8000000000
FF8000000000
FF8000000000
FF8000000000
FF8000000000
FF8000000000
FF8000000000
FF8000000000
FF8000000000
FFFFFFFFFFFC
FFFFFFFFFFFC
FFFFFFFFFFFC
FFFFFFFFFFFC
FFFFFFFFFFFC
FFFFFFFFFFFC
FFFFFFFFFFFC
FFFFFFFFFFFC
FFFFFFFFFFFC
ENDCHAR
STARTCHAR F
ENCODING 70
SWIDTH 705 0
DWIDTH 49 0
BBX 44 51 4 0
BITMAP
FFFFFFFFFFF0
FFFFFFFFFFF0
FFFFFFFFFFF0
FFFFFFFFFFF0
FFFFFFFFFFF0
FFFFFFFFFFF0
FFFFFFFFFFF0
FFFFFFFFFFF0
FFFFFFFFFFF0
FF8000000000
FF8000000000
FF8000000000
FF8000000000
FF8000000000
FF8000000000
FF8000000000
FF8000000000
FF8000000000
FF8000000000
FF8000000000
FF8000000000
FF8000000000
FF80FFFFFFC0
FF80FFFFFFC0
FF80FFFFFFC0
FF80FFFFFFC0
FF80FFFFFFC0
FF80FFFFFFC0
FF80FFFFFFC0
FF80FFFFFFC0
FF8000000000
FF8000000000
FF8000000000
FF8000000000
FF8000000000
FF8000000000
FF8000000000
FF8000000000
FF8000000000
FF8000000000
FF8000000000
FF8000000000
FF8000000000
FF8000000000
FF8000000000
FF8000000000
FF8000000000
FF8000000000
FF8000000000
FF8000000000
FF8000000000
ENDCHAR
STARTCHAR G
ENCODING 71
SWIDTH 888 0
DWIDTH 62 0
BBX 55 51 3 0
BITMAP
00001FFFFFFFF0
0000FFFFFFFFF0
0007FFFFFFFFF0
001FFFFFFFFFF0
003FFFFFFFFFF0
00FFFFFFFFFFF0
01FFFFFFFFFFF0
03FFFFFFFFFFF0
07FFFFFFFFFFF0
07FFF000000000
0FFFC000000000
1FFF0000000000
1FFC0000000000
3FF80000000000
3FF00000000000
7FF00000000000
7FE00000000000
7FE00000000000
7FC00000000000
FFC00000000000
FF800000000000
FF8001FFFFFFFE
FF8001FFFFFFFE
FF8001FFFFFFFE
FF8001FFFFFFFE
FF8001FFFFFFFE
FF8001FFFFFFFE
FF8001FFFFFFFE
FF8001FFFFFFFE
FF8000000003FE
FF8000000003FE
7FC000000003FE
7FC000000003FE
7FE000000003FE
7FE000000003FE
3FF000000003FE
3FF800000003FE
1FF800000003FE
1FFE00000003FE
0FFF00000003FE
0FFFC0000003FE
07FFF0000003FE
03FFFFFFFFFFFE
01FFFFFFFFFFFE
00FFFFFFFFFFFE
007FFFFFFFFFFE
003FFFFFFFFFFE
000FFFFFFFFFFE
0003FFFFFFFFFE
0000FFFFFFFFFE
00001FFFFFFFFE
ENDCHAR
STARTCHAR H
ENCODING 72
SWIDTH 838 0
DWIDTH 59 0
BBX 50 51 4 0
BITMAP
FF800000007FC0
FF800000007FC0
FF800000007FC0
FF800000007FC0
FF800000007FC0
FF800000007FC0
FF800000007FC0
FF800000007FC0
FF800000007FC0
FF800000007FC0
FF800000007FC0
FF800000007FC0
FF800000007FC0
FF800000007FC0
FF800000007FC0
FF800000007FC0
FF800000007FC0
FF800000007FC0
FF800000007FC0
FF800000007FC0
FF800000007FC0
FF80FFFFFFFFC0
FF80FFFFFFFFC0
FF80FFFFFFFFC0
FF80FFFFFFFFC0
FF80FFFFFFFFC0
FF80FFFFFFFFC0
FF80FFFFFFFFC0
FF80FFFFFFFFC0
FF800000007FC0
FF800000007FC0
FF800000007FC0
FF800000007FC0
FF800000007FC0
FF800000007FC0
FF800000007FC0
FF800000007FC0
FF800000007FC0
FF800000007FC0
FF800000007FC0
FF800000007FC0
FF800000007FC0
FF800000007FC0
FF800000007FC0
FF800000007FC0
FF800000007FC0
FF800000007FC0
FF800000007FC0
FF800000007FC0
FF800000007FC0
FF800000007FC0
ENDCHAR
STARTCHAR I
ENCODING 73
SWIDTH 267 0
DWIDTH 19 0
BBX 9 51 5 0
BITMAP
FF80
FF80
FF80
FF80
FF80
FF80
FF80
FF80
FF80
FF80
FF80
FF80
FF80
FF80
FF80
FF80
FF80
FF80
FF80
FF80
FF80
FF80
FF80
FF80
FF80
FF80
FF80
FF80
FF80
FF80
FF80
FF80
FF80
FF80
FF80
FF80
FF80
FF80
FF80
FF80
FF80
FF80
FF80
FF80
FF80
FF80
FF80
FF80
FF80
FF80
FF80
ENDCHAR
STARTCHAR J
ENCODING 74
SWIDTH 708 0
DWIDTH 50 0
BBX 44 51 2 0
BITMAP
000000001FF0
000000001FF0
000000001FF0
000000001FF0
000000001FF0
000000001FF0
000000001FF0
000000001FF0
000000001FF0
000000001FF0
000000001FF0
000000001FF0
000000001FF0
000000001FF0
000000001FF0
000000001FF0
000000001FF0
000000001FF0
000000001FF0
000000001FF0
000000001FF0
000000001FF0
000000001FF0
000000001FF0
000000001FF0
000000001FF0
000000001FF0
000000001FF0
000000001FF0
000000001FF0
000000001FF0
000000001FF0
000000001FF0
000000003FF0
000000003FE0
000000007FE0
000000007FE0
00000000FFE0
00000001FFC0
00000003FFC0
0000000FFF80
0000007FFF80
FFFFFFFFFF00
FFFFFFFFFE00
FFFFFFFFFE00
FFFFFFFFFC00
FFFFFFFFF000
FFFFFFFFE000
FFFFFFFF8000
FFFFFFFC0000
FFFFFF800000
ENDCHAR
STARTCHAR K
ENCODING 75
SWIDTH 875 0
DWIDTH 61 0
BBX 56 51 4 0
BITMAP
FF800000007FFE
FF80000001FFF8
FF80000003FFF0
FF80000007FFC0
FF8000001FFF80
FF8000003FFF00
FF8000007FFC00
FF800001FFF800
FF800003FFF000
FF800007FFC000
FF80000FFF8000
FF80003FFE0000
FF80007FFC0000
FF8000FFF80000
FF8003FFE00000
FF8007FFC00000
FF800FFF800000
FF803FFE000000
FF807FFC000000
FF80FFF8000000
FF81FFE0000000
FF87FFC0000000
FF87FF80000000
FF8FFE00000000
FF8FFC00000000
FF8FFC00000000
FF8FFF00000000
FF87FF80000000
FF83FFC0000000
FF81FFF0000000
FF80FFF8000000
FF803FFC000000
FF801FFF000000
FF800FFF800000
FF8007FFC00000
FF8001FFF00000
FF8000FFF80000
FF80007FFC0000
FF80003FFE0000
FF80000FFF8000
FF800007FFC000
FF800003FFE000
FF800000FFF800
FF8000007FFC00
FF8000003FFE00
FF8000001FFF80
FF80000007FFC0
FF80000003FFE0
FF80000001FFF8
FF80000000FFFC
FF800000003FFF
ENDCHAR
STARTCHAR L
ENCODING 76
SWIDTH 707 0
DWIDTH 49 0
BBX 44 51 4 0
BITMAP
FF8000000000
FF8000000000
FF8000000000
FF8000000000
FF8000000000
FF8000000000
FF8000000000
FF8000000000
FF8000000000
FF8000000000
FF8000000000
FF8000000000
FF8000000000
FF8000000000
FF8000000000
FF8000000000
FF8000000000
FF8000000000
FF8000000000
FF8000000000
FF8000000000
FF8000000000
FF8000000000
FF8000000000
FF8000000000
FF8000000000
FF8000000000
FF8000000000
FF8000000000
FF8000000000
FF8000000000
FF8000000000
FF8000000000
FF8000000000
FF8000000000
FF8000000000
FF8000000000
FF8000000000
FF8000000000
FF8000000000
FF8000000000
FF8000000000
FFFFFFFFFFF0
FFFFFFFFFFF0
FFFFFFFFFFF0
FFFFFFFFFFF0
FFFFFFFFFFF0
FFFFFFFFFFF0
FFFFFFFFFFF0
FFFFFFFFFFF0
FFFFFFFFFFF0
ENDCHAR
STARTCHAR M
ENCODING 77
SWIDTH 1115 0
DWIDTH 78 0
BBX 75 52 2 -1
BITMAP
0001E000000001E00000
0003F800000003F80000
0007F800000007F80000
0007FC00000007FC0000
0007FC0000000FFC0000
000FFE0000000FFC0000
000FFE0000001FFC0000
000FFF0000001FFE0000
001FFF0000001FFE0000
001FFF8000003FFE0000
001FFF8000003FFE0000
001FFF8000007FFF0000
003FFFC000007FFF0000
003FFFC00000FFFF0000
003FFFE00000FFFF8000
007FFFE00001FFFF8000
007FFFF00001FFFF8000
007FDFF00001FE7F8000
007F9FF00003FE7FC000
00FF8FF80003FC7FC000
00FF8FF80007FC7FC000
00FF87FC0007F83FC000
00FF07FC000FF83FE000
01FF03FE000FF83FE000
01FF03FE000FF03FE000
01FE03FF001FF01FF000
03FE01FF001FE01FF000
03FE01FF003FE01FF000
03FE00FF803FC00FF000
03FC00FF807FC00FF800
07FC007FC07F800FF800
07FC007FC0FF800FF800
07FC003FE0FF8007FC00
07F8003FE0FF0007FC00
0FF8003FF1FF0007FC00
0FF8001FF1FE0007FC00
0FF0001FF3FE0003FE00
1FF0000FFBFC0003FE00
1FF0000FFFFC0003FE00
1FF00007FFF80001FE00
1FE00007FFF80001FF00
3FE00003FFF80001FF00
3FE00003FFF00001FF00
3FE00003FFF00000FF80
7FC00001FFE00000FF80
7FC00001FFE00000FF80
7FC00000FFC000007F80
7F800000FFC000007FC0
FF8000007F8000007FC0
FF8000007F8000007FC0
FF8000003F0000003FE0
00000000040000000000
ENDCHAR
STARTCHAR N
ENCODING 78
SWIDTH 873 0
DWIDTH 61 0
BBX 53 51 4 0
BITMAP
1E000000000FF8
7F000000000FF8
7F800000000FF8
FFC00000000FF8
FFE00000000FF8
FFF00000000FF8
FFF80000000FF8
FFFC0000000FF8
FFFE0000000FF8
FFFF0000000FF8
FFFF8000000FF8
FFFFC000000FF8
FFFFE000000FF8
FFFFF000000FF8
FFFFF800000FF8
FFBFFC00000FF8
FF9FFE00000FF8
FF8FFF00000FF8
FF87FFC0000FF8
FF83FFE0000FF8
FF81FFF0000FF8
FF80FFF8000FF8
FF807FFC000FF8
FF803FFE000FF8
FF801FFF000FF8
FF800FFF800FF8
FF8007FFC00FF8
FF8003FFE00FF8
FF8001FFF00FF8
FF8000FFF80FF8
FF80007FFC0FF8
FF80003FFE0FF8
FF80001FFF0FF8
FF80000FFF8FF8
FF800007FFCFF8
FF800003FFEFF8
FF800001FFFFF8
FF800000FFFFF8
FF8000007FFFF8
FF8000001FFFF8
FF8000000FFFF8
FF80000007FFF8
FF80000003FFF8
FF80000001FFF8
FF80000000FFF8
FF800000007FF8
FF800000003FF8
FF800000001FF8
FF800000000FF0
FF8000000007F0
FF8000000003E0
ENDCHAR
STARTCHAR O
ENCODING 79
SWIDTH 968 0
DWIDTH 68 0
BBX 62 51 3 0
BITMAP
00001FFFFFE00000
0000FFFFFFFC0000
0007FFFFFFFF8000
001FFFFFFFFFE000
003FFFFFFFFFF000
00FFFFFFFFFFF800
01FFFFFFFFFFFE00
03FFFFFFFFFFFF00
07FFFFFFFFFFFF00
07FFF000007FFF80
0FFFC000000FFFC0
1FFF00000003FFE0
1FFC00000001FFE0
3FF800000000FFF0
3FF0000000007FF0
7FF0000000003FF0
7FE0000000001FF8
7FE0000000001FF8
7FC0000000000FF8
FFC0000000000FF8
FF80000000000FFC
FF800000000007FC
FF800000000007FC
FF800000000007FC
FF800000000007FC
FF800000000007FC
FF800000000007FC
FF800000000007FC
FF800000000007FC
FF800000000007FC
FF80000000000FF8
7FC0000000000FF8
7FC0000000000FF8
7FE0000000001FF8
7FE0000000001FF0
3FF0000000003FF0
3FF8000000007FF0
1FF800000000FFE0
1FFE00000001FFE0
0FFF00000003FFC0
0FFFC000000FFF80
07FFF000003FFF80
03FFFFFFFFFFFF00
01FFFFFFFFFFFE00
00FFFFFFFFFFFC00
007FFFFFFFFFF800
003FFFFFFFFFF000
000FFFFFFFFFC000
0003FFFFFFFF0000
0000FFFFFFFC0000
00001FFFFFC00000
ENDCHAR
STARTCHAR P
ENCODING 80
SWIDTH 867 0
DWIDTH 61 0
BBX 55 51 4 0
BITMAP
FFFFFFFFFF8000
FFFFFFFFFFF800
FFFFFFFFFFFE00
FFFFFFFFFFFF00
FFFFFFFFFFFF80
FFFFFFFFFFFFC0
FFFFFFFFFFFFE0
FFFFFFFFFFFFF0
FFFFFFFFFFFFF8
FF80000000FFF8
FF800000003FF8
FF800000000FFC
FF800000000FFC
FF8000000007FC
FF8000000007FC
FF8000000003FE
FF8000000003FE
FF8000000003FE
FF8000000003FE
FF8000000003FE
FF8000000003FE
FF8000000003FE
FF8000000007FC
FF8000000007FC
FF800000000FFC
FF800000001FFC
FF800000003FF8
FF80000000FFF8
FF80FFFFFFFFF0
FF80FFFFFFFFF0
FF80FFFFFFFFE0
FF80FFFFFFFFC0
FF80FFFFFFFF80
FF80FFFFFFFF00
FF80FFFFFFFC00
FF80FFFFFFF000
FF80FFFFFF8000
FF800000000000
FF800000000000
FF800000000000
FF800000000000
FF800000000000
FF800000000000
FF800000000000
FF800000000000
FF800000000000
FF800000000000
FF800000000000
FF800000000000
FF800000000000
FF800000000000
ENDCHAR
STARTCHAR Q
ENCODING 81
SWIDTH 968 0
DWIDTH 68 0
BBX 64 51 3 0
BITMAP
00001FFFFFE00000
0000FFFFFFFC0000
0007FFFFFFFF8000
001FFFFFFFFFE000
003FFFFFFFFFF000
00FFFFFFFFFFF800
01FFFFFFFFFFFE00
03FFFFFFFFFFFF00
07FFFFFFFFFFFF00
07FFF000007FFF80
0FFFC000000FFFC0
1FFF00000003FFE0
1FFC00000001FFE0
3FF800000000FFF0
3FF0000000007FF0
7FF0000000003FF0
7FE0000000001FF8
7FE0000000001FF8
7FC0000000000FF8
FFC0000000000FF8
FF80000000000FFC
FF800000000007FC
FF800000000007FC
FF800000000007FC
FF800000000007FC
FF800000000007FC
FF800000000007FC
FF800000000007FC
FF800000000007FC
FF800000000007FC
FF80001FFE000FF8
7FC00007FF000FF8
7FC00003FFC00FF8
7FE00001FFE01FF8
7FE00000FFF01FF0
3FF000003FF83FF0
3FF800001FFC7FF0
1FF800000FFEFFE0
1FFE000003FFFFE0
0FFF000001FFFFC0
0FFFC00000FFFF80
07FFF000007FFF80
03FFFFFFFFFFFF00
01FFFFFFFFFFFE00
00FFFFFFFFFFFF00
007FFFFFFFFFFF80
003FFFFFFFFFFFE0
000FFFFFFFFFFFF0
0003FFFFFFFF3FF8
0000FFFFFFFC1FFE
00001FFFFFC00FFF
ENDCHAR
STARTCHAR R
ENCODING 82
SWIDTH 921 0
DWIDTH 64 0
BBX 60 51 4 0
BITMAP
FFFFFFFFFFC00000
FFFFFFFFFFF80000
FFFFFFFFFFFE0000
FFFFFFFFFFFF8000
FFFFFFFFFFFFC000
FFFFFFFFFFFFE000
FFFFFFFFFFFFF000
FFFFFFFFFFFFF000
FFFFFFFFFFFFF800
FF800000007FFC00
FF800000001FFC00
FF800000000FFC00
FF8000000007FE00
FF8000000003FE00
FF8000000003FE00
FF8000000003FE00
FF8000000001FE00
FF8000000001FE00
FF8000000001FE00
FF8000000001FE00
FF8000000001FE00
FF8000000003FE00
FF8000000003FE00
FF8000000003FE00
FF8000000007FE00
FF8000000007FC00
FF800000000FFC00
FF800000001FFC00
FF800000007FF800
FF80FFFFFFFFF800
FF80FFFFFFFFF000
FF80FFFFFFFFE000
FF80FFFFFFFFC000
FF80FFFFFFFF8000
FF80FFFFFFFE0000
FF80FFFFFFF80000
FF80FFFFFFFC0000
FF8000001FFE0000
FF8000000FFF0000
FF80000007FF8000
FF80000003FFC000
FF80000001FFE000
FF80000000FFF000
FF800000007FF800
FF800000003FFC00
FF800000001FFE00
FF800000000FFF00
FF800000000FFF80
FF8000000007FFC0
FF8000000003FFE0
FF8000000001FFF0
ENDCHAR
STARTCHAR S
ENCODING 83
SWIDTH 880 0
DWIDTH 62 0
BBX 54 51 4 0
BITMAP
001FFFFFFFFFF0
00FFFFFFFFFFF0
03FFFFFFFFFFF0
0FFFFFFFFFFFF0
1FFFFFFFFFFFF0
3FFFFFFFFFFFF0
3FFFFFFFFFFFF0
7FFFFFFFFFFFF0
7FFFFFFFFFFFF0
FFF00000000000
FFE00000000000
FFC00000000000
FF800000000000
FF800000000000
FF800000000000
FF800000000000
FF800000000000
FF800000000000
FFC00000000000
FFE00000000000
7FF00000000000
7FFFFFFFFFF000
3FFFFFFFFFFE00
1FFFFFFFFFFF80
1FFFFFFFFFFFC0
0FFFFFFFFFFFE0
03FFFFFFFFFFF0
00FFFFFFFFFFF8
001FFFFFFFFFF8
00000000003FF8
00000000000FFC
000000000007FC
000000000007FC
000000000003FC
000000000003FC
000000000003FC
000000000003FC
000000000003FC
000000000007FC
000000000007FC
00000000000FFC
00000000003FFC
FFFFFFFFFFFFF8
FFFFFFFFFFFFF8
FFFFFFFFFFFFF0
FFFFFFFFFFFFF0
FFFFFFFFFFFFE0
FFFFFFFFFFFFC0
FFFFFFFFFFFF00
FFFFFFFFFFFC00
FFFFFFFFFFE000
ENDCHAR
STARTCHAR T
ENCODING 84
SWIDTH 720 0
DWIDTH 50 0
BBX 48 51 1 0
BITMAP
FFFFFFFFFFFF
FFFFFFFFFFFF
FFFFFFFFFFFF
FFFFFFFFFFFF
FFFFFFFFFFFF
FFFFFFFFFFFF
FFFFFFFFFFFF
FFFFFFFFFFFF
FFFFFFFFFFFF
00000FF80000
00000FF80000
00000FF80000
00000FF80000
00000FF80000
00000FF80000
00000FF80000
00000FF80000
00000FF80000
00000FF80000
00000FF80000
00000FF80000
00000FF80000
00000FF80000
00000FF80000
00000FF80000
00000FF80000
00000FF80000
00000FF80000
00000FF80000
00000FF80000
00000FF80000
00000FF80000
00000FF80000
00000FF80000
00000FF80000
00000FF80000
00000FF80000
00000FF80000
00000FF80000
00000FF80000
00000FF80000
00000FF80000
00000FF80000
00000FF80000
00000FF80000
00000FF80000
00000FF80000
00000FF80000
00000FF80000
00000FF80000
00000FF80000
ENDCHAR
STARTCHAR U
ENCODING 85
SWIDTH 889 0
DWIDTH 62 0
BBX 55 52 4 -1
BITMAP
FF8000000003FE
FF8000000003FE
FF8000000003FE
FF8000000003FE
FF8000000003FE
FF8000000003FE
FF8000000003FE
FF8000000003FE
FF8000000003FE
FF8000000003FE
FF8000000003FE
FF8000000003FE
FF8000000003FE
FF8000000003FE
FF8000000003FE
FF8000000003FE
FF8000000003FE
FF8000000003FE
FF8000000003FE
FF8000000003FE
FF8000000003FE
FF8000000003FE
FF8000000003FE
FF8000000003FE
FF8000000003FE
FF8000000003FE
FF8000000003FE
FF8000000003FE
FF8000000003FE
FF8000000003FE
FF8000000003FE
FF8000000003FC
FF8000000003FC
FF8000000007FC
FFC000000007FC
FFC000000007FC
FFC00000000FFC
7FE00000000FF8
7FF00000001FF8
7FF80000003FF8
3FFC0000007FF0
3FFF000001FFF0
1FFFF0001FFFE0
0FFFFFFFFFFFE0
0FFFFFFFFFFFC0
07FFFFFFFFFF80
03FFFFFFFFFF00
00FFFFFFFFFE00
007FFFFFFFF800
001FFFFFFFE000
0003FFFFFF0000
00000FFFE00000
ENDCHAR
STARTCHAR V
ENCODING 86
SWIDTH 989 0
DWIDTH 69 0
BBX 67 52 1 -1
BITMAP
FFE000000000007FE0
7FF00000000000FFC0
7FF00000000001FFC0
3FF80000000001FF80
1FF80000000003FF00
1FFC0000000003FF00
0FFE0000000007FE00
07FE0000000007FE00
07FF000000000FFC00
03FF000000001FF800
03FF800000001FF800
01FFC00000003FF000
00FFC00000003FF000
00FFE00000007FE000
007FE0000000FFC000
007FF0000000FFC000
003FF8000001FF8000
003FF8000001FF8000
001FFC000003FF0000
000FFC000003FE0000
000FFE000007FE0000
0007FE00000FFC0000
0003FF00000FFC0000
0003FF80001FF80000
0001FF80001FF00000
0001FFC0003FF00000
0000FFC0007FE00000
00007FE0007FE00000
00007FF000FFC00000
00003FF000FF800000
00003FF801FF800000
00001FF803FF000000
00000FFC03FF000000
00000FFE07FE000000
000007FE07FC000000
000007FF0FFC000000
000003FF0FF8000000
000001FF9FF8000000
000001FFBFF0000000
000000FFFFE0000000
000000FFFFE0000000
0000007FFFC0000000
0000003FFFC0000000
0000003FFF80000000
0000001FFF00000000
0000001FFF00000000
0000000FFE00000000
00000007FE00000000
00000007FC00000000
00000003F800000000
00000001F000000000
000000004000000000
ENDCHAR
STARTCHAR W
ENCODING 87
SWIDTH 1268 0
DWIDTH 89 0
BBX 87 52 1 -1
BITMAP
FFE0003FF8000000000FFE
7FE0003FF8000000000FFC
7FF0001FFC000000001FF8
3FF0001FFC000000001FF8
3FF8000FFE000000003FF0
1FF80007FE000000003FF0
1FFC0007FF000000007FE0
0FFE0003FF000000007FE0
07FE0003FF80000000FFC0
07FF0001FF80000000FFC0
03FF0001FFC0000001FF80
03FF8000FFC0000001FF80
01FF8000FFE0000003FF00
01FFC0007FE0000003FE00
00FFC0007FF0000007FE00
00FFE0003FF0000007FC00
007FE0003FF800000FFC00
007FF0001FF800000FF800
003FF0001FFC00001FF800
003FF8000FFC00001FF000
001FF8000FFE00003FF000
001FFC0007FE00007FE000
000FFC0007FF00007FE000
0007FE0003FF0000FFC000
0007FE0003FF8000FFC000
0003FF0001FF8001FF8000
0003FF0003FFC001FF8000
0001FF8003FFC003FF0000
0001FF8007FFE003FE0000
0000FFC007FFE007FE0000
0000FFE00FFFF007FC0000
00007FE00FFFF00FFC0000
00007FF01FFFF80FF80000
00003FF01FFFF81FF80000
00003FF83FEFFC1FF00000
00001FF87FEFFC3FF00000
00000FFC7FC7FE3FE00000
00000FFCFFC7FE7FE00000
000007FEFF83FF7FC00000
000007FFFF83FFFFC00000
000003FFFF01FFFF800000
000003FFFF01FFFF800000
000001FFFE00FFFF000000
000001FFFE00FFFE000000
000000FFFC007FFE000000
000000FFF8007FFC000000
0000007FF8003FFC000000
0000007FF0003FF8000000
0000003FF0001FF8000000
0000003FE0001FF0000000
0000001FE0000FE0000000
00000007800003C0000000
ENDCHAR
STARTCHAR X
ENCODING 88
SWIDTH 1000 0
DWIDTH 70 0
BBX 66 51 2 0
BITMAP
7FFC000000000FFF00
1FFE000000001FFC00
0FFF000000003FF800
07FF800000007FF000
03FFC0000000FFE000
01FFE0000001FFC000
00FFF0000003FF8000
007FF8000007FF0000
003FFC00000FFE0000
001FFF00001FFC0000
000FFF80003FF80000
0007FFC0007FF00000
0003FFE000FFE00000
0001FFF001FFC00000
0000FFF803FF800000
00003FFC07FF000000
00001FFE0FFE000000
00000FFF1FFC000000
000007FFBFF8000000
000003FFFFF0000000
000001FFFFE0000000
000000FFFFC0000000
0000007FFF80000000
0000003FFF00000000
0000001FFC00000000
0000003FFF00000000
0000007FFF80000000
000000FFFFC0000000
000001FFFFE0000000
000003FFFFF0000000
000007FF7FF8000000
00000FFE3FFC000000
00001FFC1FFE000000
00003FF80FFF000000
00007FF007FF800000
0001FFE003FFC00000
0003FFC001FFE00000
0007FF8000FFF00000
000FFF00007FF80000
001FFE00003FFC0000
003FFC00001FFE0000
007FF800000FFF0000
00FFF0000007FF8000
01FFE0000003FFC000
03FFC0000001FFE000
07FF80000000FFF000
0FFF000000007FF800
1FFE000000003FFC00
3FFC000000001FFE00
7FF8000000000FFF00
FFF00000000007FFC0
ENDCHAR
STARTCHAR Y
ENCODING 89
SWIDTH 926 0
DWIDTH 65 0
BBX 63 51 1 0
BITMAP
FFF0000000001FFE
7FF8000000003FFC
3FFC000000007FF8
1FFE000000007FF0
0FFF00000000FFE0
07FF80000001FFC0
07FF80000003FF80
03FFC0000007FF80
01FFE000000FFF00
00FFF000000FFE00
007FF800001FFC00
003FFC00003FF800
001FFC00007FF000
001FFE0000FFE000
000FFF0001FFE000
0007FF8003FFC000
0003FFC003FF8000
0001FFE007FF0000
0000FFE00FFE0000
00007FF01FFC0000
00007FF83FF80000
00003FFC7FF80000
00001FFE7FF00000
00000FFFFFE00000
000007FFFFC00000
000003FFFF800000
000001FFFF000000
000001FFFE000000
000000FFFE000000
0000007FFC000000
0000003FF8000000
0000001FF0000000
0000001FF0000000
0000001FF0000000
0000001FF0000000
0000001FF0000000
0000001FF0000000
0000001FF0000000
0000001FF0000000
0000001FF0000000
0000001FF0000000
0000001FF0000000
0000001FF0000000
0000001FF0000000
0000001FF0000000
0000001FF0000000
0000001FF0000000
0000001FF0000000
0000001FF0000000
0000001FF0000000
0000001FF0000000
ENDCHAR
STARTCHAR Z
ENCODING 90
SWIDTH 802 0
DWIDTH 56 0
BBX 50 51 3 0
BITMAP
FFFFFFFFFFFE00
FFFFFFFFFFFF80
FFFFFFFFFFFFC0
FFFFFFFFFFFFC0
FFFFFFFFFFFFC0
FFFFFFFFFFFFC0
FFFFFFFFFFFFC0
FFFFFFFFFFFF80
FFFFFFFFFFFF00
000000001FFE00
000000003FFC00
000000007FF800
00000000FFF000
00000001FFE000
00000003FFC000
00000007FF8000
0000000FFF0000
0000001FFE0000
0000003FFC0000
0000007FF80000
000000FFF00000
000001FFE00000
000003FFC00000
000007FF800000
00000FFF000000
00001FFE000000
00003FFC000000
00007FF8000000
0000FFF0000000
0001FFE0000000
0003FFC0000000
0007FF80000000
000FFF00000000
001FFE00000000
003FFC00000000
007FF800000000
00FFF000000000
01FFE000000000
03FFC000000000
07FF8000000000
0FFF0000000000
1FFE0000000000
3FFFFFFFFFFFC0
7FFFFFFFFFFFC0
FFFFFFFFFFFFC0
FFFFFFFFFFFFC0
FFFFFFFFFFFFC0
FFFFFFFFFFFFC0
FFFFFFFFFFFFC0
7FFFFFFFFFFFC0
3FFFFFFFFFFFC0
ENDCHAR
STARTCHAR bracketleft
ENCODING 91
SWIDTH 333 0
DWIDTH 23 0
BBX 12 64 7 -6
BITMAP
FFF0
FFF0
FFF0
FFF0
FFF0
FFF0
FC00
FC00
FC00
FC00
FC00
FC00
FC00
FC00
FC00
FC00
FC00
FC00
FC00
FC00
FC00
FC00
FC00
FC00
FC00
FC00
FC00
FC00
FC00
FC00
FC00
FC00
FC00
FC00
FC00
FC00
FC00
FC00
FC00
FC00
FC00
FC00
FC00
FC00
FC00
FC00
FC00
FC00
FC00
FC00
FC00
FC00
FC00
FC00
FC00
FC00
FC00
FC00
FFF0
FFF0
FFF0
FFF0
FFF0
FFF0
ENDCHAR
STARTCHAR backslash
ENCODING 92
SWIDTH 445 0
DWIDTH 31 0
BBX 29 51 1 0
BITMAP
FC000000
FC000000
7E000000
7E000000
3F000000
3F000000
1F800000
1F800000
0FC00000
0FC00000
07E00000
07E00000
07E00000
03F00000
03F00000
01F80000
01F80000
00FC0000
00FC0000
007E0000
007E0000
003F0000
003F0000
001F8000
001F8000
001FC000
000FC000
000FC000
0007E000
0007E000
0003F000
0003F000
0001F800
0001F800
0000FC00
0000FC00
00007E00
00007E00
00003F00
00003F00
00003F80
00001F80
00001F80
00000FC0
00000FC0
000007E0
000007E0
000003F0
000003F0
000001F8
000001F8
ENDCHAR
STARTCHAR bracketright
ENCODING 93
SWIDTH 333 0
DWIDTH 23 0
BBX 12 64 4 -6
BITMAP
FFF0
FFF0
FFF0
FFF0
FFF0
FFF0
03F0
03F0
03F0
03F0
03F0
03F0
03F0
03F0
03F0
03F0
03F0
03F0
03F0
03F0
03F0
03F0
03F0
03F0
03F0
03F0
03F0
03F0
03F0
03F0
03F0
03F0
03F0
03F0
03F0
03F0
03F0
03F0
03F0
03F0
03F0
03F0
03F0
03F0
03F0
03F0
03F0
03F0
03F0
03F0
03F0
03F0
03F0
03F0
03F0
03F0
03F0
03F0
FFF0
FFF0
FFF0
FFF0
FFF0
FFF0
ENDCHAR
STARTCHAR asciicircum
ENCODING 94
SWIDTH 559 0
DWIDTH 39 0
BBX 31 31 4 20
BITMAP
00038000
0007C000
000FE000
000FE000
001FF000
001FF000
001FF800
003FF800
003EFC00
007EFC00
007E7C00
00FC7E00
00FC7E00
00F83F00
01F83F00
01F01F00
03F01F80
03F01F80
07E00FC0
07E00FC0
07C007E0
0FC007E0
0FC007E0
1F8003F0
1F8003F0
1F0001F8
3F0001F8
3F0000F8
7E0000FC
7E0000FC
FC00007E
ENDCHAR
STARTCHAR underscore
ENCODING 95
SWIDTH 668 0
DWIDTH 47 0
BBX 47 4 0 -11
BITMAP
FFFFFFFFFFFE
FFFFFFFFFFFE
FFFFFFFFFFFE
FFFFFFFFFFFE
ENDCHAR
STARTCHAR grave
ENCODING 96
SWIDTH 362 0
DWIDTH 25 0
BBX 18 10 4 54
BITMAP
800000
E00000
FE0000
FFC000
FFF800
FFFF80
3FFFC0
01FFC0
001FC0
0000C0
ENDCHAR
STARTCHAR a
ENCODING 97
SWIDTH 989 0
DWIDTH 69 0
BBX 67 52 1 0
BITMAP
000000004000000000
00000001F000000000
00000003F800000000
00000007FC00000000
00000007FE00000000
0000000FFE00000000
0000001FFF00000000
0000001FFF00000000
0000003FFF80000000
0000003FFFC0000000
0000007FFFC0000000
000000FFFFE0000000
000000FFFFE0000000
000001FFFFF0000000
000001FF3FF8000000
000003FF1FF8000000
000007FE1FFC000000
000007FE0FFC000000
00000FFC0FFE000000
00000FFC07FF000000
00001FF803FF000000
00003FF003FF800000
00003FF001FF800000
00007FE001FFC00000
00007FE000FFE00000
0000FFC0007FE00000
0001FF80007FF00000
0001FF80003FF00000
0003FF00003FF80000
0007FF00001FFC0000
0007FE00000FFC0000
000FFC00000FFE0000
000FFC07FFFFFE0000
001FF80FFFFFFF0000
003FF81FFFFFFF8000
003FF01FFFFFFF8000
007FE03FFFFFFFC000
007FE03FFFFFFFC000
00FFC07FFFFFFFE000
01FFC00000007FF000
01FF800000003FF000
03FF000000003FF800
03FF000000001FF800
07FE000000001FFC00
0FFE000000000FFE00
0FFC0000000007FE00
1FF80000000007FF00
1FF80000000003FF00
3FF00000000003FF80
7FF00000000001FFC0
7FE00000000000FFC0
FFC00000000000FFE0
ENDCHAR
STARTCHAR b
ENCODING 98
SWIDTH 891 0
DWIDTH 62 0
BBX 55 51 4 0
BITMAP
FFFFFFFFFFE000
FFFFFFFFFFFC00
FFFFFFFFFFFF00
FFFFFFFFFFFFC0
FFFFFFFFFFFFE0
FFFFFFFFFFFFF0
FFFFFFFFFFFFF0
FFFFFFFFFFFFF8
FFFFFFFFFFFFF8
FF800000007FFC
FF800000001FFC
FF800000000FFC
FF8000000007FC
FF8000000007FC
FF8000000007FC
FF8000000007FC
FF8000000007FC
FF8000000007FC
FF800000000FF8
FF800000001FF8
FF800000007FF0
FF80FFFFFFFFE0
FF80FFFFFFFFC0
FF80FFFFFFFF00
FF80FFFFFFFF00
FF80FFFFFFFFC0
FF80FFFFFFFFE0
FF80FFFFFFFFF0
FF80FFFFFFFFF8
FF800000003FFC
FF800000000FFC
FF8000000007FC
FF8000000007FE
FF8000000003FE
FF8000000003FE
FF8000000003FE
FF8000000003FE
FF8000000003FE
FF8000000007FE
FF800000000FFE
FF800000001FFC
FF80000000FFFC
FFFFFFFFFFFFFC
FFFFFFFFFFFFF8
FFFFFFFFFFFFF0
FFFFFFFFFFFFF0
FFFFFFFFFFFFE0
FFFFFFFFFFFFC0
FFFFFFFFFFFF00
FFFFFFFFFFFC00
FFFFFFFFFFE000
ENDCHAR
STARTCHAR c
ENCODING 99
SWIDTH 829 0
DWIDTH 58 0
BBX 52 51 3 0
BITMAP
00001FFFFFFFF0
0000FFFFFFFFF0
0007FFFFFFFFF0
001FFFFFFFFFF0
003FFFFFFFFFF0
00FFFFFFFFFFF0
01FFFFFFFFFFF0
03FFFFFFFFFFF0
07FFFFFFFFFFF0
07FFF000000000
0FFFC000000000
1FFF0000000000
1FFC0000000000
3FF80000000000
3FF00000000000
7FF00000000000
7FE00000000000
7FE00000000000
7FC00000000000
FFC00000000000
FF800000000000
FF800000000000
FF800000000000
FF800000000000
FF800000000000
FF800000000000
FF800000000000
FF800000000000
FF800000000000
FF800000000000
FF800000000000
7FC00000000000
7FC00000000000
7FE00000000000
7FE00000000000
3FF00000000000
3FF80000000000
1FF80000000000
1FFE0000000000
0FFF0000000000
0FFFC000000000
07FFF000000000
03FFFFFFFFFFF0
01FFFFFFFFFFF0
00FFFFFFFFFFF0
007FFFFFFFFFF0
003FFFFFFFFFF0
000FFFFFFFFFF0
0003FFFFFFFFF0
0000FFFFFFFFF0
00001FFFFFFFF0
ENDCHAR
STARTCHAR d
ENCODING 100
SWIDTH 879 0
DWIDTH 62 0
BBX 55 51 4 0
BITMAP
FFFFFFFFE00000
FFFFFFFFFE0000
FFFFFFFFFF8000
FFFFFFFFFFE000
FFFFFFFFFFF800
FFFFFFFFFFFC00
FFFFFFFFFFFE00
FFFFFFFFFFFF00
FFFFFFFFFFFF80
FF8000003FFFC0
FF80000007FFE0
FF80000001FFE0
FF80000000FFF0
FF800000007FF0
FF800000003FF8
FF800000001FF8
FF800000001FF8
FF800000000FFC
FF800000000FFC
FF8000000007FC
FF8000000007FC
FF8000000007FC
FF8000000003FE
FF8000000003FE
FF8000000003FE
FF8000000003FE
FF8000000003FE
FF8000000003FE
FF8000000007FC
FF8000000007FC
FF8000000007FC
FF8000000007FC
FF800000000FFC
FF800000000FF8
FF800000001FF8
FF800000001FF8
FF800000003FF0
FF800000007FF0
FF80000000FFE0
FF80000001FFE0
FF80000007FFC0
FF8000003FFF80
FFFFFFFFFFFF80
FFFFFFFFFFFF00
FFFFFFFFFFFE00
FFFFFFFFFFFC00
FFFFFFFFFFF000
FFFFFFFFFFE000
FFFFFFFFFF8000
FFFFFFFFFE0000
FFFFFFFFE00000
ENDCHAR
STARTCHAR e
ENCODING 101
SWIDTH 759 0
DWIDTH 53 0
BBX 46 51 4 0
BITMAP
FFFFFFFFFFFC
FFFFFFFFFFFC
FFFFFFFFFFFC
FFFFFFFFFFFC
FFFFFFFFFFFC
FFFFFFFFFFFC
FFFFFFFFFFFC
FFFFFFFFFFFC
FFFFFFFFFFFC
FF8000000000
FF8000000000
FF8000000000
FF8000000000
FF8000000000
FF8000000000
FF8000000000
FF8000000000
FF8000000000
FF8000000000
FF8000000000
FF8000000000
FF80FFFFFFF0
FF80FFFFFFF0
FF80FFFFFFF0
FF80FFFFFFF0
FF80FFFFFFF0
FF80FFFFFFF0
FF80FFFFFFF0
FF80FFFFFFF0
FF8000000000
FF8000000000
FF8000000000
FF8000000000
FF8000000000
FF8000000000
FF8000000000
FF8000000000
FF8000000000
FF8000000000
FF8000000000
FF8000000000
FF8000000000
FFFFFFFFFFFC
FFFFFFFFFFFC
FFFFFFFFFFFC
FFFFFFFFFFFC
FFFFFFFFFFFC
FFFFFFFFFFFC
FFFFFFFFFFFC
FFFFFFFFFFFC
FFFFFFFFFFFC
ENDCHAR
STARTCHAR f
ENCODING 102
SWIDTH 705 0
DWIDTH 49 0
BBX 44 51 4 0
BITMAP
FFFFFFFFFFF0
FFFFFFFFFFF0
FFFFFFFFFFF0
FFFFFFFFFFF0
FFFFFFFFFFF0
FFFFFFFFFFF0
FFFFFFFFFFF0
FFFFFFFFFFF0
FFFFFFFFFFF0
FF8000000000
FF8000000000
FF8000000000
FF8000000000
FF8000000000
FF8000000000
FF8000000000
FF8000000000
FF8000000000
FF8000000000
FF8000000000
FF8000000000
FF8000000000
FF80FFFFFFC0
FF80FFFFFFC0
FF80FFFFFFC0
FF80FFFFFFC0
FF80FFFFFFC0
FF80FFFFFFC0
FF80FFFFFFC0
FF80FFFFFFC0
FF8000000000
FF8000000000
FF8000000000
FF8000000000
FF8000000000
FF8000000000
FF8000000000
FF8000000000
FF8000000000
FF8000000000
FF8000000000
FF8000000000
FF8000000000
FF8000000000
FF8000000000
FF8000000000
FF8000000000
FF8000000000
FF8000000000
FF8000000000
FF8000000000
ENDCHAR
STARTCHAR g
ENCODING 103
SWIDTH 888 0
DWIDTH 62 0
BBX 55 51 3 0
BITMAP
00001FFFFFFFF0
0000FFFFFFFFF0
0007FFFFFFFFF0
001FFFFFFFFFF0
003FFFFFFFFFF0
00FFFFFFFFFFF0
01FFFFFFFFFFF0
03FFFFFFFFFFF0
07FFFFFFFFFFF0
07FFF000000000
0FFFC000000000
1FFF0000000000
1FFC0000000000
3FF80000000000
3FF00000000000
7FF00000000000
7FE00000000000
7FE00000000000
7FC00000000000
FFC00000000000
FF800000000000
FF8001FFFFFFFE
FF8001FFFFFFFE
FF8001FFFFFFFE
FF8001FFFFFFFE
FF8001FFFFFFFE
FF8001FFFFFFFE
FF8001FFFFFFFE
FF8001FFFFFFFE
FF8000000003FE
FF8000000003FE
7FC000000003FE
7FC000000003FE
7FE000000003FE
7FE000000003FE
3FF000000003FE
3FF800000003FE
1FF800000003FE
1FFE00000003FE
0FFF00000003FE
0FFFC0000003FE
07FFF0000003FE
03FFFFFFFFFFFE
01FFFFFFFFFFFE
00FFFFFFFFFFFE
007FFFFFFFFFFE
003FFFFFFFFFFE
000FFFFFFFFFFE
0003FFFFFFFFFE
0000FFFFFFFFFE
00001FFFFFFFFE
ENDCHAR
STARTCHAR h
ENCODING 104
SWIDTH 838 0
DWIDTH 59 0
BBX 50 51 4 0
BITMAP
FF800000007FC0
FF800000007FC0
FF800000007FC0
FF800000007FC0
FF800000007FC0
FF800000007FC0
FF800000007FC0
FF800000007FC0
FF800000007FC0
FF800000007FC0
FF800000007FC0
FF800000007FC0
FF800000007FC0
FF800000007FC0
FF800000007FC0
FF800000007FC0
FF800000007FC0
FF800000007FC0
FF800000007FC0
FF800000007FC0
FF800000007FC0
FF80FFFFFFFFC0
FF80FFFFFFFFC0
FF80FFFFFFFFC0
FF80FFFFFFFFC0
FF80FFFFFFFFC0
FF80FFFFFFFFC0
FF80FFFFFFFFC0
FF80FFFFFFFFC0
FF800000007FC0
FF800000007FC0
FF800000007FC0
FF800000007FC0
FF800000007FC0
FF800000007FC0
FF800000007FC0
FF800000007FC0
FF800000007FC0
FF800000007FC0
FF800000007FC0
FF800000007FC0
FF800000007FC0
FF800000007FC0
FF800000007FC0
FF800000007FC0
FF800000007FC0
FF800000007FC0
FF800000007FC0
FF800000007FC0
FF800000007FC0
FF800000007FC0
ENDCHAR
STARTCHAR i
ENCODING 105
SWIDTH 267 0
DWIDTH 19 0
BBX 9 51 5 0
BITMAP
FF80
FF80
FF80
FF80
FF80
FF80
FF80
FF80
FF80
FF80
FF80
FF80
FF80
FF80
FF80
FF80
FF80
FF80
FF80
FF80
FF80
FF80
FF80
FF80
FF80
FF80
FF80
FF80
FF80
FF80
FF80
FF80
FF80
FF80
FF80
FF80
FF80
FF80
FF80
FF80
FF80
FF80
FF80
FF80
FF80
FF80
FF80
FF80
FF80
FF80
FF80
ENDCHAR
STARTCHAR j
ENCODING 106
SWIDTH 708 0
DWIDTH 50 0
BBX 44 51 2 0
BITMAP
000000001FF0
000000001FF0
000000001FF0
000000001FF0
000000001FF0
000000001FF0
000000001FF0
000000001FF0
000000001FF0
000000001FF0
000000001FF0
000000001FF0
000000001FF0
000000001FF0
000000001FF0
000000001FF0
000000001FF0
000000001FF0
000000001FF0
000000001FF0
000000001FF0
000000001FF0
000000001FF0
000000001FF0
000000001FF0
000000001FF0
000000001FF0
000000001FF0
000000001FF0
000000001FF0
000000001FF0
000000001FF0
000000001FF0
000000003FF0
000000003FE0
000000007FE0
000000007FE0
00000000FFE0
00000001FFC0
00000003FFC0
0000000FFF80
0000007FFF80
FFFFFFFFFF00
FFFFFFFFFE00
FFFFFFFFFE00
FFFFFFFFFC00
FFFFFFFFF000
FFFFFFFFE000
FFFFFFFF8000
FFFFFFFC0000
FFFFFF800000
ENDCHAR
STARTCHAR k
ENCODING 107
SWIDTH 875 0
DWIDTH 61 0
BBX 56 51 4 0
BITMAP
FF800000007FFE
FF80000001FFF8
FF80000003FFF0
FF80000007FFC0
FF8000001FFF80
FF8000003FFF00
FF8000007FFC00
FF800001FFF800
FF800003FFF000
FF800007FFC000
FF80000FFF8000
FF80003FFE0000
FF80007FFC0000
FF8000FFF80000
FF8003FFE00000
FF8007FFC00000
FF800FFF800000
FF803FFE000000
FF807FFC000000
FF80FFF8000000
FF81FFE0000000
FF87FFC0000000
FF87FF80000000
FF8FFE00000000
FF8FFC00000000
FF8FFC00000000
FF8FFF00000000
FF87FF80000000
FF83FFC0000000
FF81FFF0000000
FF80FFF8000000
FF803FFC000000
FF801FFF000000
FF800FFF800000
FF8007FFC00000
FF8001FFF00000
FF8000FFF80000
FF80007FFC0000
FF80003FFE0000
FF80000FFF8000
FF800007FFC000
FF800003FFE000
FF800000FFF800
FF8000007FFC00
FF8000003FFE00
FF8000001FFF80
FF80000007FFC0
FF80000003FFE0
FF80000001FFF8
FF80000000FFFC
FF800000003FFF
ENDCHAR
STARTCHAR l
ENCODING 108
SWIDTH 707 0
DWIDTH 49 0
BBX 44 51 4 0
BITMAP
FF8000000000
FF8000000000
FF8000000000
FF8000000000
FF8000000000
FF8000000000
FF8000000000
FF8000000000
FF8000000000
FF8000000000
FF8000000000
FF8000000000
FF8000000000
FF8000000000
FF8000000000
FF8000000000
FF8000000000
FF8000000000
FF8000000000
FF8000000000
FF8000000000
FF8000000000
FF8000000000
FF8000000000
FF8000000000
FF8000000000
FF8000000000
FF8000000000
FF8000000000
FF8000000000
FF8000000000
FF8000000000
FF8000000000
FF8000000000
FF8000000000
FF8000000000
FF8000000000
FF8000000000
FF8000000000
FF8000000000
FF8000000000
FF8000000000
FFFFFFFFFFF0
FFFFFFFFFFF0
FFFFFFFFFFF0
FFFFFFFFFFF0
FFFFFFFFFFF0
FFFFFFFFFFF0
FFFFFFFFFFF0
FFFFFFFFFFF0
FFFFFFFFFFF0
ENDCHAR
STARTCHAR m
ENCODING 109
SWIDTH 1115 0
DWIDTH 78 0
BBX 75 52 2 -1
BITMAP
0001E000000001E00000
0003F800000003F80000
0007F800000007F80000
0007FC00000007FC0000
0007FC0000000FFC0000
000FFE0000000FFC0000
000FFE0000001FFC0000
000FFF0000001FFE0000
001FFF0000001FFE0000
001FFF8000003FFE0000
001FFF8000003FFE0000
001FFF8000007FFF0000
003FFFC000007FFF0000
003FFFC00000FFFF0000
003FFFE00000FFFF8000
007FFFE00001FFFF8000
007FFFF00001FFFF8000
007FDFF00001FE7F8000
007F9FF00003FE7FC000
00FF8FF80003FC7FC000
00FF8FF80007FC7FC000
00FF87FC0007F83FC000
00FF07FC000FF83FE000
01FF03FE000FF83FE000
01FF03FE000FF03FE000
01FE03FF001FF01FF000
03FE01FF001FE01FF000
03FE01FF003FE01FF000
03FE00FF803FC00FF000
03FC00FF807FC00FF800
07FC007FC07F800FF800
07FC007FC0FF800FF800
07FC003FE0FF8007FC00
07F8003FE0FF0007FC00
0FF8003FF1FF0007FC00
0FF8001FF1FE0007FC00
0FF0001FF3FE0003FE00
1FF0000FFBFC0003FE00
1FF0000FFFFC0003FE00
1FF00007FFF80001FE00
1FE00007FFF80001FF00
3FE00003FFF80001FF00
3FE00003FFF00001FF00
3FE00003FFF00000FF80
7FC00001FFE00000FF80
7FC00001FFE00000FF80
7FC00000FFC000007F80
7F800000FFC000007FC0
FF8000007F8000007FC0
FF8000007F8000007FC0
FF8000003F0000003FE0
00000000040000000000
ENDCHAR
STARTCHAR n
ENCODING 110
SWIDTH 873 0
DWIDTH 61 0
BBX 53 51 4 0
BITMAP
1E000000000FF8
7F000000000FF8
7F800000000FF8
FFC00000000FF8
FFE00000000FF8
FFF00000000FF8
FFF80000000FF8
FFFC0000000FF8
FFFE0000000FF8
FFFF0000000FF8
FFFF8000000FF8
FFFFC000000FF8
FFFFE000000FF8
FFFFF000000FF8
FFFFF800000FF8
FFBFFC00000FF8
FF9FFE00000FF8
FF8FFF00000FF8
FF87FFC0000FF8
FF83FFE0000FF8
FF81FFF0000FF8
FF80FFF8000FF8
FF807FFC000FF8
FF803FFE000FF8
FF801FFF000FF8
FF800FFF800FF8
FF8007FFC00FF8
FF8003FFE00FF8
FF8001FFF00FF8
FF8000FFF80FF8
FF80007FFC0FF8
FF80003FFE0FF8
FF80001FFF0FF8
FF80000FFF8FF8
FF800007FFCFF8
FF800003FFEFF8
FF800001FFFFF8
FF800000FFFFF8
FF8000007FFFF8
FF8000001FFFF8
FF8000000FFFF8
FF80000007FFF8
FF80000003FFF8
FF80000001FFF8
FF80000000FFF8
FF800000007FF8
FF800000003FF8
FF800000001FF8
FF800000000FF0
FF8000000007F0
FF8000000003E0
ENDCHAR
STARTCHAR o
ENCODING 111
SWIDTH 968 0
DWIDTH 68 0
BBX 62 51 3 0
BITMAP
00001FFFFFE00000
0000FFFFFFFC0000
0007FFFFFFFF8000
001FFFFFFFFFE000
003FFFFFFFFFF000
00FFFFFFFFFFF800
01FFFFFFFFFFFE00
03FFFFFFFFFFFF00
07FFFFFFFFFFFF00
07FFF000007FFF80
0FFFC000000FFFC0
1FFF00000003FFE0
1FFC00000001FFE0
3FF800000000FFF0
3FF0000000007FF0
7FF0000000003FF0
7FE0000000001FF8
7FE0000000001FF8
7FC0000000000FF8
FFC0000000000FF8
FF80000000000FFC
FF800000000007FC
FF800000000007FC
FF800000000007FC
FF800000000007FC
FF800000000007FC
FF800000000007FC
FF800000000007FC
FF800000000007FC
FF800000000007FC
FF80000000000FF8
7FC0000000000FF8
7FC0000000000FF8
7FE0000000001FF8
7FE0000000001FF0
3FF0000000003FF0
3FF8000000007FF0
1FF800000000FFE0
1FFE00000001FFE0
0FFF00000003FFC0
0FFFC000000FFF80
07FFF000003FFF80
03FFFFFFFFFFFF00
01FFFFFFFFFFFE00
00FFFFFFFFFFFC00
007FFFFFFFFFF800
003FFFFFFFFFF000
000FFFFFFFFFC000
0003FFFFFFFF0000
0000FFFFFFFC0000
00001FFFFFC00000
ENDCHAR
STARTCHAR p
ENCODING 112
SWIDTH 867 0
DWIDTH 61 0
BBX 55 51 4 0
BITMAP
FFFFFFFFFF8000
FFFFFFFFFFF800
FFFFFFFFFFFE00
FFFFFFFFFFFF00
FFFFFFFFFFFF80
FFFFFFFFFFFFC0
FFFFFFFFFFFFE0
FFFFFFFFFFFFF0
FFFFFFFFFFFFF8
FF80000000FFF8
FF800000003FF8
FF800000000FFC
FF800000000FFC
FF8000000007FC
FF8000000007FC
FF8000000003FE
FF8000000003FE
FF8000000003FE
FF8000000003FE
FF8000000003FE
FF8000000003FE
FF8000000003FE
FF8000000007FC
FF8000000007FC
FF800000000FFC
FF800000001FFC
FF800000003FF8
FF80000000FFF8
FF80FFFFFFFFF0
FF80FFFFFFFFF0
FF80FFFFFFFFE0
FF80FFFFFFFFC0
FF80FFFFFFFF80
FF80FFFFFFFF00
FF80FFFFFFFC00
FF80FFFFFFF000
FF80FFFFFF8000
FF800000000000
FF800000000000
FF800000000000
FF800000000000
FF800000000000
FF800000000000
FF800000000000
FF800000000000
FF800000000000
FF800000000000
FF800000000000
FF800000000000
FF800000000000
FF800000000000
ENDCHAR
STARTCHAR q
ENCODING 113
SWIDTH 968 0
DWIDTH 68 0
BBX 64 51 3 0
BITMAP
00001FFFFFE00000
0000FFFFFFFC0000
0007FFFFFFFF8000
001FFFFFFFFFE000
003FFFFFFFFFF000
00FFFFFFFFFFF800
01FFFFFFFFFFFE00
03FFFFFFFFFFFF00
07FFFFFFFFFFFF00
07FFF000007FFF80
0FFFC000000FFFC0
1FFF00000003FFE0
1FFC00000001FFE0
3FF800000000FFF0
3FF0000000007FF0
7FF0000000003FF0
7FE0000000001FF8
7FE0000000001FF8
7FC0000000000FF8
FFC0000000000FF8
FF80000000000FFC
FF800000000007FC
FF800000000007FC
FF800000000007FC
FF800000000007FC
FF800000000007FC
FF800000000007FC
FF800000000007FC
FF800000000007FC
FF800000000007FC
FF80001FFE000FF8
7FC00007FF000FF8
7FC00003FFC00FF8
7FE00001FFE01FF8
7FE00000FFF01FF0
3FF000003FF83FF0
3FF800001FFC7FF0
1FF800000FFEFFE0
1FFE000003FFFFE0
0FFF000001FFFFC0
0FFFC00000FFFF80
07FFF000007FFF80
03FFFFFFFFFFFF00
01FFFFFFFFFFFE00
00FFFFFFFFFFFF00
007FFFFFFFFFFF80
003FFFFFFFFFFFE0
000FFFFFFFFFFFF0
0003FFFFFFFF3FF8
0000FFFFFFFC1FFE
00001FFFFFC00FFF
ENDCHAR
STARTCHAR r
ENCODING 114
SWIDTH 921 0
DWIDTH 64 0
BBX 60 51 4 0
BITMAP
FFFFFFFFFFC00000
FFFFFFFFFFF80000
FFFFFFFFFFFE0000
FFFFFFFFFFFF8000
FFFFFFFFFFFFC000
FFFFFFFFFFFFE000
FFFFFFFFFFFFF000
FFFFFFFFFFFFF000
FFFFFFFFFFFFF800
FF800000007FFC00
FF800000001FFC00
FF800000000FFC00
FF8000000007FE00
FF8000000003FE00
FF8000000003FE00
FF8000000003FE00
FF8000000001FE00
FF8000000001FE00
FF8000000001FE00
FF8000000001FE00
FF8000000001FE00
FF8000000003FE00
FF8000000003FE00
FF8000000003FE00
FF8000000007FE00
FF8000000007FC00
FF800000000FFC00
FF800000001FFC00
FF800000007FF800
FF80FFFFFFFFF800
FF80FFFFFFFFF000
FF80FFFFFFFFE000
FF80FFFFFFFFC000
FF80FFFFFFFF8000
FF80FFFFFFFE0000
FF80FFFFFFF80000
FF80FFFFFFFC0000
FF8000001FFE0000
FF8000000FFF0000
FF80000007FF8000
FF80000003FFC000
FF80000001FFE000
FF80000000FFF000
FF800000007FF800
FF800000003FFC00
FF800000001FFE00
FF800000000FFF00
FF800000000FFF80
FF8000000007FFC0
FF8000000003FFE0
FF8000000001FFF0
ENDCHAR
STARTCHAR s
ENCODING 115
SWIDTH 880 0
DWIDTH 62 0
BBX 54 51 4 0
BITMAP
001FFFFFFFFFF0
00FFFFFFFFFFF0
03FFFFFFFFFFF0
0FFFFFFFFFFFF0
1FFFFFFFFFFFF0
3FFFFFFFFFFFF0
3FFFFFFFFFFFF0
7FFFFFFFFFFFF0
7FFFFFFFFFFFF0
FFF00000000000
FFE00000000000
FFC00000000000
FF800000000000
FF800000000000
FF800000000000
FF800000000000
FF800000000000
FF800000000000
FFC00000000000
FFE00000000000
7FF00000000000
7FFFFFFFFFF000
3FFFFFFFFFFE00
1FFFFFFFFFFF80
1FFFFFFFFFFFC0
0FFFFFFFFFFFE0
03FFFFFFFFFFF0
00FFFFFFFFFFF8
001FFFFFFFFFF8
00000000003FF8
00000000000FFC
000000000007FC
000000000007FC
000000000003FC
000000000003FC
000000000003FC
000000000003FC
000000000003FC
000000000007FC
000000000007FC
00000000000FFC
00000000003FFC
FFFFFFFFFFFFF8
FFFFFFFFFFFFF8
FFFFFFFFFFFFF0
FFFFFFFFFFFFF0
FFFFFFFFFFFFE0
FFFFFFFFFFFFC0
FFFFFFFFFFFF00
FFFFFFFFFFFC00
FFFFFFFFFFE000
ENDCHAR
STARTCHAR t
ENCODING 116
SWIDTH 720 0
DWIDTH 50 0
BBX 48 51 1 0
BITMAP
FFFFFFFFFFFF
FFFFFFFFFFFF
FFFFFFFFFFFF
FFFFFFFFFFFF
FFFFFFFFFFFF
FFFFFFFFFFFF
FFFFFFFFFFFF
FFFFFFFFFFFF
FFFFFFFFFFFF
00000FF80000
00000FF80000
00000FF80000
00000FF80000
00000FF80000
00000FF80000
00000FF80000
00000FF80000
00000FF80000
00000FF80000
00000FF80000
00000FF80000
00000FF80000
00000FF80000
00000FF80000
00000FF80000
00000FF80000
00000FF80000
00000FF80000
00000FF80000
00000FF80000
00000FF80000
00000FF80000
00000FF80000
00000FF80000
00000FF80000
00000FF80000
00000FF80000
00000FF80000
00000FF80000
00000FF80000
00000FF80000
00000FF80000
00000FF80000
00000FF80000
00000FF80000
00000FF80000
00000FF80000
00000FF80000
00000FF80000
00000FF80000
00000FF80000
ENDCHAR
STARTCHAR u
ENCODING 117
SWIDTH 889 0
DWIDTH 62 0
BBX 55 52 4 -1
BITMAP
FF8000000003FE
FF8000000003FE
FF8000000003FE
FF8000000003FE
FF8000000003FE
FF8000000003FE
FF8000000003FE
FF8000000003FE
FF8000000003FE
FF8000000003FE
FF8000000003FE
FF8000000003FE
FF8000000003FE
FF8000000003FE
FF8000000003FE
FF8000000003FE
FF8000000003FE
FF8000000003FE
FF8000000003FE
FF8000000003FE
FF8000000003FE
FF8000000003FE
FF8000000003FE
FF8000000003FE
FF8000000003FE
FF8000000003FE
FF8000000003FE
FF8000000003FE
FF8000000003FE
FF8000000003FE
FF8000000003FE
FF8000000003FC
FF8000000003FC
FF8000000007FC
FFC000000007FC
FFC000000007FC
FFC00000000FFC
7FE00000000FF8
7FF00000001FF8
7FF80000003FF8
3FFC0000007FF0
3FFF000001FFF0
1FFFF0001FFFE0
0FFFFFFFFFFFE0
0FFFFFFFFFFFC0
07FFFFFFFFFF80
03FFFFFFFFFF00
00FFFFFFFFFE00
007FFFFFFFF800
001FFFFFFFE000
0003FFFFFF0000
00000FFFE00000
ENDCHAR
STARTCHAR v
ENCODING 118
SWIDTH 989 0
DWIDTH 69 0
BBX 67 52 1 -1
BITMAP
FFE000000000007FE0
7FF00000000000FFC0
7FF00000000001FFC0
3FF80000000001FF80
1FF80000000003FF00
1FFC0000000003FF00
0FFE0000000007FE00
07FE0000000007FE00
07FF000000000FFC00
03FF000000001FF800
03FF800000001FF800
01FFC00000003FF000
00FFC00000003FF000
00FFE00000007FE000
007FE0000000FFC000
007FF0000000FFC000
003FF8000001FF8000
003FF8000001FF8000
001FFC000003FF0000
000FFC000003FE0000
000FFE000007FE0000
0007FE00000FFC0000
0003FF00000FFC0000
0003FF80001FF80000
0001FF80001FF00000
0001FFC0003FF00000
0000FFC0007FE00000
00007FE0007FE00000
00007FF000FFC00000
00003FF000FF800000
00003FF801FF800000
00001FF803FF000000
00000FFC03FF000000
00000FFE07FE000000
000007FE07FC000000
000007FF0FFC000000
000003FF0FF8000000
000001FF9FF8000000
000001FFBFF0000000
000000FFFFE0000000
000000FFFFE0000000
0000007FFFC0000000
0000003FFFC0000000
0000003FFF80000000
0000001FFF00000000
0000001FFF00000000
0000000FFE00000000
00000007FE00000000
00000007FC00000000
00000003F800000000
00000001F000000000
000000004000000000
ENDCHAR
STARTCHAR w
ENCODING 119
SWIDTH 1268 0
DWIDTH 89 0
BBX 87 52 1 -1
BITMAP
FFE0003FF8000000000FFE
7FE0003FF8000000000FFC
7FF0001FFC000000001FF8
3FF0001FFC000000001FF8
3FF8000FFE000000003FF0
1FF80007FE000000003FF0
1FFC0007FF000000007FE0
0FFE0003FF000000007FE0
07FE0003FF80000000FFC0
07FF0001FF80000000FFC0
03FF0001FFC0000001FF80
03FF8000FFC0000001FF80
01FF8000FFE0000003FF00
01FFC0007FE0000003FE00
00FFC0007FF0000007FE00
00FFE0003FF0000007FC00
007FE0003FF800000FFC00
007FF0001FF800000FF800
003FF0001FFC00001FF800
003FF8000FFC00001FF000
001FF8000FFE00003FF000
001FFC0007FE00007FE000
000FFC0007FF00007FE000
0007FE0003FF0000FFC000
0007FE0003FF8000FFC000
0003FF0001FF8001FF8000
0003FF0003FFC001FF8000
0001FF8003FFC003FF0000
0001FF8007FFE003FE0000
0000FFC007FFE007FE0000
0000FFE00FFFF007FC0000
00007FE00FFFF00FFC0000
00007FF01FFFF80FF80000
00003FF01FFFF81FF80000
00003FF83FEFFC1FF00000
00001FF87FEFFC3FF00000
00000FFC7FC7FE3FE00000
00000FFCFFC7FE7FE00000
000007FEFF83FF7FC00000
000007FFFF83FFFFC00000
000003FFFF01FFFF800000
000003FFFF01FFFF800000
000001FFFE00FFFF000000
000001FFFE00FFFE000000
000000FFFC007FFE000000
000000FFF8007FFC000000
0000007FF8003FFC000000
0000007FF0003FF8000000
0000003FF0001FF8000000
0000003FE0001FF0000000
0000001FE0000FE0000000
00000007800003C0000000
ENDCHAR
STARTCHAR x
ENCODING 120
SWIDTH 1000 0
DWIDTH 70 0
BBX 66 51 2 0
BITMAP
7FFC000000000FFF00
1FFE000000001FFC00
0FFF000000003FF800
07FF800000007FF000
03FFC0000000FFE000
01FFE0000001FFC000
00FFF0000003FF8000
007FF8000007FF0000
003FFC00000FFE0000
001FFF00001FFC0000
000FFF80003FF80000
0007FFC0007FF00000
0003FFE000FFE00000
0001FFF001FFC00000
0000FFF803FF800000
00003FFC07FF000000
00001FFE0FFE000000
00000FFF1FFC000000
000007FFBFF8000000
000003FFFFF0000000
000001FFFFE0000000
000000FFFFC0000000
0000007FFF80000000
0000003FFF00000000
0000001FFC00000000
0000003FFF00000000
0000007FFF80000000
000000FFFFC0000000
000001FFFFE0000000
000003FFFFF0000000
000007FF7FF8000000
00000FFE3FFC000000
00001FFC1FFE000000
00003FF80FFF000000
00007FF007FF800000
0001FFE003FFC00000
0003FFC001FFE00000
0007FF8000FFF00000
000FFF00007FF80000
001FFE00003FFC0000
003FFC00001FFE0000
007FF800000FFF0000
00FFF0000007FF8000
01FFE0000003FFC000
03FFC0000001FFE000
07FF80000000FFF000
0FFF000000007FF800
1FFE000000003FFC00
3FFC000000001FFE00
7FF8000000000FFF00
FFF00000000007FFC0
ENDCHAR
STARTCHAR y
ENCODING 121
SWIDTH 926 0
DWIDTH 65 0
BBX 63 51 1 0
BITMAP
FFF0000000001FFE
7FF8000000003FFC
3FFC000000007FF8
1FFE000000007FF0
0FFF00000000FFE0
07FF80000001FFC0
07FF80000003FF80
03FFC0000007FF80
01FFE000000FFF00
00FFF000000FFE00
007FF800001FFC00
003FFC00003FF800
001FFC00007FF000
001FFE0000FFE000
000FFF0001FFE000
0007FF8003FFC000
0003FFC003FF8000
0001FFE007FF0000
0000FFE00FFE0000
00007FF01FFC0000
00007FF83FF80000
00003FFC7FF80000
00001FFE7FF00000
00000FFFFFE00000
000007FFFFC00000
000003FFFF800000
000001FFFF000000
000001FFFE000000
000000FFFE000000
0000007FFC000000
0000003FF8000000
0000001FF0000000
0000001FF0000000
0000001FF0000000
0000001FF0000000
0000001FF0000000
0000001FF0000000
0000001FF0000000
0000001FF0000000
0000001FF0000000
0000001FF0000000
0000001FF0000000
0000001FF0000000
0000001FF0000000
0000001FF0000000
0000001FF0000000
0000001FF0000000
0000001FF0000000
0000001FF0000000
0000001FF0000000
0000001FF0000000
ENDCHAR
STARTCHAR z
ENCODING 122
SWIDTH 802 0
DWIDTH 56 0
BBX 50 51 3 0
BITMAP
FFFFFFFFFFFE00
FFFFFFFFFFFF80
FFFFFFFFFFFFC0
FFFFFFFFFFFFC0
FFFFFFFFFFFFC0
FFFFFFFFFFFFC0
FFFFFFFFFFFFC0
FFFFFFFFFFFF80
FFFFFFFFFFFF00
000000001FFE00
000000003FFC00
000000007FF800
00000000FFF000
00000001FFE000
00000003FFC000
00000007FF8000
0000000FFF0000
0000001FFE0000
0000003FFC0000
0000007FF80000
000000FFF00000
000001FFE00000
000003FFC00000
000007FF800000
00000FFF000000
00001FFE000000
00003FFC000000
00007FF8000000
0000FFF0000000
0001FFE0000000
0003FFC0000000
0007FF80000000
000FFF00000000
001FFE00000000
003FFC00000000
007FF800000000
00FFF000000000
01FFE000000000
03FFC000000000
07FF8000000000
0FFF0000000000
1FFE0000000000
3FFFFFFFFFFFC0
7FFFFFFFFFFFC0
FFFFFFFFFFFFC0
FFFFFFFFFFFFC0
FFFFFFFFFFFFC0
FFFFFFFFFFFFC0
FFFFFFFFFFFFC0
7FFFFFFFFFFFC0
3FFFFFFFFFFFC0
ENDCHAR
STARTCHAR braceleft
ENCODING 123
SWIDTH 337 0
DWIDTH 24 0
BBX 15 64 4 -6
BITMAP
007E
01FE
03FE
07FE
07FE
0FF0
0FE0
0FC0
0FC0
0FC0
0FC0
0FC0
0FC0
0FC0
0FC0
0FC0
0FC0
0FC0
0FC0
0FC0
0FC0
0FC0
0FC0
0FC0
0FC0
0FC0
0FC0
0FC0
0FC0
1F80
FF80
FF80
FE00
FF00
FF80
1F80
0FC0
0FC0
0FC0
0FC0
0FC0
0FC0
0FC0
0FC0
0FC0
0FC0
0FC0
0FC0
0FC0
0FC0
0FC0
0FC0
0FC0
0FC0
0FC0
0FC0
0FC0
0FC0
0FF0
0FFE
07FE
03FE
01FE
007E
ENDCHAR
STARTCHAR bar
ENCODING 124
SWIDTH 297 0
DWIDTH 21 0
BBX 5 64 8 -6
BITMAP
F8
F8
F8
F8
F8
F8
F8
F8
F8
F8
F8
F8
F8
F8
F8
F8
F8
F8
F8
F8
F8
F8
F8
F8
F8
F8
F8
F8
F8
F8
F8
F8
F8
F8
F8
F8
F8
F8
F8
F8
F8
F8
F8
F8
F8
F8
F8
F8
F8
F8
F8
F8
F8
F8
F8
F8
F8
F8
F8
F8
F8
F8
F8
F8
ENDCHAR
STARTCHAR braceright
ENCODING 125
SWIDTH 337 0
DWIDTH 24 0
BBX 15 64 4 -6
BITMAP
FE00
FF80
FFC0
FFC0
FFE0
1FE0
07E0
07F0
03F0
03F0
03F0
03F0
03F0
03F0
03F0
03F0
03F0
03F0
03F0
03F0
03F0
03F0
03F0
03F0
03F0
03F0
03F0
03F0
03F0
03F0
03FE
01FE
00FE
01FE
03FE
03F0
03F0
03F0
03F0
03F0
03F0
03F0
03F0
03F0
03F0
03F0
03F0
03F0
03F0
03F0
03F0
03F0
03F0
03F0
03F0
03F0
07F0
07E0
0FE0
FFE0
FFC0
FFC0
FF80
FE00
ENDCHAR
STARTCHAR asciitilde
ENCODING 126
SWIDTH 691 0
DWIDTH 48 0
BBX 40 11 4 21
BITMAP
01FC000000
0FFFC00001
3FFFF00003
7FFFFE000F
FFFFFFC07F
FFFFFFFFFF
FE03FFFFFF
F0003FFFFF
E0000FFFFE
800001FFF8
0000003FC0
ENDCHAR
STARTCHAR nonbreakingspace
ENCODING 160
SWIDTH 294 0
DWIDTH 21 0
BBX 1 1 0 0
BITMAP
00
ENDCHAR
STARTCHAR exclamdown
ENCODING 161
SWIDTH 298 0
DWIDTH 21 0
BBX 9 51 6 0
BITMAP
3E00
7F00
FF80
FF80
FF80
FF80
FF80
FF80
7F00
3E00
0000
0000
0000
0000
0000
0000
7F80
7F80
7F80
7F80
7F80
7F80
7F80
7F80
7F80
7F80
7F80
7F80
7F80
7F80
7F80
7F80
7F80
7F80
7F80
7F80
7F80
7F80
7F80
7F80
7F80
7F80
7F80
7F80
7F80
7F80
7F80
7F80
7F80
7F80
7F80
ENDCHAR
STARTCHAR cent
ENCODING 162
SWIDTH 692 0
DWIDTH 48 0
BBX 42 51 3 0
BITMAP
000000780000
000000780000
000000780000
000000780000
000000780000
0001FFFFFFC0
000FFFFFFFC0
003FFFFFFFC0
00FFFFFFFFC0
01FFFFFFFFC0
03FFFFFFFFC0
07FFFFFFFFC0
0FFF00780000
1FFC00780000
3FF000780000
3FE000780000
3FC000780000
7F8000780000
7F8000780000
7F0000780000
FF0000780000
FF0000780000
FE0000780000
FE0000780000
FE0000780000
FE0000780000
FE0000780000
FE0000780000
FE0000780000
FF0000780000
7F0000780000
7F0000780000
7F8000780000
7F8000780000
3FC000780000
3FE000780000
1FF000780000
1FFC00780000
0FFF00780000
07FFFFFFFFC0
03FFFFFFFFC0
01FFFFFFFFC0
00FFFFFFFFC0
003FFFFFFFC0
000FFFFFFFC0
0001FFFFFFC0
000000780000
000000780000
000000780000
000000780000
000000780000
ENDCHAR
STARTCHAR sterling
ENCODING 163
SWIDTH 709 0
DWIDTH 50 0
BBX 45 51 2 0
BITMAP
00007FFFF800
0003FFFFF800
000FFFFFF800
001FFFFFF800
003FFFFFF800
007FFFFFF800
00FFFFFFF800
00FFFFFFF800
01FFFFFFF800
01FFE0000000
01FF80000000
01FF00000000
03FE00000000
03FE00000000
03FE00000000
03FE00000000
03FE00000000
03FE00000000
03FE00000000
03FE00000000
03FE00000000
1FFFFFF80000
1FFFFFF80000
1FFFFFF80000
1FFFFFF80000
1FFFFFF80000
1FFFFFF80000
1FFFFFF80000
03FE00000000
03FE00000000
03FE00000000
03FE00000000
03FE00000000
03FE00000000
03FE00000000
03FE00000000
03FE00000000
03FE00000000
03FE00000000
03FE00000000
03FE00000000
03FE00000000
FFFFFFFFFFF8
FFFFFFFFFFF8
FFFFFFFFFFF8
FFFFFFFFFFF8
FFFFFFFFFFF8
FFFFFFFFFFF8
FFFFFFFFFFF8
FFFFFFFFFFF8
FFFFFFFFFFF8
ENDCHAR
STARTCHAR yen
ENCODING 165
SWIDTH 787 0
DWIDTH 55 0
BBX 52 51 1 0
BITMAP
FFE00000003FF0
7FF00000007FE0
3FF8000000FFE0
1FF8000000FFC0
1FFC000001FF80
0FFC000003FF80
07FE000003FF00
07FF000007FE00
03FF000007FE00
01FF80000FFC00
01FFC0001FFC00
00FFC0001FF800
007FE0003FF000
007FE0003FF000
003FF0007FE000
001FF800FFC000
001FF800FFC000
000FFC01FF8000
000FFE01FF0000
0007FE03FF0000
0003FF07FE0000
0003FF87FC0000
0001FF8FFC0000
0000FFDFF80000
0000FFDFF00000
00007FFFF00000
00003FFFE00000
00003FFFE00000
00FFFFFFFFFC00
00FFFFFFFFFC00
00FFFFFFFFFC00
00FFFFFFFFFC00
00FFFFFFFFFC00
00FFFFFFFFFC00
000003FE000000
000003FE000000
000003FE000000
000003FE000000
000003FE000000
000003FE000000
00FFFFFFFFFC00
00FFFFFFFFFC00
00FFFFFFFFFC00
00FFFFFFFFFC00
00FFFFFFFFFC00
00FFFFFFFFFC00
000003FE000000
000003FE000000
000003FE000000
000003FE000000
000003FE000000
ENDCHAR
STARTCHAR brokenbar
ENCODING 166
SWIDTH 297 0
DWIDTH 21 0
BBX 5 64 8 -6
BITMAP
F8
F8
F8
F8
F8
F8
F8
F8
F8
F8
F8
F8
F8
F8
F8
F8
F8
F8
F8
F8
F8
F8
F8
F8
F8
F8
F8
F8
00
00
00
00
00
00
00
00
F8
F8
F8
F8
F8
F8
F8
F8
F8
F8
F8
F8
F8
F8
F8
F8
F8
F8
F8
F8
F8
F8
F8
F8
F8
F8
F8
F8
ENDCHAR
STARTCHAR section
ENCODING 167
SWIDTH 773 0
DWIDTH 54 0
BBX 47 66 3 -15
BITMAP
001FFFFFFF80
00FFFFFFFF80
03FFFFFFFF80
07FFFFFFFF80
0FFFFFFFFF80
1FFFFFFFFF80
3FFFFFFFFF80
3FFFFFFFFF80
7FFFFFFFFF80
7FF800000000
7FE000000000
7FC000000000
FF8000000000
FF8000000000
FF8000000000
7F8000000000
7F8000000000
7F8000000000
7FC000000000
7FE000000000
3FF000000000
3FFFFFFFF800
1FFFFFFFFF00
0FFFFFFFFF80
07FFFFFFFFC0
01FFFFFFFFE0
03FFFFFFFFE0
07FFFFFFFFF0
0FF800003FF0
0FF000001FF0
1FE000000FF0
1FE0000007F8
1FE0000007F8
1FE0000007F0
1FE0000007F0
1FE000000FF0
1FF000001FF0
1FFC00003FE0
0FFFFFFFFFC0
0FFFFFFFFFC0
07FFFFFFFF00
07FFFFFFFFC0
03FFFFFFFFE0
00FFFFFFFFF0
003FFFFFFFF8
000000001FFC
0000000007FC
0000000003FC
0000000003FE
0000000003FE
0000000003FE
0000000003FE
0000000003FE
0000000003FE
0000000007FE
000000000FFE
000000003FFC
03FFFFFFFFFC
03FFFFFFFFFC
03FFFFFFFFF8
03FFFFFFFFF8
03FFFFFFFFF0
03FFFFFFFFE0
03FFFFFFFF80
03FFFFFFFE00
03FFFFFFF000
ENDCHAR
STARTCHAR dieresis
ENCODING 168
SWIDTH 393 0
DWIDTH 28 0
BBX 20 6 4 56
BITMAP
7803C0
FC07E0
FE07F0
FE07F0
FC07E0
7803C0
ENDCHAR
STARTCHAR copyright
ENCODING 169
SWIDTH 829 0
DWIDTH 58 0
BBX 52 52 3 -1
BITMAP
000007FE000000
00007FFFE00000
0001FE03F80000
0007C0003E0000
001F00000F8000
003C000003C000
0070000000E000
00E00000007000
01C00000003800
03800000001C00
07000000000E00
0E000000000700
0E000000000300
1C000000000380
180003FFC00180
38001FFFC001C0
30007FFFC000C0
7000FE000000E0
7001F000000060
6001E000000060
E003C000000070
E003C000000070
E0078000000030
E0078000000030
C0078000000030
C0078000000030
C0078000000030
C0078000000030
E0078000000030
E0078000000030
E003C000000070
6003C000000070
6001E000000060
7000F000000060
7000FE000000E0
30003FFFC000C0
38001FFFC001C0
180003FFC00180
1C000000000380
0E000000000300
0E000000000700
07000000000E00
03800000001C00
01C00000003800
00E00000007000
0070000000E000
003C000003C000
001F00000F8000
0007C0003E0000
0001FE03F80000
00007FFFE00000
000007FE000000
ENDCHAR
STARTCHAR ordfeminine
ENCODING 170
SWIDTH 604 0
DWIDTH 42 0
BBX 37 29 3 21
BITMAP
0000200000
0000F00000
0001F80000
0001F80000
0003FC0000
0003FE0000
0007FE0000
000FFF0000
000F9F0000
001F9F8000
001F0FC000
003F0FC000
003E07E000
007C07E000
00FC03F000
00F801F800
01F801F800
01F000FC00
03E1FFFC00
07E1FFFE00
07C3FFFF00
0FC7FFFF00
0F80001F80
1F00001F80
3F00000FC0
3E000007E0
7E000007E0
7C000003F0
F8000003F8
ENDCHAR
STARTCHAR guillemotleft
ENCODING 171
SWIDTH 629 0
DWIDTH 44 0
BBX 38 26 3 13
BITMAP
0000100004
000070001C
0001F0003C
0003F000FC
000FE003FC
003FC007F0
007F001FC0
01FC007F80
07F000FE00
0FE003F800
3F800FE000
7E001FC000
FC003F0000
F8003F0000
7E001F8000
3F8007E000
0FE003F800
03F000FE00
01FC003F00
007F001FC0
001F8007F0
000FE001FC
0003F000FC
0000F0003C
000070000C
0000100004
ENDCHAR
STARTCHAR registered
ENCODING 174
SWIDTH 585 0
DWIDTH 41 0
BBX 33 32 4 19
BITMAP
000FF00000
003FFE0000
00F81F8000
03E003C000
078000F000
0F00007800
0E00003800
1C00001C00
3800000E00
307FFC0E00
707FFE0700
7070070700
6070070300
6070030300
E070070300
E070070380
E071FE0380
E071FC0300
60701C0300
60700E0700
7070070700
7000008700
3800000E00
3800001E00
1C00001C00
1E00003800
0F0000F800
07C001F000
03F007E000
00FFFF8000
003FFE0000
000FF80000
ENDCHAR
STARTCHAR macron
ENCODING 175
SWIDTH 362 0
DWIDTH 25 0
BBX 18 4 4 57
BITMAP
FFFFC0
FFFFC0
FFFFC0
FFFFC0
ENDCHAR
STARTCHAR degree
ENCODING 176
SWIDTH 361 0
DWIDTH 25 0
BBX 19 19 3 32
BITMAP
03F800
1FFF00
3FFF80
7FFFC0
7E0FC0
F803E0
F001E0
F001E0
F001E0
F001E0
F001E0
F001E0
F001E0
F803E0
7E0FC0
7FFFC0
3FFF80
1FFF00
03F800
ENDCHAR
STARTCHAR plusminus
ENCODING 177
SWIDTH 690 0
DWIDTH 48 0
BBX 40 50 4 -4
BITMAP
00007E0000
00007E0000
00007E0000
00007E0000
00007E0000
00007E0000
00007E0000
00007E0000
00007E0000
00007E0000
00007E0000
00007E0000
00007E0000
00007E0000
00007E0000
00007E0000
00007E0000
FFFFFFFFFF
FFFFFFFFFF
FFFFFFFFFF
FFFFFFFFFF
FFFFFFFFFF
FFFFFFFFFF
00007E0000
00007E0000
00007E0000
00007E0000
00007E0000
00007E0000
00007E0000
00007E0000
00007E0000
00007E0000
00007E0000
00007E0000
00007E0000
00007E0000
00007E0000
00007E0000
00007E0000
0000000000
0000000000
0000000000
0000000000
FFFFFFFFFF
FFFFFFFFFF
FFFFFFFFFF
FFFFFFFFFF
FFFFFFFFFF
FFFFFFFFFF
ENDCHAR
STARTCHAR twosuperior
ENCODING 178
SWIDTH 442 0
DWIDTH 31 0
BBX 25 25 3 26
BITMAP
FFFFF800
FFFFFE00
FFFFFF00
FFFFFF00
00001F80
00000F80
00000F80
00000F80
00000F80
00001F80
07FFFF00
1FFFFE00
3FFFFC00
7FFFF800
7C000000
F8000000
F8000000
F0000000
F0000000
F0000000
F0000000
FFFFFF80
FFFFFF80
FFFFFF80
FFFFFF80
ENDCHAR
STARTCHAR threesuperior
ENCODING 179
SWIDTH 443 0
DWIDTH 31 0
BBX 25 25 3 26
BITMAP
FFFFF000
FFFFFC00
FFFFFF00
FFFFFF00
00001F80
00000F80
00000F80
00000F80
00000F00
00001F00
03FFFE00
03FFFC00
03FFFE00
03FFFF00
00001F80
00000F80
00000780
00000780
00000F80
00000F80
00001F80
FFFFFF00
FFFFFE00
FFFFFC00
FFFFF000
ENDCHAR
STARTCHAR acute
ENCODING 180
SWIDTH 362 0
DWIDTH 25 0
BBX 18 10 4 54
BITMAP
000040
0003C0
001FC0
01FFC0
0FFFC0
7FFFC0
FFFE00
FFE000
FC0000
800000
ENDCHAR
STARTCHAR paragraph
ENCODING 182
SWIDTH 629 0
DWIDTH 44 0
BBX 37 59 3 -8
BITMAP
00FFFFFFF8
07FFFFFFF8
0FFFFFFFF8
1FFFFFFFF8
3FFFFFFFF8
3FFFFFFFF8
7FFFFC01F8
7FFFFC01F8
FFFFFC01F8
FFFFFC01F8
FFFFFC01F8
FFFFFC01F8
FFFFFC01F8
FFFFFC01F8
FFFFFC01F8
7FFFFC01F8
7FFFFC01F8
7FFFFC01F8
3FFFFC01F8
3FFFFC01F8
1FFFFC01F8
0FFFFC01F8
03FFFC01F8
003FFC01F8
00007C01F8
00007C01F8
00007C01F8
00007C01F8
00007C01F8
00007C01F8
00007C01F8
00007C01F8
00007C01F8
00007C01F8
00007C01F8
00007C01F8
00007C01F8
00007C01F8
00007C01F8
00007C01F8
00007C01F8
00007C01F8
00007C01F8
00007C01F8
00007C01F8
00007C01F8
00007C01F8
00007C01F8
00007C01F8
00007C01F8
00007C01F8
00007C01F8
00007C01F8
00007C01F8
00007C01F8
00007C01F8
00007C01F8
00007C01F8
00007C01F8
ENDCHAR
STARTCHAR periodcentered
ENCODING 183
SWIDTH 262 0
DWIDTH 18 0
BBX 10 10 4 20
BITMAP
1E00
3F80
7F80
7FC0
FFC0
FFC0
7FC0
7F80
3F80
1E00
ENDCHAR
STARTCHAR cedilla
ENCODING 184
SWIDTH 219 0
DWIDTH 15 0
BBX 9 11 3 -14
BITMAP
FF80
7F80
7F00
3F00
3E00
3E00
1E00
1C00
0C00
0800
0800
ENDCHAR
STARTCHAR onesuperior
ENCODING 185
SWIDTH 222 0
DWIDTH 16 0
BBX 10 25 2 26
BITMAP
FC00
FF00
FF80
FF80
0FC0
07C0
03C0
03C0
03C0
03C0
03C0
03C0
03C0
03C0
03C0
03C0
03C0
03C0
03C0
03C0
03C0
03C0
03C0
03C0
03C0
ENDCHAR
STARTCHAR ordmasculine
ENCODING 186
SWIDTH 592 0
DWIDTH 41 0
BBX 34 28 4 21
BITMAP
007FFF0000
01FFFFE000
07FFFFF000
0FFFFFFC00
1FFFFFFE00
3FC001FE00
7F00007F00
7E00003F00
7C00001F80
FC00000F80
F800000F80
F8000007C0
F8000007C0
F8000007C0
F8000007C0
F8000007C0
F8000007C0
F800000F80
FC00000F80
7C00001F80
7E00003F00
3F00007F00
3FC001FE00
1FFFFFFC00
0FFFFFF800
07FFFFF000
01FFFFC000
003FFF0000
ENDCHAR
STARTCHAR guillemotright
ENCODING 187
SWIDTH 629 0
DWIDTH 44 0
BBX 38 26 3 13
BITMAP
8000200000
E000380000
F0003E0000
FC003F0000
FF001FC000
3F800FF000
0FE003F800
03F800FE00
01FC003F80
007F001FC0
001FC007F0
000FE001F8
0003F0007C
0003F0007C
0007E001F8
001F8007F0
007F001FC0
01FC003F00
03F000FE00
0FE003F800
3F8007E000
7E001FC000
FC003F0000
F0003C0000
E000380000
8000200000
ENDCHAR
STARTCHAR onequarter
ENCODING 188
SWIDTH 972 0
DWIDTH 68 0
BBX 62 59 3 -5
BITMAP
000000000003F000
000000000007E000
00000000000FC000
03E00000001F8000
03F80000003F0000
03FC0000003F0000
03FE0000007E0000
003F000000FC0000
001F000001F80000
000F000001F80000
000F000003F00000
000F000007E00000
000F00000FC00000
000F00001F800000
000F00001F800000
000F00003F000000
000F00007E000000
000F0000FC000000
000F0000FC000000
000F0001F8000000
000F0003F0000000
000F0007E0000000
000F000FC0000000
000F000FC0000000
000F001F80000000
000F003F00000000
000F007E00000000
000F00FE00000000
000000FC00000000
000001F800000000
000003F01E0003C0
000007E01E0003C0
000007E01E0003C0
00000FC01E0003C0
00001F801E0003C0
00003F001E0003C0
00007F001E0003C0
00007E001E0003C0
0000FC001E0003C0
0001F8001E0003C0
0003F0001E0003C0
0003F0001F0003C0
0007E0001F0003C0
000FC0000F8003C0
001F80000FFFFFFC
003F800007FFFFFC
003F000003FFFFFC
007E000000FFFFFC
00FC0000000003C0
01F80000000003C0
01F80000000003C0
03F00000000003C0
07E00000000003C0
0FC00000000003C0
1FC00000000003C0
1F80000000000000
3F00000000000000
7E00000000000000
FC00000000000000
ENDCHAR
STARTCHAR onehalf
ENCODING 189
SWIDTH 948 0
DWIDTH 66 0
BBX 60 59 3 -5
BITMAP
000000000003F000
000000000007E000
00000000000FC000
03E00000001F8000
03F80000003F0000
03FC0000003F0000
03FE0000007E0000
003F000000FC0000
001F000001F80000
000F000001F80000
000F000003F00000
000F000007E00000
000F00000FC00000
000F00001F800000
000F00001F800000
000F00003F000000
000F00007E000000
000F0000FC000000
000F0000FC000000
000F0001F8000000
000F0003F0000000
000F0007E0000000
000F000FC0000000
000F000FC0000000
000F001F80000000
000F003F00000000
000F007E00000000
000F00FE00000000
000000FC00000000
000001F800000000
000003F00FFFFF00
000007E00FFFFFC0
000007E00FFFFFE0
00000FC00FFFFFF0
00001F80000001F0
00003F00000000F0
00007F00000000F0
00007E00000000F0
0000FC00000001F0
0001F800000001F0
0003F00000FFFFF0
0003F00003FFFFE0
0007E00007FFFFC0
000FC0000FFFFF00
001F80000F800000
003F80000F000000
003F00000F000000
007E00000F000000
00FC00000F000000
01F800000F000000
01F800000F000000
03F000000FFFFFF0
07E000000FFFFFF0
0FC000000FFFFFF0
1FC000000FFFFFF0
1F80000000000000
3F00000000000000
7E00000000000000
FC00000000000000
ENDCHAR
STARTCHAR threequarters
ENCODING 190
SWIDTH 1029 0
DWIDTH 72 0
BBX 66 59 3 -5
BITMAP
0000000000003F0000
0000000000007E0000
000000000000FC0000
FFFFF8000001F80000
FFFFFE000003F00000
FFFFFF000003F00000
FFFFFF000007E00000
00001F80000FC00000
00000F80001F800000
00000780001F800000
00000780003F000000
00000F80007E000000
00001F0000FC000000
03FFFE0001F8000000
03FFFC0001F8000000
03FFFF0003F0000000
03FFFF0007E0000000
00001F800FC0000000
000007801FC0000000
000007C01F80000000
000007C03F00000000
000007807E00000000
00000F80FC00000000
00001F80FC00000000
FFFFFF01F800000000
FFFFFF03F000000000
FFFFFE07E000000000
FFFFF80FE000000000
0000000FC000000000
0000001F8000000000
0000003F01E0003C00
0000007E01E0003C00
0000007E01E0003C00
000000FC01E0003C00
000001F801E0003C00
000003F001E0003C00
000007F001E0003C00
000007E001E0003C00
00000FC001E0003C00
00001F8001E0003C00
00003F0001E0003C00
00003F0001F0003C00
00007E0001F0003C00
0000FC0000F8003C00
0001F80000FFFFFFC0
0003F800007FFFFFC0
0003F000003FFFFFC0
0007E000000FFFFFC0
000FC0000000003C00
001F80000000003C00
001F80000000003C00
003F00000000003C00
007E00000000003C00
00FC00000000003C00
01FC00000000003C00
01F800000000000000
03F000000000000000
07E000000000000000
0FC000000000000000
ENDCHAR
STARTCHAR questiondown
ENCODING 191
SWIDTH 776 0
DWIDTH 54 0
BBX 49 51 2 0
BITMAP
0000000003C000
000000000FE000
000000000FF000
000000001FF800
000000001FF800
000000001FF800
000000001FF800
000000000FF000
000000000FE000
0000000003C000
00000000000000
00000000000000
00000000000000
00000000000000
00000000000000
00000000000000
00000000000000
000000000FF000
000000000FF000
000000000FF000
000000000FF000
000000001FF000
001FFFFFFFF000
00FFFFFFFFF000
03FFFFFFFFE000
07FFFFFFFFE000
0FFFFFFFFFC000
1FFFFFFFFF8000
3FFFFFFFFF0000
3FFFFFFFF80000
7FF80000000000
7FE00000000000
FFC00000000000
FFC00000000000
FF800000000000
FF800000000000
FF800000000000
FF800000000000
FF800000000000
FFC00000000000
FFE00000000000
7FF00000000000
7FFFFFFFFFFF80
7FFFFFFFFFFF80
3FFFFFFFFFFF80
1FFFFFFFFFFF80
0FFFFFFFFFFF80
07FFFFFFFFFF80
03FFFFFFFFFF80
00FFFFFFFFFF80
001FFFFFFFFF80
ENDCHAR
STARTCHAR Agrave
ENCODING 192
SWIDTH 989 0
DWIDTH 69 0
BBX 67 64 1 0
BITMAP
000002000000000000
000001C00000000000
000001F80000000000
000001FF8000000000
000001FFF000000000
000001FFFE00000000
0000007FFF00000000
00000007FF00000000
000000003F00000000
000000000100000000
000000000000000000
000000000000000000
000000004000000000
00000001F000000000
00000003F800000000
00000007FC00000000
00000007FE00000000
0000000FFE00000000
0000001FFF00000000
0000001FFF00000000
0000003FFF80000000
0000003FFFC0000000
0000007FFFC0000000
000000FFFFE0000000
000000FFFFE0000000
000001FFFFF0000000
000001FF3FF8000000
000003FF1FF8000000
000007FE1FFC000000
000007FE0FFC000000
00000FFC0FFE000000
00000FFC07FF000000
00001FF803FF000000
00003FF003FF800000
00003FF001FF800000
00007FE001FFC00000
00007FE000FFE00000
0000FFC0007FE00000
0001FF80007FF00000
0001FF80003FF00000
0003FF00003FF80000
0007FF00001FFC0000
0007FE00000FFC0000
000FFC00000FFE0000
000FFC07FFFFFE0000
001FF80FFFFFFF0000
003FF81FFFFFFF8000
003FF01FFFFFFF8000
007FE03FFFFFFFC000
007FE03FFFFFFFC000
00FFC07FFFFFFFE000
01FFC00000007FF000
01FF800000003FF000
03FF000000003FF800
03FF000000001FF800
07FE000000001FFC00
0FFE000000000FFE00
0FFC0000000007FE00
1FF80000000007FF00
1FF80000000003FF00
3FF00000000003FF80
7FF00000000001FFC0
7FE00000000000FFC0
FFC00000000000FFE0
ENDCHAR
STARTCHAR Aacute
ENCODING 193
SWIDTH 989 0
DWIDTH 69 0
BBX 67 64 1 0
BITMAP
000000000008000000
000000000078000000
0000000003F8000000
000000003FF8000000
00000001FFF8000000
0000000FFFF8000000
0000001FFFC0000000
0000001FFC00000000
0000001F8000000000
000000100000000000
000000000000000000
000000000000000000
000000004000000000
00000001F000000000
00000003F800000000
00000007FC00000000
00000007FE00000000
0000000FFE00000000
0000001FFF00000000
0000001FFF00000000
0000003FFF80000000
0000003FFFC0000000
0000007FFFC0000000
000000FFFFE0000000
000000FFFFE0000000
000001FFFFF0000000
000001FF3FF8000000
000003FF1FF8000000
000007FE1FFC000000
000007FE0FFC000000
00000FFC0FFE000000
00000FFC07FF000000
00001FF803FF000000
00003FF003FF800000
00003FF001FF800000
00007FE001FFC00000
00007FE000FFE00000
0000FFC0007FE00000
0001FF80007FF00000
0001FF80003FF00000
0003FF00003FF80000
0007FF00001FFC0000
0007FE00000FFC0000
000FFC00000FFE0000
000FFC07FFFFFE0000
001FF80FFFFFFF0000
003FF81FFFFFFF8000
003FF01FFFFFFF8000
007FE03FFFFFFFC000
007FE03FFFFFFFC000
00FFC07FFFFFFFE000
01FFC00000007FF000
01FF800000003FF000
03FF000000003FF800
03FF000000001FF800
07FE000000001FFC00
0FFE000000000FFE00
0FFC0000000007FE00
1FF80000000007FF00
1FF80000000003FF00
3FF00000000003FF80
7FF00000000001FFC0
7FE00000000000FFC0
FFC00000000000FFE0
ENDCHAR
STARTCHAR Acircumflex
ENCODING 194
SWIDTH 989 0
DWIDTH 69 0
BBX 67 64 1 0
BITMAP
00000003F800000000
00000003FC00000000
00000007FC00000000
0000000FBE00000000
0000000F1F00000000
0000001F1F00000000
0000003E0F80000000
0000003C07C0000000
0000007C07C0000000
000000F803E0000000
000000000000000000
000000000000000000
000000004000000000
00000001F000000000
00000003F800000000
00000007FC00000000
00000007FE00000000
0000000FFE00000000
0000001FFF00000000
0000001FFF00000000
0000003FFF80000000
0000003FFFC0000000
0000007FFFC0000000
000000FFFFE0000000
000000FFFFE0000000
000001FFFFF0000000
000001FF3FF8000000
000003FF1FF8000000
000007FE1FFC000000
000007FE0FFC000000
00000FFC0FFE000000
00000FFC07FF000000
00001FF803FF000000
00003FF003FF800000
00003FF001FF800000
00007FE001FFC00000
00007FE000FFE00000
0000FFC0007FE00000
0001FF80007FF00000
0001FF80003FF00000
0003FF00003FF80000
0007FF00001FFC0000
0007FE00000FFC0000
000FFC00000FFE0000
000FFC07FFFFFE0000
001FF80FFFFFFF0000
003FF81FFFFFFF8000
003FF01FFFFFFF8000
007FE03FFFFFFFC000
007FE03FFFFFFFC000
00FFC07FFFFFFFE000
01FFC00000007FF000
01FF800000003FF000
03FF000000003FF800
03FF000000001FF800
07FE000000001FFC00
0FFE000000000FFE00
0FFC0000000007FE00
1FF80000000007FF00
1FF80000000003FF00
3FF00000000003FF80
7FF00000000001FFC0
7FE00000000000FFC0
FFC00000000000FFE0
ENDCHAR
STARTCHAR Atilde
ENCODING 195
SWIDTH 989 0
DWIDTH 69 0
BBX 67 63 1 0
BITMAP
0000001E0020000000
0000007FC060000000
0000007FF0E0000000
0000007FFFE0000000
00000061FFE0000000
000000403FC0000000
000000800F00000000
000000000000000000
000000000000000000
000000000000000000
000000000000000000
000000004000000000
00000001F000000000
00000003F800000000
00000007FC00000000
00000007FE00000000
0000000FFE00000000
0000001FFF00000000
0000001FFF00000000
0000003FFF80000000
0000003FFFC0000000
0000007FFFC0000000
000000FFFFE0000000
000000FFFFE0000000
000001FFFFF0000000
000001FF3FF8000000
000003FF1FF8000000
000007FE1FFC000000
000007FE0FFC000000
00000FFC0FFE000000
00000FFC07FF000000
00001FF803FF000000
00003FF003FF800000
00003FF001FF800000
00007FE001FFC00000
00007FE000FFE00000
0000FFC0007FE00000
0001FF80007FF00000
0001FF80003FF00000
0003FF00003FF80000
0007FF00001FFC0000
0007FE00000FFC0000
000FFC00000FFE0000
000FFC07FFFFFE0000
001FF80FFFFFFF0000
003FF81FFFFFFF8000
003FF01FFFFFFF8000
007FE03FFFFFFFC000
007FE03FFFFFFFC000
00FFC07FFFFFFFE000
01FFC00000007FF000
01FF800000003FF000
03FF000000003FF800
03FF000000001FF800
07FE000000001FFC00
0FFE000000000FFE00
0FFC0000000007FE00
1FF80000000007FF00
1FF80000000003FF00
3FF00000000003FF80
7FF00000000001FFC0
7FE00000000000FFC0
FFC00000000000FFE0
ENDCHAR
STARTCHAR Adieresis
ENCODING 196
SWIDTH 989 0
DWIDTH 69 0
BBX 67 62 1 0
BITMAP
0000007803C0000000
000000FC07E0000000
000000FE07F0000000
000000FE07F0000000
000000FC07E0000000
0000007803C0000000
000000000000000000
000000000000000000
000000000000000000
000000000000000000
000000004000000000
00000001F000000000
00000003F800000000
00000007FC00000000
00000007FE00000000
0000000FFE00000000
0000001FFF00000000
0000001FFF00000000
0000003FFF80000000
0000003FFFC0000000
0000007FFFC0000000
000000FFFFE0000000
000000FFFFE0000000
000001FFFFF0000000
000001FF3FF8000000
000003FF1FF8000000
000007FE1FFC000000
000007FE0FFC000000
00000FFC0FFE000000
00000FFC07FF000000
00001FF803FF000000
00003FF003FF800000
00003FF001FF800000
00007FE001FFC00000
00007FE000FFE00000
0000FFC0007FE00000
0001FF80007FF00000
0001FF80003FF00000
0003FF00003FF80000
0007FF00001FFC0000
0007FE00000FFC0000
000FFC00000FFE0000
000FFC07FFFFFE0000
001FF80FFFFFFF0000
003FF81FFFFFFF8000
003FF01FFFFFFF8000
007FE03FFFFFFFC000
007FE03FFFFFFFC000
00FFC07FFFFFFFE000
01FFC00000007FF000
01FF800000003FF000
03FF000000003FF800
03FF000000001FF800
07FE000000001FFC00
0FFE000000000FFE00
0FFC0000000007FE00
1FF80000000007FF00
1FF80000000003FF00
3FF00000000003FF80
7FF00000000001FFC0
7FE00000000000FFC0
FFC00000000000FFE0
ENDCHAR
STARTCHAR Aring
ENCODING 197
SWIDTH 989 0
DWIDTH 69 0
BBX 67 68 1 0
BITMAP
00000007FC00000000
0000001FFF00000000
0000003FFF80000000
0000007803C0000000
0000007001C0000000
0000007000C0000000
0000006000E0000000
0000006000E0000000
0000007000C0000000
0000007001C0000000
0000007803C0000000
0000003FFF80000000
0000001FFF00000000
00000007FC00000000
000000000000000000
000000000000000000
000000004000000000
00000001F000000000
00000003F800000000
00000007FC00000000
00000007FE00000000
0000000FFE00000000
0000001FFF00000000
0000001FFF00000000
0000003FFF80000000
0000003FFFC0000000
0000007FFFC0000000
000000FFFFE0000000
000000FFFFE0000000
000001FFFFF0000000
000001FF3FF8000000
000003FF1FF8000000
000007FE1FFC000000
000007FE0FFC000000
00000FFC0FFE000000
00000FFC07FF000000
00001FF803FF000000
00003FF003FF800000
00003FF001FF800000
00007FE001FFC00000
00007FE000FFE00000
0000FFC0007FE00000
0001FF80007FF00000
0001FF80003FF00000
0003FF00003FF80000
0007FF00001FFC0000
0007FE00000FFC0000
000FFC00000FFE0000
000FFC07FFFFFE0000
001FF80FFFFFFF0000
003FF81FFFFFFF8000
003FF01FFFFFFF8000
007FE03FFFFFFFC000
007FE03FFFFFFFC000
00FFC07FFFFFFFE000
01FFC00000007FF000
01FF800000003FF000
03FF000000003FF800
03FF000000001FF800
07FE000000001FFC00
0FFE000000000FFE00
0FFC0000000007FE00
1FF80000000007FF00
1FF80000000003FF00
3FF00000000003FF80
7FF00000000001FFC0
7FE00000000000FFC0
FFC00000000000FFE0
ENDCHAR
STARTCHAR AE
ENCODING 198
SWIDTH 1345 0
DWIDTH 94 0
BBX 90 51 1 0
BITMAP
00000003FFFFFFFFFFFFFFC0
00000007FFFFFFFFFFFFFFC0
0000000FFFFFFFFFFFFFFFC0
0000000FFFFFFFFFFFFFFFC0
0000001FFFFFFFFFFFFFFFC0
0000003FFFFFFFFFFFFFFFC0
0000003FFFFFFFFFFFFFFFC0
0000007FFFFFFFFFFFFFFFC0
0000007FFFFFFFFFFFFFFFC0
000000FFC001FF0000000000
000001FF8001FF0000000000
000001FF0001FF0000000000
000003FF0001FF0000000000
000003FE0001FF0000000000
000007FE0001FF0000000000
000007FC0001FF0000000000
00000FFC0001FF0000000000
00001FF80001FF0000000000
00001FF00001FF0000000000
00003FF00001FF0000000000
00003FE00001FF0000000000
00007FE00001FF01FFFFFF00
00007FC00001FF01FFFFFF00
0000FFC00001FF01FFFFFF00
0001FF800001FF01FFFFFF00
0001FF800001FF01FFFFFF00
0003FF000001FF01FFFFFF00
0003FE000001FF01FFFFFF00
0007FE000001FF01FFFFFF00
000FFC000001FF0000000000
000FFC000001FF0000000000
001FF80FFFFFFF0000000000
001FF80FFFFFFF0000000000
003FF01FFFFFFF0000000000
003FE03FFFFFFF0000000000
007FE03FFFFFFF0000000000
00FFC07FFFFFFF0000000000
00FFC0FFFFFFFF0000000000
01FF80000001FF0000000000
01FF80000001FF0000000000
03FF00000001FF0000000000
07FE00000001FF0000000000
07FE00000001FFFFFFFFFFC0
0FFC00000001FFFFFFFFFFC0
0FFC00000001FFFFFFFFFFC0
1FF800000001FFFFFFFFFFC0
1FF800000001FFFFFFFFFFC0
3FF000000001FFFFFFFFFFC0
7FE000000001FFFFFFFFFFC0
7FE000000001FFFFFFFFFFC0
FFC000000001FFFFFFFFFFC0
ENDCHAR
STARTCHAR Ccedilla
ENCODING 199
SWIDTH 829 0
DWIDTH 58 0
BBX 52 65 3 -14
BITMAP
00001FFFFFFFF0
0000FFFFFFFFF0
0007FFFFFFFFF0
001FFFFFFFFFF0
003FFFFFFFFFF0
00FFFFFFFFFFF0
01FFFFFFFFFFF0
03FFFFFFFFFFF0
07FFFFFFFFFFF0
07FFF000000000
0FFFC000000000
1FFF0000000000
1FFC0000000000
3FF80000000000
3FF00000000000
7FF00000000000
7FE00000000000
7FE00000000000
7FC00000000000
FFC00000000000
FF800000000000
FF800000000000
FF800000000000
FF800000000000
FF800000000000
FF800000000000
FF800000000000
FF800000000000
FF800000000000
FF800000000000
FF800000000000
7FC00000000000
7FC00000000000
7FE00000000000
7FE00000000000
3FF00000000000
3FF80000000000
1FF80000000000
1FFE0000000000
0FFF0000000000
0FFFC000000000
07FFF000000000
03FFFFFFFFFFF0
01FFFFFFFFFFF0
00FFFFFFFFFFF0
007FFFFFFFFFF0
003FFFFFFFFFF0
000FFFFFFFFFF0
0003FFFFFFFFF0
0000FFFFFFFFF0
00001FFFFFFFF0
00000000000000
00000000000000
00000000000000
000001FF000000
000001FE000000
000000FE000000
000000FE000000
0000007C000000
0000007C000000
00000038000000
00000038000000
00000030000000
00000010000000
00000010000000
ENDCHAR
STARTCHAR Egrave
ENCODING 200
SWIDTH 759 0
DWIDTH 53 0
BBX 46 64 4 0
BITMAP
001000000000
001E00000000
001FC0000000
001FFC000000
001FFF800000
001FFFF00000
0003FFF80000
00001FF80000
000001F80000
000000080000
000000000000
000000000000
000000000000
FFFFFFFFFFFC
FFFFFFFFFFFC
FFFFFFFFFFFC
FFFFFFFFFFFC
FFFFFFFFFFFC
FFFFFFFFFFFC
FFFFFFFFFFFC
FFFFFFFFFFFC
FFFFFFFFFFFC
FF8000000000
FF8000000000
FF8000000000
FF8000000000
FF8000000000
FF8000000000
FF8000000000
FF8000000000
FF8000000000
FF8000000000
FF8000000000
FF8000000000
FF80FFFFFFF0
FF80FFFFFFF0
FF80FFFFFFF0
FF80FFFFFFF0
FF80FFFFFFF0
FF80FFFFFFF0
FF80FFFFFFF0
FF80FFFFFFF0
FF8000000000
FF8000000000
FF8000000000
FF8000000000
FF8000000000
FF8000000000
FF8000000000
FF8000000000
FF8000000000
FF8000000000
FF8000000000
FF8000000000
FF8000000000
FFFFFFFFFFFC
FFFFFFFFFFFC
FFFFFFFFFFFC
FFFFFFFFFFFC
FFFFFFFFFFFC
FFFFFFFFFFFC
FFFFFFFFFFFC
FFFFFFFFFFFC
FFFFFFFFFFFC
ENDCHAR
STARTCHAR Eacute
ENCODING 201
SWIDTH 759 0
DWIDTH 53 0
BBX 46 64 4 0
BITMAP
000000004000
00000003C000
0000001FC000
000001FFC000
00000FFFC000
00007FFFC000
0000FFFE0000
0000FFE00000
0000FC000000
000080000000
000000000000
000000000000
000000000000
FFFFFFFFFFFC
FFFFFFFFFFFC
FFFFFFFFFFFC
FFFFFFFFFFFC
FFFFFFFFFFFC
FFFFFFFFFFFC
FFFFFFFFFFFC
FFFFFFFFFFFC
FFFFFFFFFFFC
FF8000000000
FF8000000000
FF8000000000
FF8000000000
FF8000000000
FF8000000000
FF8000000000
FF8000000000
FF8000000000
FF8000000000
FF8000000000
FF8000000000
FF80FFFFFFF0
FF80FFFFFFF0
FF80FFFFFFF0
FF80FFFFFFF0
FF80FFFFFFF0
FF80FFFFFFF0
FF80FFFFFFF0
FF80FFFFFFF0
FF8000000000
FF8000000000
FF8000000000
FF8000000000
FF8000000000
FF8000000000
FF8000000000
FF8000000000
FF8000000000
FF8000000000
FF8000000000
FF8000000000
FF8000000000
FFFFFFFFFFFC
FFFFFFFFFFFC
FFFFFFFFFFFC
FFFFFFFFFFFC
FFFFFFFFFFFC
FFFFFFFFFFFC
FFFFFFFFFFFC
FFFFFFFFFFFC
FFFFFFFFFFFC
ENDCHAR
STARTCHAR Ecircumflex
ENCODING 202
SWIDTH 759 0
DWIDTH 53 0
BBX 46 64 4 0
BITMAP
00001FC00000
00003FE00000
00003FE00000
00007DF00000
000078F80000
0000F8F80000
0001F07C0000
0001E03E0000
0003E03E0000
0007C01F0000
000000000000
000000000000
000000000000
FFFFFFFFFFFC
FFFFFFFFFFFC
FFFFFFFFFFFC
FFFFFFFFFFFC
FFFFFFFFFFFC
FFFFFFFFFFFC
FFFFFFFFFFFC
FFFFFFFFFFFC
FFFFFFFFFFFC
FF8000000000
FF8000000000
FF8000000000
FF8000000000
FF8000000000
FF8000000000
FF8000000000
FF8000000000
FF8000000000
FF8000000000
FF8000000000
FF8000000000
FF80FFFFFFF0
FF80FFFFFFF0
FF80FFFFFFF0
FF80FFFFFFF0
FF80FFFFFFF0
FF80FFFFFFF0
FF80FFFFFFF0
FF80FFFFFFF0
FF8000000000
FF8000000000
FF8000000000
FF8000000000
FF8000000000
FF8000000000
FF8000000000
FF8000000000
FF8000000000
FF8000000000
FF8000000000
FF8000000000
FF8000000000
FFFFFFFFFFFC
FFFFFFFFFFFC
FFFFFFFFFFFC
FFFFFFFFFFFC
FFFFFFFFFFFC
FFFFFFFFFFFC
FFFFFFFFFFFC
FFFFFFFFFFFC
FFFFFFFFFFFC
ENDCHAR
STARTCHAR Edieresis
ENCODING 203
SWIDTH 759 0
DWIDTH 53 0
BBX 46 62 4 0
BITMAP
0003C01E0000
0007E03F0000
0007F07F8000
0007F03F8000
0007E03F0000
0003C01E0000
000000000000
000000000000
000000000000
000000000000
000000000000
FFFFFFFFFFFC
FFFFFFFFFFFC
FFFFFFFFFFFC
FFFFFFFFFFFC
FFFFFFFFFFFC
FFFFFFFFFFFC
FFFFFFFFFFFC
FFFFFFFFFFFC
FFFFFFFFFFFC
FF8000000000
FF8000000000
FF8000000000
FF8000000000
FF8000000000
FF8000000000
FF8000000000
FF8000000000
FF8000000000
FF8000000000
FF8000000000
FF8000000000
FF80FFFFFFF0
FF80FFFFFFF0
FF80FFFFFFF0
FF80FFFFFFF0
FF80FFFFFFF0
FF80FFFFFFF0
FF80FFFFFFF0
FF80FFFFFFF0
FF8000000000
FF8000000000
FF8000000000
FF8000000000
FF8000000000
FF8000000000
FF8000000000
FF8000000000
FF8000000000
FF8000000000
FF8000000000
FF8000000000
FF8000000000
FFFFFFFFFFFC
FFFFFFFFFFFC
FFFFFFFFFFFC
FFFFFFFFFFFC
FFFFFFFFFFFC
FFFFFFFFFFFC
FFFFFFFFFFFC
FFFFFFFFFFFC
FFFFFFFFFFFC
ENDCHAR
STARTCHAR Igrave
ENCODING 204
SWIDTH 267 0
DWIDTH 19 0
BBX 18 64 -2 0
BITMAP
800000
F00000
FE0000
FFE000
FFFC00
FFFF80
1FFFC0
01FFC0
000FC0
000040
000000
000000
000000
01FF00
01FF00
01FF00
01FF00
01FF00
01FF00
01FF00
01FF00
01FF00
01FF00
01FF00
01FF00
01FF00
01FF00
01FF00
01FF00
01FF00
01FF00
01FF00
01FF00
01FF00
01FF00
01FF00
01FF00
01FF00
01FF00
01FF00
01FF00
01FF00
01FF00
01FF00
01FF00
01FF00
01FF00
01FF00
01FF00
01FF00
01FF00
01FF00
01FF00
01FF00
01FF00
01FF00
01FF00
01FF00
01FF00
01FF00
01FF00
01FF00
01FF00
01FF00
ENDCHAR
STARTCHAR Iacute
ENCODING 205
SWIDTH 267 0
DWIDTH 19 0
BBX 18 64 3 0
BITMAP
000040
0003C0
001FC0
01FFC0
0FFFC0
7FFFC0
FFFE00
FFC000
FC0000
800000
000000
000000
000000
3FE000
3FE000
3FE000
3FE000
3FE000
3FE000
3FE000
3FE000
3FE000
3FE000
3FE000
3FE000
3FE000
3FE000
3FE000
3FE000
3FE000
3FE000
3FE000
3FE000
3FE000
3FE000
3FE000
3FE000
3FE000
3FE000
3FE000
3FE000
3FE000
3FE000
3FE000
3FE000
3FE000
3FE000
3FE000
3FE000
3FE000
3FE000
3FE000
3FE000
3FE000
3FE000
3FE000
3FE000
3FE000
3FE000
3FE000
3FE000
3FE000
3FE000
3FE000
ENDCHAR
STARTCHAR Icircumflex
ENCODING 206
SWIDTH 267 0
DWIDTH 19 0
BBX 19 64 0 0
BITMAP
03F800
07F800
07FC00
0FBE00
1F1E00
1F1F00
3E0F80
7C0F80
7C07C0
F803E0
000000
000000
000000
07FC00
07FC00
07FC00
07FC00
07FC00
07FC00
07FC00
07FC00
07FC00
07FC00
07FC00
07FC00
07FC00
07FC00
07FC00
07FC00
07FC00
07FC00
07FC00
07FC00
07FC00
07FC00
07FC00
07FC00
07FC00
07FC00
07FC00
07FC00
07FC00
07FC00
07FC00
07FC00
07FC00
07FC00
07FC00
07FC00
07FC00
07FC00
07FC00
07FC00
07FC00
07FC00
07FC00
07FC00
07FC00
07FC00
07FC00
07FC00
07FC00
07FC00
07FC00
ENDCHAR
STARTCHAR Idieresis
ENCODING 207
SWIDTH 267 0
DWIDTH 19 0
BBX 20 62 -1 0
BITMAP
3C01E0
7E03F0
FE07F0
FF07F0
7E03F0
3C01E0
000000
000000
000000
000000
000000
03FE00
03FE00
03FE00
03FE00
03FE00
03FE00
03FE00
03FE00
03FE00
03FE00
03FE00
03FE00
03FE00
03FE00
03FE00
03FE00
03FE00
03FE00
03FE00
03FE00
03FE00
03FE00
03FE00
03FE00
03FE00
03FE00
03FE00
03FE00
03FE00
03FE00
03FE00
03FE00
03FE00
03FE00
03FE00
03FE00
03FE00
03FE00
03FE00
03FE00
03FE00
03FE00
03FE00
03FE00
03FE00
03FE00
03FE00
03FE00
03FE00
03FE00
03FE00
ENDCHAR
STARTCHAR Eth
ENCODING 208
SWIDTH 877 0
DWIDTH 61 0
BBX 58 51 1 0
BITMAP
1FFFFFFFFC000000
1FFFFFFFFFC00000
1FFFFFFFFFF00000
1FFFFFFFFFFC0000
1FFFFFFFFFFF0000
1FFFFFFFFFFF8000
1FFFFFFFFFFFC000
1FFFFFFFFFFFE000
1FFFFFFFFFFFF000
1FF0000007FFF800
1FF0000000FFF800
1FF00000003FFC00
1FF00000001FFE00
1FF00000000FFE00
1FF000000007FF00
1FF000000003FF00
1FF000000003FF00
1FF000000001FF80
1FF000000001FF80
1FF000000000FF80
1FF000000000FF80
FFFFFFFF0000FF80
FFFFFFFF0000FF80
FFFFFFFF00007FC0
FFFFFFFF00007FC0
FFFFFFFF00007FC0
FFFFFFFF00007FC0
FFFFFFFF0000FF80
FFFFFFFF0000FF80
1FF000000000FF80
1FF000000000FF80
1FF000000000FF80
1FF000000001FF80
1FF000000001FF00
1FF000000003FF00
1FF000000003FF00
1FF000000007FE00
1FF00000000FFE00
1FF00000001FFC00
1FF00000003FFC00
1FF0000000FFF800
1FF0000007FFF000
1FFFFFFFFFFFF000
1FFFFFFFFFFFE000
1FFFFFFFFFFFC000
1FFFFFFFFFFF0000
1FFFFFFFFFFE0000
1FFFFFFFFFFC0000
1FFFFFFFFFF00000
1FFFFFFFFF800000
1FFFFFFFFC000000
ENDCHAR
STARTCHAR Ntilde
ENCODING 209
SWIDTH 873 0
DWIDTH 61 0
BBX 53 63 4 0
BITMAP
00000F00100000
00003FC0200000
00003FF8600000
00003FFFE00000
000030FFE00000
0000203FE00000
0000400F800000
00000000000000
00000000000000
00000000000000
00000000000000
00000000000000
1E000000000FF8
7F000000000FF8
7F800000000FF8
FFC00000000FF8
FFE00000000FF8
FFF00000000FF8
FFF80000000FF8
FFFC0000000FF8
FFFE0000000FF8
FFFF0000000FF8
FFFF8000000FF8
FFFFC000000FF8
FFFFE000000FF8
FFFFF000000FF8
FFFFF800000FF8
FFBFFC00000FF8
FF9FFE00000FF8
FF8FFF00000FF8
FF87FFC0000FF8
FF83FFE0000FF8
FF81FFF0000FF8
FF80FFF8000FF8
FF807FFC000FF8
FF803FFE000FF8
FF801FFF000FF8
FF800FFF800FF8
FF8007FFC00FF8
FF8003FFE00FF8
FF8001FFF00FF8
FF8000FFF80FF8
FF80007FFC0FF8
FF80003FFE0FF8
FF80001FFF0FF8
FF80000FFF8FF8
FF800007FFCFF8
FF800003FFEFF8
FF800001FFFFF8
FF800000FFFFF8
FF8000007FFFF8
FF8000001FFFF8
FF8000000FFFF8
FF80000007FFF8
FF80000003FFF8
FF80000001FFF8
FF80000000FFF8
FF800000007FF8
FF800000003FF8
FF800000001FF8
FF800000000FF0
FF8000000007F0
FF8000000003E0
ENDCHAR
STARTCHAR Ograve
ENCODING 210
SWIDTH 968 0
DWIDTH 68 0
BBX 62 64 3 0
BITMAP
0000100000000000
00000E0000000000
00000FE000000000
00000FFC00000000
00000FFF80000000
00000FFFF8000000
000003FFFC000000
0000001FFC000000
00000001FC000000
000000000C000000
0000000000000000
0000000000000000
0000000000000000
00001FFFFFE00000
0000FFFFFFFC0000
0007FFFFFFFF8000
001FFFFFFFFFE000
003FFFFFFFFFF000
00FFFFFFFFFFF800
01FFFFFFFFFFFE00
03FFFFFFFFFFFF00
07FFFFFFFFFFFF00
07FFF000007FFF80
0FFFC000000FFFC0
1FFF00000003FFE0
1FFC00000001FFE0
3FF800000000FFF0
3FF0000000007FF0
7FF0000000003FF0
7FE0000000001FF8
7FE0000000001FF8
7FC0000000000FF8
FFC0000000000FF8
FF80000000000FFC
FF800000000007FC
FF800000000007FC
FF800000000007FC
FF800000000007FC
FF800000000007FC
FF800000000007FC
FF800000000007FC
FF800000000007FC
FF800000000007FC
FF80000000000FF8
7FC0000000000FF8
7FC0000000000FF8
7FE0000000001FF8
7FE0000000001FF0
3FF0000000003FF0
3FF8000000007FF0
1FF800000000FFE0
1FFE00000001FFE0
0FFF00000003FFC0
0FFFC000000FFF80
07FFF000003FFF80
03FFFFFFFFFFFF00
01FFFFFFFFFFFE00
00FFFFFFFFFFFC00
007FFFFFFFFFF800
003FFFFFFFFFF000
000FFFFFFFFFC000
0003FFFFFFFF0000
0000FFFFFFFC0000
00001FFFFFC00000
ENDCHAR
STARTCHAR Oacute
ENCODING 211
SWIDTH 968 0
DWIDTH 68 0
BBX 62 64 3 0
BITMAP
0000000000400000
0000000003C00000
000000001FC00000
00000000FFC00000
0000000FFFC00000
0000007FFFC00000
000000FFFF000000
000000FFE0000000
000000FC00000000
000000C000000000
0000000000000000
0000000000000000
0000000000000000
00001FFFFFE00000
0000FFFFFFFC0000
0007FFFFFFFF8000
001FFFFFFFFFE000
003FFFFFFFFFF000
00FFFFFFFFFFF800
01FFFFFFFFFFFE00
03FFFFFFFFFFFF00
07FFFFFFFFFFFF00
07FFF000007FFF80
0FFFC000000FFFC0
1FFF00000003FFE0
1FFC00000001FFE0
3FF800000000FFF0
3FF0000000007FF0
7FF0000000003FF0
7FE0000000001FF8
7FE0000000001FF8
7FC0000000000FF8
FFC0000000000FF8
FF80000000000FFC
FF800000000007FC
FF800000000007FC
FF800000000007FC
FF800000000007FC
FF800000000007FC
FF800000000007FC
FF800000000007FC
FF800000000007FC
FF800000000007FC
FF80000000000FF8
7FC0000000000FF8
7FC0000000000FF8
7FE0000000001FF8
7FE0000000001FF0
3FF0000000003FF0
3FF8000000007FF0
1FF800000000FFE0
1FFE00000001FFE0
0FFF00000003FFC0
0FFFC000000FFF80
07FFF000003FFF80
03FFFFFFFFFFFF00
01FFFFFFFFFFFE00
00FFFFFFFFFFFC00
007FFFFFFFFFF800
003FFFFFFFFFF000
000FFFFFFFFFC000
0003FFFFFFFF0000
0000FFFFFFFC0000
00001FFFFFC00000
ENDCHAR
STARTCHAR Ocircumflex
ENCODING 212
SWIDTH 968 0
DWIDTH 68 0
BBX 62 64 3 0
BITMAP
0000001FC0000000
0000001FE0000000
0000003FF0000000
0000007DF0000000
0000007CF8000000
000000F878000000
000000F07C000000
000001F03E000000
000003E01E000000
000007C01F000000
0000000000000000
0000000000000000
0000000000000000
00001FFFFFE00000
0000FFFFFFFC0000
0007FFFFFFFF8000
001FFFFFFFFFE000
003FFFFFFFFFF000
00FFFFFFFFFFF800
01FFFFFFFFFFFE00
03FFFFFFFFFFFF00
07FFFFFFFFFFFF00
07FFF000007FFF80
0FFFC000000FFFC0
1FFF00000003FFE0
1FFC00000001FFE0
3FF800000000FFF0
3FF0000000007FF0
7FF0000000003FF0
7FE0000000001FF8
7FE0000000001FF8
7FC0000000000FF8
FFC0000000000FF8
FF80000000000FFC
FF800000000007FC
FF800000000007FC
FF800000000007FC
FF800000000007FC
FF800000000007FC
FF800000000007FC
FF800000000007FC
FF800000000007FC
FF800000000007FC
FF80000000000FF8
7FC0000000000FF8
7FC0000000000FF8
7FE0000000001FF8
7FE0000000001FF0
3FF0000000003FF0
3FF8000000007FF0
1FF800000000FFE0
1FFE00000001FFE0
0FFF00000003FFC0
0FFFC000000FFF80
07FFF000003FFF80
03FFFFFFFFFFFF00
01FFFFFFFFFFFE00
00FFFFFFFFFFFC00
007FFFFFFFFFF800
003FFFFFFFFFF000
000FFFFFFFFFC000
0003FFFFFFFF0000
0000FFFFFFFC0000
00001FFFFFC00000
ENDCHAR
STARTCHAR Otilde
ENCODING 213
SWIDTH 968 0
DWIDTH 68 0
BBX 62 63 3 0
BITMAP
000000F801000000
000001FE01000000
000003FF87000000
000003FFFF000000
00000307FF000000
00000201FE000000
000004007C000000
0000000000000000
0000000000000000
0000000000000000
0000000000000000
0000000000000000
00001FFFFFE00000
0000FFFFFFFC0000
0007FFFFFFFF8000
001FFFFFFFFFE000
003FFFFFFFFFF000
00FFFFFFFFFFF800
01FFFFFFFFFFFE00
03FFFFFFFFFFFF00
07FFFFFFFFFFFF00
07FFF000007FFF80
0FFFC000000FFFC0
1FFF00000003FFE0
1FFC00000001FFE0
3FF800000000FFF0
3FF0000000007FF0
7FF0000000003FF0
7FE0000000001FF8
7FE0000000001FF8
7FC0000000000FF8
FFC0000000000FF8
FF80000000000FFC
FF800000000007FC
FF800000000007FC
FF800000000007FC
FF800000000007FC
FF800000000007FC
FF800000000007FC
FF800000000007FC
FF800000000007FC
FF800000000007FC
FF80000000000FF8
7FC0000000000FF8
7FC0000000000FF8
7FE0000000001FF8
7FE0000000001FF0
3FF0000000003FF0
3FF8000000007FF0
1FF800000000FFE0
1FFE00000001FFE0
0FFF00000003FFC0
0FFFC000000FFF80
07FFF000003FFF80
03FFFFFFFFFFFF00
01FFFFFFFFFFFE00
00FFFFFFFFFFFC00
007FFFFFFFFFF800
003FFFFFFFFFF000
000FFFFFFFFFC000
0003FFFFFFFF0000
0000FFFFFFFC0000
00001FFFFFC00000
ENDCHAR
STARTCHAR Odieresis
ENCODING 214
SWIDTH 968 0
DWIDTH 68 0
BBX 62 62 3 0
BITMAP
000003C01E000000
000007F03F800000
000007F03F800000
000007F03F800000
000007F03F000000
000003E01E000000
0000000000000000
0000000000000000
0000000000000000
0000000000000000
0000000000000000
00001FFFFFE00000
0000FFFFFFFC0000
0007FFFFFFFF8000
001FFFFFFFFFE000
003FFFFFFFFFF000
00FFFFFFFFFFF800
01FFFFFFFFFFFE00
03FFFFFFFFFFFF00
07FFFFFFFFFFFF00
07FFF000007FFF80
0FFFC000000FFFC0
1FFF00000003FFE0
1FFC00000001FFE0
3FF800000000FFF0
3FF0000000007FF0
7FF0000000003FF0
7FE0000000001FF8
7FE0000000001FF8
7FC0000000000FF8
FFC0000000000FF8
FF80000000000FFC
FF800000000007FC
FF800000000007FC
FF800000000007FC
FF800000000007FC
FF800000000007FC
FF800000000007FC
FF800000000007FC
FF800000000007FC
FF800000000007FC
FF80000000000FF8
7FC0000000000FF8
7FC0000000000FF8
7FE0000000001FF8
7FE0000000001FF0
3FF0000000003FF0
3FF8000000007FF0
1FF800000000FFE0
1FFE00000001FFE0
0FFF00000003FFC0
0FFFC000000FFF80
07FFF000003FFF80
03FFFFFFFFFFFF00
01FFFFFFFFFFFE00
00FFFFFFFFFFFC00
007FFFFFFFFFF800
003FFFFFFFFFF000
000FFFFFFFFFC000
0003FFFFFFFF0000
0000FFFFFFFC0000
00001FFFFFC00000
ENDCHAR
STARTCHAR multiply
ENCODING 215
SWIDTH 690 0
DWIDTH 48 0
BBX 32 32 8 10
BITMAP
08000010
1C000038
3E00007C
7F0000FE
FF8001FF
7FC003FE
3FE007FC
1FF00FF8
0FF81FF0
07FC3FE0
03FE7FC0
01FFFF80
00FFFF00
007FFE00
003FFC00
001FF800
001FF800
003FFC00
007FFE00
00FFFF00
01FFFF80
03FE7FC0
03FC3FE0
07F81FF0
0FF00FF8
1FE007FC
3FC003FE
FF8001FF
7F0000FF
3E00007E
1C00003C
08000018
ENDCHAR
STARTCHAR Oslash
ENCODING 216
SWIDTH 968 0
DWIDTH 68 0
BBX 62 58 3 -4
BITMAP
0000000000000600
0000000000000F00
0000000000001F00
00001FFFFFC03E00
0000FFFFFFFC7C00
0007FFFFFFFFF800
001FFFFFFFFFF000
003FFFFFFFFFF000
00FFFFFFFFFFF800
01FFFFFFFFFFFE00
03FFFFFFFFFFFF00
07FFFFFFFFFFFF00
07FFF000007FFF80
0FFFC000003FFFC0
1FFF0000007FFFC0
1FFC000000F9FFE0
3FF8000001F0FFF0
3FF0000003E07FF0
7FF0000003C03FF0
7FE0000007801FF8
7FE000000F001FF8
7FC000001F000FF8
FFC000003E000FF8
FF8000007C000FFC
FF800000F80007FC
FF800000F00007FC
FF800001E00007FC
FF800003E00007FC
FF800007C00007FC
FF80000F800007FC
FF80001F000007FC
FF80001E000007FC
FF80003C000007FC
FF80007C00000FF8
7FC000F800000FF8
7FC001F000000FF8
7FE003E000001FF8
7FE007C000001FF0
3FF0078000003FF0
3FF00F0000007FF0
1FF81F000000FFE0
1FFC3E000001FFE0
0FFF7C000003FFC0
0FFFF800000FFF80
07FFF000003FFF80
03FFFFFFFFFFFF00
01FFFFFFFFFFFE00
00FFFFFFFFFFFC00
007FFFFFFFFFF800
003FFFFFFFFFF000
003FFFFFFFFFC000
003FFFFFFFFF0000
0078FFFFFFFC0000
00F80FFFFFC00000
01F0000000000000
01E0000000000000
00C0000000000000
0040000000000000
ENDCHAR
STARTCHAR Ugrave
ENCODING 217
SWIDTH 889 0
DWIDTH 62 0
BBX 55 65 4 -1
BITMAP
00008000000000
0000E000000000
0000FE00000000
0000FFC0000000
0000FFFC000000
0000FFFF800000
00003FFFC00000
000001FFC00000
0000000FC00000
00000000C00000
00000000000000
00000000000000
00000000000000
FF8000000003FE
FF8000000003FE
FF8000000003FE
FF8000000003FE
FF8000000003FE
FF8000000003FE
FF8000000003FE
FF8000000003FE
FF8000000003FE
FF8000000003FE
FF8000000003FE
FF8000000003FE
FF8000000003FE
FF8000000003FE
FF8000000003FE
FF8000000003FE
FF8000000003FE
FF8000000003FE
FF8000000003FE
FF8000000003FE
FF8000000003FE
FF8000000003FE
FF8000000003FE
FF8000000003FE
FF8000000003FE
FF8000000003FE
FF8000000003FE
FF8000000003FE
FF8000000003FE
FF8000000003FE
FF8000000003FE
FF8000000003FC
FF8000000003FC
FF8000000007FC
FFC000000007FC
FFC000000007FC
FFC00000000FFC
7FE00000000FF8
7FF00000001FF8
7FF80000003FF8
3FFC0000007FF0
3FFF000001FFF0
1FFFF0001FFFE0
0FFFFFFFFFFFE0
0FFFFFFFFFFFC0
07FFFFFFFFFF80
03FFFFFFFFFF00
00FFFFFFFFFE00
007FFFFFFFF800
001FFFFFFFE000
0003FFFFFF0000
00000FFFE00000
ENDCHAR
STARTCHAR Uacute
ENCODING 218
SWIDTH 889 0
DWIDTH 62 0
BBX 55 65 4 -1
BITMAP
00000000020000
000000001C0000
00000001FC0000
0000000FFC0000
0000007FFC0000
000007FFFC0000
00000FFFF00000
00000FFE000000
00000FC0000000
00000C00000000
00000000000000
00000000000000
00000000000000
FF8000000003FE
FF8000000003FE
FF8000000003FE
FF8000000003FE
FF8000000003FE
FF8000000003FE
FF8000000003FE
FF8000000003FE
FF8000000003FE
FF8000000003FE
FF8000000003FE
FF8000000003FE
FF8000000003FE
FF8000000003FE
FF8000000003FE
FF8000000003FE
FF8000000003FE
FF8000000003FE
FF8000000003FE
FF8000000003FE
FF8000000003FE
FF8000000003FE
FF8000000003FE
FF8000000003FE
FF8000000003FE
FF8000000003FE
FF8000000003FE
FF8000000003FE
FF8000000003FE
FF8000000003FE
FF8000000003FE
FF8000000003FC
FF8000000003FC
FF8000000007FC
FFC000000007FC
FFC000000007FC
FFC00000000FFC
7FE00000000FF8
7FF00000001FF8
7FF80000003FF8
3FFC0000007FF0
3FFF000001FFF0
1FFFF0001FFFE0
0FFFFFFFFFFFE0
0FFFFFFFFFFFC0
07FFFFFFFFFF80
03FFFFFFFFFF00
00FFFFFFFFFE00
007FFFFFFFF800
001FFFFFFFE000
0003FFFFFF0000
00000FFFE00000
ENDCHAR
STARTCHAR Ucircumflex
ENCODING 219
SWIDTH 889 0
DWIDTH 62 0
BBX 55 65 4 -1
BITMAP
000000FE000000
000001FE000000
000003FF000000
000003CF000000
000007CF800000
00000F87C00000
00000F83C00000
00001F03E00000
00001E01F00000
00003E01F80000
00000000000000
00000000000000
00000000000000
FF8000000003FE
FF8000000003FE
FF8000000003FE
FF8000000003FE
FF8000000003FE
FF8000000003FE
FF8000000003FE
FF8000000003FE
FF8000000003FE
FF8000000003FE
FF8000000003FE
FF8000000003FE
FF8000000003FE
FF8000000003FE
FF8000000003FE
FF8000000003FE
FF8000000003FE
FF8000000003FE
FF8000000003FE
FF8000000003FE
FF8000000003FE
FF8000000003FE
FF8000000003FE
FF8000000003FE
FF8000000003FE
FF8000000003FE
FF8000000003FE
FF8000000003FE
FF8000000003FE
FF8000000003FE
FF8000000003FE
FF8000000003FC
FF8000000003FC
FF8000000007FC
FFC000000007FC
FFC000000007FC
FFC00000000FFC
7FE00000000FF8
7FF00000001FF8
7FF80000003FF8
3FFC0000007FF0
3FFF000001FFF0
1FFFF0001FFFE0
0FFFFFFFFFFFE0
0FFFFFFFFFFFC0
07FFFFFFFFFF80
03FFFFFFFFFF00
00FFFFFFFFFE00
007FFFFFFFF800
001FFFFFFFE000
0003FFFFFF0000
00000FFFE00000
ENDCHAR
STARTCHAR Udieresis
ENCODING 220
SWIDTH 889 0
DWIDTH 62 0
BBX 55 63 4 -1
BITMAP
00001E01F00000
00007F03F80000
00007F03F80000
00007F03F80000
00007F03F80000
00001E01F00000
00000000000000
00000000000000
00000000000000
00000000000000
00000000000000
FF8000000003FE
FF8000000003FE
FF8000000003FE
FF8000000003FE
FF8000000003FE
FF8000000003FE
FF8000000003FE
FF8000000003FE
FF8000000003FE
FF8000000003FE
FF8000000003FE
FF8000000003FE
FF8000000003FE
FF8000000003FE
FF8000000003FE
FF8000000003FE
FF8000000003FE
FF8000000003FE
FF8000000003FE
FF8000000003FE
FF8000000003FE
FF8000000003FE
FF8000000003FE
FF8000000003FE
FF8000000003FE
FF8000000003FE
FF8000000003FE
FF8000000003FE
FF8000000003FE
FF8000000003FE
FF8000000003FE
FF8000000003FC
FF8000000003FC
FF8000000007FC
FFC000000007FC
FFC000000007FC
FFC00000000FFC
7FE00000000FF8
7FF00000001FF8
7FF80000003FF8
3FFC0000007FF0
3FFF000001FFF0
1FFFF0001FFFE0
0FFFFFFFFFFFE0
0FFFFFFFFFFFC0
07FFFFFFFFFF80
03FFFFFFFFFF00
00FFFFFFFFFE00
007FFFFFFFF800
001FFFFFFFE000
0003FFFFFF0000
00000FFFE00000
ENDCHAR
STARTCHAR Yacute
ENCODING 221
SWIDTH 926 0
DWIDTH 65 0
BBX 63 64 1 0
BITMAP
0000000000200000
0000000001E00000
000000000FE00000
000000007FE00000
00000007FFE00000
0000003FFFE00000
0000007FFF000000
0000007FF0000000
0000007E00000000
0000004000000000
0000000000000000
0000000000000000
0000000000000000
FFF0000000001FFE
7FF8000000003FFC
3FFC000000007FF8
1FFE000000007FF0
0FFF00000000FFE0
07FF80000001FFC0
07FF80000003FF80
03FFC0000007FF80
01FFE000000FFF00
00FFF000000FFE00
007FF800001FFC00
003FFC00003FF800
001FFC00007FF000
001FFE0000FFE000
000FFF0001FFE000
0007FF8003FFC000
0003FFC003FF8000
0001FFE007FF0000
0000FFE00FFE0000
00007FF01FFC0000
00007FF83FF80000
00003FFC7FF80000
00001FFE7FF00000
00000FFFFFE00000
000007FFFFC00000
000003FFFF800000
000001FFFF000000
000001FFFE000000
000000FFFE000000
0000007FFC000000
0000003FF8000000
0000001FF0000000
0000001FF0000000
0000001FF0000000
0000001FF0000000
0000001FF0000000
0000001FF0000000
0000001FF0000000
0000001FF0000000
0000001FF0000000
0000001FF0000000
0000001FF0000000
0000001FF0000000
0000001FF0000000
0000001FF0000000
0000001FF0000000
0000001FF0000000
0000001FF0000000
0000001FF0000000
0000001FF0000000
0000001FF0000000
ENDCHAR
STARTCHAR Thorn
ENCODING 222
SWIDTH 843 0
DWIDTH 59 0
BBX 53 51 4 0
BITMAP
FF800000000000
FF800000000000
FF800000000000
FF800000000000
FF800000000000
FF800000000000
FF800000000000
FFFFFFFFFE0000
FFFFFFFFFFC000
FFFFFFFFFFF000
FFFFFFFFFFFC00
FFFFFFFFFFFE00
FFFFFFFFFFFF00
FFFFFFFFFFFF80
FFFFFFFFFFFFC0
FFFFFFFFFFFFE0
FF80000003FFE0
FF80000000FFE0
FF800000007FF0
FF800000003FF0
FF800000001FF0
FF800000001FF8
FF800000000FF8
FF800000000FF8
FF800000000FF8
FF800000000FF8
FF800000000FF8
FF800000000FF8
FF800000000FF8
FF800000000FF8
FF800000001FF8
FF800000001FF0
FF800000003FF0
FF800000007FF0
FF80000000FFE0
FF80000003FFE0
FF80FFFFFFFFC0
FF80FFFFFFFFC0
FF80FFFFFFFF80
FF80FFFFFFFF00
FF80FFFFFFFE00
FF80FFFFFFFC00
FF80FFFFFFF000
FF80FFFFFFC000
FF80FFFFFE0000
FF800000000000
FF800000000000
FF800000000000
FF800000000000
FF800000000000
FF800000000000
ENDCHAR
STARTCHAR germandbls
ENCODING 223
SWIDTH 1760 0
DWIDTH 123 0
BBX 116 51 4 0
BITMAP
001FFFFFFFFFF00000FFFFFFFFFF80
00FFFFFFFFFFF00007FFFFFFFFFF80
03FFFFFFFFFFF0001FFFFFFFFFFF80
0FFFFFFFFFFFF0003FFFFFFFFFFF80
1FFFFFFFFFFFF0007FFFFFFFFFFF80
3FFFFFFFFFFFF000FFFFFFFFFFFF80
3FFFFFFFFFFFF001FFFFFFFFFFFF80
7FFFFFFFFFFFF001FFFFFFFFFFFF80
7FFFFFFFFFFFF003FFFFFFFFFFFF80
FFF0000000000003FFC00000000000
FFE0000000000003FF000000000000
FFC0000000000007FE000000000000
FF80000000000007FE000000000000
FF80000000000007FE000000000000
FF80000000000007FC000000000000
FF80000000000007FC000000000000
FF80000000000007FE000000000000
FF80000000000003FE000000000000
FFC0000000000003FE000000000000
FFE0000000000003FF000000000000
7FF0000000000003FFC00000000000
7FFFFFFFFFF00001FFFFFFFFFF8000
3FFFFFFFFFFE0001FFFFFFFFFFF800
1FFFFFFFFFFF8000FFFFFFFFFFFC00
1FFFFFFFFFFFC0007FFFFFFFFFFF00
0FFFFFFFFFFFE0003FFFFFFFFFFF80
03FFFFFFFFFFF0001FFFFFFFFFFFC0
00FFFFFFFFFFF80007FFFFFFFFFFC0
001FFFFFFFFFF80000FFFFFFFFFFE0
00000000003FF8000000000000FFE0
00000000000FFC0000000000007FE0
000000000007FC0000000000003FF0
000000000007FC0000000000001FF0
000000000003FC0000000000001FF0
000000000003FC0000000000000FF0
000000000003FC0000000000000FF0
000000000003FC0000000000001FF0
000000000003FC0000000000001FF0
000000000007FC0000000000001FF0
000000000007FC0000000000003FF0
00000000000FFC0000000000007FE0
00000000003FFC000000000000FFE0
FFFFFFFFFFFFF803FFFFFFFFFFFFE0
FFFFFFFFFFFFF803FFFFFFFFFFFFC0
FFFFFFFFFFFFF003FFFFFFFFFFFFC0
FFFFFFFFFFFFF003FFFFFFFFFFFF80
FFFFFFFFFFFFE003FFFFFFFFFFFF00
FFFFFFFFFFFFC003FFFFFFFFFFFE00
FFFFFFFFFFFF0003FFFFFFFFFFFC00
FFFFFFFFFFFC0003FFFFFFFFFFF000
FFFFFFFFFFE00003FFFFFFFFFF8000
ENDCHAR
STARTCHAR agrave
ENCODING 224
SWIDTH 989 0
DWIDTH 69 0
BBX 67 64 1 0
BITMAP
000002000000000000
000001C00000000000
000001F80000000000
000001FF8000000000
000001FFF000000000
000001FFFE00000000
0000007FFF00000000
00000007FF00000000
000000003F00000000
000000000100000000
000000000000000000
000000000000000000
000000004000000000
00000001F000000000
00000003F800000000
00000007FC00000000
00000007FE00000000
0000000FFE00000000
0000001FFF00000000
0000001FFF00000000
0000003FFF80000000
0000003FFFC0000000
0000007FFFC0000000
000000FFFFE0000000
000000FFFFE0000000
000001FFFFF0000000
000001FF3FF8000000
000003FF1FF8000000
000007FE1FFC000000
000007FE0FFC000000
00000FFC0FFE000000
00000FFC07FF000000
00001FF803FF000000
00003FF003FF800000
00003FF001FF800000
00007FE001FFC00000
00007FE000FFE00000
0000FFC0007FE00000
0001FF80007FF00000
0001FF80003FF00000
0003FF00003FF80000
0007FF00001FFC0000
0007FE00000FFC0000
000FFC00000FFE0000
000FFC07FFFFFE0000
001FF80FFFFFFF0000
003FF81FFFFFFF8000
003FF01FFFFFFF8000
007FE03FFFFFFFC000
007FE03FFFFFFFC000
00FFC07FFFFFFFE000
01FFC00000007FF000
01FF800000003FF000
03FF000000003FF800
03FF000000001FF800
07FE000000001FFC00
0FFE000000000FFE00
0FFC0000000007FE00
1FF80000000007FF00
1FF80000000003FF00
3FF00000000003FF80
7FF00000000001FFC0
7FE00000000000FFC0
FFC00000000000FFE0
ENDCHAR
STARTCHAR aacute
ENCODING 225
SWIDTH 989 0
DWIDTH 69 0
BBX 67 64 1 0
BITMAP
000000000008000000
000000000078000000
0000000003F8000000
000000003FF8000000
00000001FFF8000000
0000000FFFF8000000
0000001FFFC0000000
0000001FFC00000000
0000001F8000000000
000000100000000000
000000000000000000
000000000000000000
000000004000000000
00000001F000000000
00000003F800000000
00000007FC00000000
00000007FE00000000
0000000FFE00000000
0000001FFF00000000
0000001FFF00000000
0000003FFF80000000
0000003FFFC0000000
0000007FFFC0000000
000000FFFFE0000000
000000FFFFE0000000
000001FFFFF0000000
000001FF3FF8000000
000003FF1FF8000000
000007FE1FFC000000
000007FE0FFC000000
00000FFC0FFE000000
00000FFC07FF000000
00001FF803FF000000
00003FF003FF800000
00003FF001FF800000
00007FE001FFC00000
00007FE000FFE00000
0000FFC0007FE00000
0001FF80007FF00000
0001FF80003FF00000
0003FF00003FF80000
0007FF00001FFC0000
0007FE00000FFC0000
000FFC00000FFE0000
000FFC07FFFFFE0000
001FF80FFFFFFF0000
003FF81FFFFFFF8000
003FF01FFFFFFF8000
007FE03FFFFFFFC000
007FE03FFFFFFFC000
00FFC07FFFFFFFE000
01FFC00000007FF000
01FF800000003FF000
03FF000000003FF800
03FF000000001FF800
07FE000000001FFC00
0FFE000000000FFE00
0FFC0000000007FE00
1FF80000000007FF00
1FF80000000003FF00
3FF00000000003FF80
7FF00000000001FFC0
7FE00000000000FFC0
FFC00000000000FFE0
ENDCHAR
STARTCHAR acircumflex
ENCODING 226
SWIDTH 989 0
DWIDTH 69 0
BBX 67 64 1 0
BITMAP
00000003F800000000
00000003FC00000000
00000007FC00000000
0000000FBE00000000
0000000F1F00000000
0000001F1F00000000
0000003E0F80000000
0000003C07C0000000
0000007C07C0000000
000000F803E0000000
000000000000000000
000000000000000000
000000004000000000
00000001F000000000
00000003F800000000
00000007FC00000000
00000007FE00000000
0000000FFE00000000
0000001FFF00000000
0000001FFF00000000
0000003FFF80000000
0000003FFFC0000000
0000007FFFC0000000
000000FFFFE0000000
000000FFFFE0000000
000001FFFFF0000000
000001FF3FF8000000
000003FF1FF8000000
000007FE1FFC000000
000007FE0FFC000000
00000FFC0FFE000000
00000FFC07FF000000
00001FF803FF000000
00003FF003FF800000
00003FF001FF800000
00007FE001FFC00000
00007FE000FFE00000
0000FFC0007FE00000
0001FF80007FF00000
0001FF80003FF00000
0003FF00003FF80000
0007FF00001FFC0000
0007FE00000FFC0000
000FFC00000FFE0000
000FFC07FFFFFE0000
001FF80FFFFFFF0000
003FF81FFFFFFF8000
003FF01FFFFFFF8000
007FE03FFFFFFFC000
007FE03FFFFFFFC000
00FFC07FFFFFFFE000
01FFC00000007FF000
01FF800000003FF000
03FF000000003FF800
03FF000000001FF800
07FE000000001FFC00
0FFE000000000FFE00
0FFC0000000007FE00
1FF80000000007FF00
1FF80000000003FF00
3FF00000000003FF80
7FF00000000001FFC0
7FE00000000000FFC0
FFC00000000000FFE0
ENDCHAR
STARTCHAR atilde
ENCODING 227
SWIDTH 989 0
DWIDTH 69 0
BBX 67 63 1 0
BITMAP
0000001E0020000000
0000007FC060000000
0000007FF0E0000000
0000007FFFE0000000
00000061FFE0000000
000000403FC0000000
000000800F00000000
000000000000000000
000000000000000000
000000000000000000
000000000000000000
000000004000000000
00000001F000000000
00000003F800000000
00000007FC00000000
00000007FE00000000
0000000FFE00000000
0000001FFF00000000
0000001FFF00000000
0000003FFF80000000
0000003FFFC0000000
0000007FFFC0000000
000000FFFFE0000000
000000FFFFE0000000
000001FFFFF0000000
000001FF3FF8000000
000003FF1FF8000000
000007FE1FFC000000
000007FE0FFC000000
00000FFC0FFE000000
00000FFC07FF000000
00001FF803FF000000
00003FF003FF800000
00003FF001FF800000
00007FE001FFC00000
00007FE000FFE00000
0000FFC0007FE00000
0001FF80007FF00000
0001FF80003FF00000
0003FF00003FF80000
0007FF00001FFC0000
0007FE00000FFC0000
000FFC00000FFE0000
000FFC07FFFFFE0000
001FF80FFFFFFF0000
003FF81FFFFFFF8000
003FF01FFFFFFF8000
007FE03FFFFFFFC000
007FE03FFFFFFFC000
00FFC07FFFFFFFE000
01FFC00000007FF000
01FF800000003FF000
03FF000000003FF800
03FF000000001FF800
07FE000000001FFC00
0FFE000000000FFE00
0FFC0000000007FE00
1FF80000000007FF00
1FF80000000003FF00
3FF00000000003FF80
7FF00000000001FFC0
7FE00000000000FFC0
FFC00000000000FFE0
ENDCHAR
STARTCHAR adieresis
ENCODING 228
SWIDTH 989 0
DWIDTH 69 0
BBX 67 62 1 0
BITMAP
0000007803C0000000
000000FC07E0000000
000000FE07F0000000
000000FE07F0000000
000000FC07E0000000
0000007803C0000000
000000000000000000
000000000000000000
000000000000000000
000000000000000000
000000004000000000
00000001F000000000
00000003F800000000
00000007FC00000000
00000007FE00000000
0000000FFE00000000
0000001FFF00000000
0000001FFF00000000
0000003FFF80000000
0000003FFFC0000000
0000007FFFC0000000
000000FFFFE0000000
000000FFFFE0000000
000001FFFFF0000000
000001FF3FF8000000
000003FF1FF8000000
000007FE1FFC000000
000007FE0FFC000000
00000FFC0FFE000000
00000FFC07FF000000
00001FF803FF000000
00003FF003FF800000
00003FF001FF800000
00007FE001FFC00000
00007FE000FFE00000
0000FFC0007FE00000
0001FF80007FF00000
0001FF80003FF00000
0003FF00003FF80000
0007FF00001FFC0000
0007FE00000FFC0000
000FFC00000FFE0000
000FFC07FFFFFE0000
001FF80FFFFFFF0000
003FF81FFFFFFF8000
003FF01FFFFFFF8000
007FE03FFFFFFFC000
007FE03FFFFFFFC000
00FFC07FFFFFFFE000
01FFC00000007FF000
01FF800000003FF000
03FF000000003FF800
03FF000000001FF800
07FE000000001FFC00
0FFE000000000FFE00
0FFC0000000007FE00
1FF80000000007FF00
1FF80000000003FF00
3FF00000000003FF80
7FF00000000001FFC0
7FE00000000000FFC0
FFC00000000000FFE0
ENDCHAR
STARTCHAR aring
ENCODING 229
SWIDTH 989 0
DWIDTH 69 0
BBX 67 68 1 0
BITMAP
00000007FC00000000
0000001FFF00000000
0000003FFF80000000
0000007803C0000000
0000007001C0000000
0000007000C0000000
0000006000E0000000
0000006000E0000000
0000007000C0000000
0000007001C0000000
0000007803C0000000
0000003FFF80000000
0000001FFF00000000
00000007FC00000000
000000000000000000
000000000000000000
000000004000000000
00000001F000000000
00000003F800000000
00000007FC00000000
00000007FE00000000
0000000FFE00000000
0000001FFF00000000
0000001FFF00000000
0000003FFF80000000
0000003FFFC0000000
0000007FFFC0000000
000000FFFFE0000000
000000FFFFE0000000
000001FFFFF0000000
000001FF3FF8000000
000003FF1FF8000000
000007FE1FFC000000
000007FE0FFC000000
00000FFC0FFE000000
00000FFC07FF000000
00001FF803FF000000
00003FF003FF800000
00003FF001FF800000
00007FE001FFC00000
00007FE000FFE00000
0000FFC0007FE00000
0001FF80007FF00000
0001FF80003FF00000
0003FF00003FF80000
0007FF00001FFC0000
0007FE00000FFC0000
000FFC00000FFE0000
000FFC07FFFFFE0000
001FF80FFFFFFF0000
003FF81FFFFFFF8000
003FF01FFFFFFF8000
007FE03FFFFFFFC000
007FE03FFFFFFFC000
00FFC07FFFFFFFE000
01FFC00000007FF000
01FF800000003FF000
03FF000000003FF800
03FF000000001FF800
07FE000000001FFC00
0FFE000000000FFE00
0FFC0000000007FE00
1FF80000000007FF00
1FF80000000003FF00
3FF00000000003FF80
7FF00000000001FFC0
7FE00000000000FFC0
FFC00000000000FFE0
ENDCHAR
STARTCHAR ae
ENCODING 230
SWIDTH 1345 0
DWIDTH 94 0
BBX 90 51 1 0
BITMAP
00000003FFFFFFFFFFFFFFC0
00000007FFFFFFFFFFFFFFC0
0000000FFFFFFFFFFFFFFFC0
0000000FFFFFFFFFFFFFFFC0
0000001FFFFFFFFFFFFFFFC0
0000003FFFFFFFFFFFFFFFC0
0000003FFFFFFFFFFFFFFFC0
0000007FFFFFFFFFFFFFFFC0
0000007FFFFFFFFFFFFFFFC0
000000FFC001FF0000000000
000001FF8001FF0000000000
000001FF0001FF0000000000
000003FF0001FF0000000000
000003FE0001FF0000000000
000007FE0001FF0000000000
000007FC0001FF0000000000
00000FFC0001FF0000000000
00001FF80001FF0000000000
00001FF00001FF0000000000
00003FF00001FF0000000000
00003FE00001FF0000000000
00007FE00001FF01FFFFFF00
00007FC00001FF01FFFFFF00
0000FFC00001FF01FFFFFF00
0001FF800001FF01FFFFFF00
0001FF800001FF01FFFFFF00
0003FF000001FF01FFFFFF00
0003FE000001FF01FFFFFF00
0007FE000001FF01FFFFFF00
000FFC000001FF0000000000
000FFC000001FF0000000000
001FF80FFFFFFF0000000000
001FF80FFFFFFF0000000000
003FF01FFFFFFF0000000000
003FE03FFFFFFF0000000000
007FE03FFFFFFF0000000000
00FFC07FFFFFFF0000000000
00FFC0FFFFFFFF0000000000
01FF80000001FF0000000000
01FF80000001FF0000000000
03FF00000001FF0000000000
07FE00000001FF0000000000
07FE00000001FFFFFFFFFFC0
0FFC00000001FFFFFFFFFFC0
0FFC00000001FFFFFFFFFFC0
1FF800000001FFFFFFFFFFC0
1FF800000001FFFFFFFFFFC0
3FF000000001FFFFFFFFFFC0
7FE000000001FFFFFFFFFFC0
7FE000000001FFFFFFFFFFC0
FFC000000001FFFFFFFFFFC0
ENDCHAR
STARTCHAR ccedilla
ENCODING 231
SWIDTH 829 0
DWIDTH 58 0
BBX 52 65 3 -14
BITMAP
00001FFFFFFFF0
0000FFFFFFFFF0
0007FFFFFFFFF0
001FFFFFFFFFF0
003FFFFFFFFFF0
00FFFFFFFFFFF0
01FFFFFFFFFFF0
03FFFFFFFFFFF0
07FFFFFFFFFFF0
07FFF000000000
0FFFC000000000
1FFF0000000000
1FFC0000000000
3FF80000000000
3FF00000000000
7FF00000000000
7FE00000000000
7FE00000000000
7FC00000000000
FFC00000000000
FF800000000000
FF800000000000
FF800000000000
FF800000000000
FF800000000000
FF800000000000
FF800000000000
FF800000000000
FF800000000000
FF800000000000
FF800000000000
7FC00000000000
7FC00000000000
7FE00000000000
7FE00000000000
3FF00000000000
3FF80000000000
1FF80000000000
1FFE0000000000
0FFF0000000000
0FFFC000000000
07FFF000000000
03FFFFFFFFFFF0
01FFFFFFFFFFF0
00FFFFFFFFFFF0
007FFFFFFFFFF0
003FFFFFFFFFF0
000FFFFFFFFFF0
0003FFFFFFFFF0
0000FFFFFFFFF0
00001FFFFFFFF0
00000000000000
00000000000000
00000000000000
000001FF000000
000001FE000000
000000FE000000
000000FE000000
0000007C000000
0000007C000000
00000038000000
00000038000000
00000030000000
00000010000000
00000010000000
ENDCHAR
STARTCHAR egrave
ENCODING 232
SWIDTH 759 0
DWIDTH 53 0
BBX 46 64 4 0
BITMAP
001000000000
001E00000000
001FC0000000
001FFC000000
001FFF800000
001FFFF00000
0003FFF80000
00001FF80000
000001F80000
000000080000
000000000000
000000000000
000000000000
FFFFFFFFFFFC
FFFFFFFFFFFC
FFFFFFFFFFFC
FFFFFFFFFFFC
FFFFFFFFFFFC
FFFFFFFFFFFC
FFFFFFFFFFFC
FFFFFFFFFFFC
FFFFFFFFFFFC
FF8000000000
FF8000000000
FF8000000000
FF8000000000
FF8000000000
FF8000000000
FF8000000000
FF8000000000
FF8000000000
FF8000000000
FF8000000000
FF8000000000
FF80FFFFFFF0
FF80FFFFFFF0
FF80FFFFFFF0
FF80FFFFFFF0
FF80FFFFFFF0
FF80FFFFFFF0
FF80FFFFFFF0
FF80FFFFFFF0
FF8000000000
FF8000000000
FF8000000000
FF8000000000
FF8000000000
FF8000000000
FF8000000000
FF8000000000
FF8000000000
FF8000000000
FF8000000000
FF8000000000
FF8000000000
FFFFFFFFFFFC
FFFFFFFFFFFC
FFFFFFFFFFFC
FFFFFFFFFFFC
FFFFFFFFFFFC
FFFFFFFFFFFC
FFFFFFFFFFFC
FFFFFFFFFFFC
FFFFFFFFFFFC
ENDCHAR
STARTCHAR eacute
ENCODING 233
SWIDTH 759 0
DWIDTH 53 0
BBX 46 64 4 0
BITMAP
000000004000
00000003C000
0000001FC000
000001FFC000
00000FFFC000
00007FFFC000
0000FFFE0000
0000FFE00000
0000FC000000
000080000000
000000000000
000000000000
000000000000
FFFFFFFFFFFC
FFFFFFFFFFFC
FFFFFFFFFFFC
FFFFFFFFFFFC
FFFFFFFFFFFC
FFFFFFFFFFFC
FFFFFFFFFFFC
FFFFFFFFFFFC
FFFFFFFFFFFC
FF8000000000
FF8000000000
FF8000000000
FF8000000000
FF8000000000
FF8000000000
FF8000000000
FF8000000000
FF8000000000
FF8000000000
FF8000000000
FF8000000000
FF80FFFFFFF0
FF80FFFFFFF0
FF80FFFFFFF0
FF80FFFFFFF0
FF80FFFFFFF0
FF80FFFFFFF0
FF80FFFFFFF0
FF80FFFFFFF0
FF8000000000
FF8000000000
FF8000000000
FF8000000000
FF8000000000
FF8000000000
FF8000000000
FF8000000000
FF8000000000
FF8000000000
FF8000000000
FF8000000000
FF8000000000
FFFFFFFFFFFC
FFFFFFFFFFFC
FFFFFFFFFFFC
FFFFFFFFFFFC
FFFFFFFFFFFC
FFFFFFFFFFFC
FFFFFFFFFFFC
FFFFFFFFFFFC
FFFFFFFFFFFC
ENDCHAR
STARTCHAR ecircumflex
ENCODING 234
SWIDTH 759 0
DWIDTH 53 0
BBX 46 64 4 0
BITMAP
00001FC00000
00003FE00000
00003FE00000
00007DF00000
000078F80000
0000F8F80000
0001F07C0000
0001E03E0000
0003E03E0000
0007C01F0000
000000000000
000000000000
000000000000
FFFFFFFFFFFC
FFFFFFFFFFFC
FFFFFFFFFFFC
FFFFFFFFFFFC
FFFFFFFFFFFC
FFFFFFFFFFFC
FFFFFFFFFFFC
FFFFFFFFFFFC
FFFFFFFFFFFC
FF8000000000
FF8000000000
FF8000000000
FF8000000000
FF8000000000
FF8000000000
FF8000000000
FF8000000000
FF8000000000
FF8000000000
FF8000000000
FF8000000000
FF80FFFFFFF0
FF80FFFFFFF0
FF80FFFFFFF0
FF80FFFFFFF0
FF80FFFFFFF0
FF80FFFFFFF0
FF80FFFFFFF0
FF80FFFFFFF0
FF8000000000
FF8000000000
FF8000000000
FF8000000000
FF8000000000
FF8000000000
FF8000000000
FF8000000000
FF8000000000
FF8000000000
FF8000000000
FF8000000000
FF8000000000
FFFFFFFFFFFC
FFFFFFFFFFFC
FFFFFFFFFFFC
FFFFFFFFFFFC
FFFFFFFFFFFC
FFFFFFFFFFFC
FFFFFFFFFFFC
FFFFFFFFFFFC
FFFFFFFFFFFC
ENDCHAR
STARTCHAR edieresis
ENCODING 235
SWIDTH 759 0
DWIDTH 53 0
BBX 46 62 4 0
BITMAP
0003C01E0000
0007E03F0000
0007F07F8000
0007F03F8000
0007E03F0000
0003C01E0000
000000000000
000000000000
000000000000
000000000000
000000000000
FFFFFFFFFFFC
FFFFFFFFFFFC
FFFFFFFFFFFC
FFFFFFFFFFFC
FFFFFFFFFFFC
FFFFFFFFFFFC
FFFFFFFFFFFC
FFFFFFFFFFFC
FFFFFFFFFFFC
FF8000000000
FF8000000000
FF8000000000
FF8000000000
FF8000000000
FF8000000000
FF8000000000
FF8000000000
FF8000000000
FF8000000000
FF8000000000
FF8000000000
FF80FFFFFFF0
FF80FFFFFFF0
FF80FFFFFFF0
FF80FFFFFFF0
FF80FFFFFFF0
FF80FFFFFFF0
FF80FFFFFFF0
FF80FFFFFFF0
FF8000000000
FF8000000000
FF8000000000
FF8000000000
FF8000000000
FF8000000000
FF8000000000
FF8000000000
FF8000000000
FF8000000000
FF8000000000
FF8000000000
FF8000000000
FFFFFFFFFFFC
FFFFFFFFFFFC
FFFFFFFFFFFC
FFFFFFFFFFFC
FFFFFFFFFFFC
FFFFFFFFFFFC
FFFFFFFFFFFC
FFFFFFFFFFFC
FFFFFFFFFFFC
ENDCHAR
STARTCHAR igrave
ENCODING 236
SWIDTH 267 0
DWIDTH 19 0
BBX 18 64 -2 0
BITMAP
800000
F00000
FE0000
FFE000
FFFC00
FFFF80
1FFFC0
01FFC0
000FC0
000040
000000
000000
000000
01FF00
01FF00
01FF00
01FF00
01FF00
01FF00
01FF00
01FF00
01FF00
01FF00
01FF00
01FF00
01FF00
01FF00
01FF00
01FF00
01FF00
01FF00
01FF00
01FF00
01FF00
01FF00
01FF00
01FF00
01FF00
01FF00
01FF00
01FF00
01FF00
01FF00
01FF00
01FF00
01FF00
01FF00
01FF00
01FF00
01FF00
01FF00
01FF00
01FF00
01FF00
01FF00
01FF00
01FF00
01FF00
01FF00
01FF00
01FF00
01FF00
01FF00
01FF00
ENDCHAR
STARTCHAR iacute
ENCODING 237
SWIDTH 267 0
DWIDTH 19 0
BBX 18 64 3 0
BITMAP
000040
0003C0
001FC0
01FFC0
0FFFC0
7FFFC0
FFFE00
FFC000
FC0000
800000
000000
000000
000000
3FE000
3FE000
3FE000
3FE000
3FE000
3FE000
3FE000
3FE000
3FE000
3FE000
3FE000
3FE000
3FE000
3FE000
3FE000
3FE000
3FE000
3FE000
3FE000
3FE000
3FE000
3FE000
3FE000
3FE000
3FE000
3FE000
3FE000
3FE000
3FE000
3FE000
3FE000
3FE000
3FE000
3FE000
3FE000
3FE000
3FE000
3FE000
3FE000
3FE000
3FE000
3FE000
3FE000
3FE000
3FE000
3FE000
3FE000
3FE000
3FE000
3FE000
3FE000
ENDCHAR
STARTCHAR icircumflex
ENCODING 238
SWIDTH 267 0
DWIDTH 19 0
BBX 19 64 0 0
BITMAP
03F800
07F800
07FC00
0FBE00
1F1E00
1F1F00
3E0F80
7C0F80
7C07C0
F803E0
000000
000000
000000
07FC00
07FC00
07FC00
07FC00
07FC00
07FC00
07FC00
07FC00
07FC00
07FC00
07FC00
07FC00
07FC00
07FC00
07FC00
07FC00
07FC00
07FC00
07FC00
07FC00
07FC00
07FC00
07FC00
07FC00
07FC00
07FC00
07FC00
07FC00
07FC00
07FC00
07FC00
07FC00
07FC00
07FC00
07FC00
07FC00
07FC00
07FC00
07FC00
07FC00
07FC00
07FC00
07FC00
07FC00
07FC00
07FC00
07FC00
07FC00
07FC00
07FC00
07FC00
ENDCHAR
STARTCHAR idieresis
ENCODING 239
SWIDTH 267 0
DWIDTH 19 0
BBX 20 62 -1 0
BITMAP
3C01E0
7E03F0
FE07F0
FF07F0
7E03F0
3C01E0
000000
000000
000000
000000
000000
03FE00
03FE00
03FE00
03FE00
03FE00
03FE00
03FE00
03FE00
03FE00
03FE00
03FE00
03FE00
03FE00
03FE00
03FE00
03FE00
03FE00
03FE00
03FE00
03FE00
03FE00
03FE00
03FE00
03FE00
03FE00
03FE00
03FE00
03FE00
03FE00
03FE00
03FE00
03FE00
03FE00
03FE00
03FE00
03FE00
03FE00
03FE00
03FE00
03FE00
03FE00
03FE00
03FE00
03FE00
03FE00
03FE00
03FE00
03FE00
03FE00
03FE00
03FE00
ENDCHAR
STARTCHAR eth
ENCODING 240
SWIDTH 877 0
DWIDTH 61 0
BBX 58 51 1 0
BITMAP
1FFFFFFFFC000000
1FFFFFFFFFC00000
1FFFFFFFFFF00000
1FFFFFFFFFFC0000
1FFFFFFFFFFF0000
1FFFFFFFFFFF8000
1FFFFFFFFFFFC000
1FFFFFFFFFFFE000
1FFFFFFFFFFFF000
1FF0000007FFF800
1FF0000000FFF800
1FF00000003FFC00
1FF00000001FFE00
1FF00000000FFE00
1FF000000007FF00
1FF000000003FF00
1FF000000003FF00
1FF000000001FF80
1FF000000001FF80
1FF000000000FF80
1FF000000000FF80
FFFFFFFF0000FF80
FFFFFFFF0000FF80
FFFFFFFF00007FC0
FFFFFFFF00007FC0
FFFFFFFF00007FC0
FFFFFFFF00007FC0
FFFFFFFF0000FF80
FFFFFFFF0000FF80
1FF000000000FF80
1FF000000000FF80
1FF000000000FF80
1FF000000001FF80
1FF000000001FF00
1FF000000003FF00
1FF000000003FF00
1FF000000007FE00
1FF00000000FFE00
1FF00000001FFC00
1FF00000003FFC00
1FF0000000FFF800
1FF0000007FFF000
1FFFFFFFFFFFF000
1FFFFFFFFFFFE000
1FFFFFFFFFFFC000
1FFFFFFFFFFF0000
1FFFFFFFFFFE0000
1FFFFFFFFFFC0000
1FFFFFFFFFF00000
1FFFFFFFFF800000
1FFFFFFFFC000000
ENDCHAR
STARTCHAR ntilde
ENCODING 241
SWIDTH 873 0
DWIDTH 61 0
BBX 53 63 4 0
BITMAP
00000F00100000
00003FC0200000
00003FF8600000
00003FFFE00000
000030FFE00000
0000203FE00000
0000400F800000
00000000000000
00000000000000
00000000000000
00000000000000
00000000000000
1E000000000FF8
7F000000000FF8
7F800000000FF8
FFC00000000FF8
FFE00000000FF8
FFF00000000FF8
FFF80000000FF8
FFFC0000000FF8
FFFE0000000FF8
FFFF0000000FF8
FFFF8000000FF8
FFFFC000000FF8
FFFFE000000FF8
FFFFF000000FF8
FFFFF800000FF8
FFBFFC00000FF8
FF9FFE00000FF8
FF8FFF00000FF8
FF87FFC0000FF8
FF83FFE0000FF8
FF81FFF0000FF8
FF80FFF8000FF8
FF807FFC000FF8
FF803FFE000FF8
FF801FFF000FF8
FF800FFF800FF8
FF8007FFC00FF8
FF8003FFE00FF8
FF8001FFF00FF8
FF8000FFF80FF8
FF80007FFC0FF8
FF80003FFE0FF8
FF80001FFF0FF8
FF80000FFF8FF8
FF800007FFCFF8
FF800003FFEFF8
FF800001FFFFF8
FF800000FFFFF8
FF8000007FFFF8
FF8000001FFFF8
FF8000000FFFF8
FF80000007FFF8
FF80000003FFF8
FF80000001FFF8
FF80000000FFF8
FF800000007FF8
FF800000003FF8
FF800000001FF8
FF800000000FF0
FF8000000007F0
FF8000000003E0
ENDCHAR
STARTCHAR ograve
ENCODING 242
SWIDTH 968 0
DWIDTH 68 0
BBX 62 64 3 0
BITMAP
0000100000000000
00000E0000000000
00000FE000000000
00000FFC00000000
00000FFF80000000
00000FFFF8000000
000003FFFC000000
0000001FFC000000
00000001FC000000
000000000C000000
0000000000000000
0000000000000000
0000000000000000
00001FFFFFE00000
0000FFFFFFFC0000
0007FFFFFFFF8000
001FFFFFFFFFE000
003FFFFFFFFFF000
00FFFFFFFFFFF800
01FFFFFFFFFFFE00
03FFFFFFFFFFFF00
07FFFFFFFFFFFF00
07FFF000007FFF80
0FFFC000000FFFC0
1FFF00000003FFE0
1FFC00000001FFE0
3FF800000000FFF0
3FF0000000007FF0
7FF0000000003FF0
7FE0000000001FF8
7FE0000000001FF8
7FC0000000000FF8
FFC0000000000FF8
FF80000000000FFC
FF800000000007FC
FF800000000007FC
FF800000000007FC
FF800000000007FC
FF800000000007FC
FF800000000007FC
FF800000000007FC
FF800000000007FC
FF800000000007FC
FF80000000000FF8
7FC0000000000FF8
7FC0000000000FF8
7FE0000000001FF8
7FE0000000001FF0
3FF0000000003FF0
3FF8000000007FF0
1FF800000000FFE0
1FFE00000001FFE0
0FFF00000003FFC0
0FFFC000000FFF80
07FFF000003FFF80
03FFFFFFFFFFFF00
01FFFFFFFFFFFE00
00FFFFFFFFFFFC00
007FFFFFFFFFF800
003FFFFFFFFFF000
000FFFFFFFFFC000
0003FFFFFFFF0000
0000FFFFFFFC0000
00001FFFFFC00000
ENDCHAR
STARTCHAR oacute
ENCODING 243
SWIDTH 968 0
DWIDTH 68 0
BBX 62 64 3 0
BITMAP
0000000000400000
0000000003C00000
000000001FC00000
00000000FFC00000
0000000FFFC00000
0000007FFFC00000
000000FFFF000000
000000FFE0000000
000000FC00000000
000000C000000000
0000000000000000
0000000000000000
0000000000000000
00001FFFFFE00000
0000FFFFFFFC0000
0007FFFFFFFF8000
001FFFFFFFFFE000
003FFFFFFFFFF000
00FFFFFFFFFFF800
01FFFFFFFFFFFE00
03FFFFFFFFFFFF00
07FFFFFFFFFFFF00
07FFF000007FFF80
0FFFC000000FFFC0
1FFF00000003FFE0
1FFC00000001FFE0
3FF800000000FFF0
3FF0000000007FF0
7FF0000000003FF0
7FE0000000001FF8
7FE0000000001FF8
7FC0000000000FF8
FFC0000000000FF8
FF80000000000FFC
FF800000000007FC
FF800000000007FC
FF800000000007FC
FF800000000007FC
FF800000000007FC
FF800000000007FC
FF800000000007FC
FF800000000007FC
FF800000000007FC
FF80000000000FF8
7FC0000000000FF8
7FC0000000000FF8
7FE0000000001FF8
7FE0000000001FF0
3FF0000000003FF0
3FF8000000007FF0
1FF800000000FFE0
1FFE00000001FFE0
0FFF00000003FFC0
0FFFC000000FFF80
07FFF000003FFF80
03FFFFFFFFFFFF00
01FFFFFFFFFFFE00
00FFFFFFFFFFFC00
007FFFFFFFFFF800
003FFFFFFFFFF000
000FFFFFFFFFC000
0003FFFFFFFF0000
0000FFFFFFFC0000
00001FFFFFC00000
ENDCHAR
STARTCHAR ocircumflex
ENCODING 244
SWIDTH 968 0
DWIDTH 68 0
BBX 62 64 3 0
BITMAP
0000001FC0000000
0000001FE0000000
0000003FF0000000
0000007DF0000000
0000007CF8000000
000000F878000000
000000F07C000000
000001F03E000000
000003E01E000000
000007C01F000000
0000000000000000
0000000000000000
0000000000000000
00001FFFFFE00000
0000FFFFFFFC0000
0007FFFFFFFF8000
001FFFFFFFFFE000
003FFFFFFFFFF000
00FFFFFFFFFFF800
01FFFFFFFFFFFE00
03FFFFFFFFFFFF00
07FFFFFFFFFFFF00
07FFF000007FFF80
0FFFC000000FFFC0
1FFF00000003FFE0
1FFC00000001FFE0
3FF800000000FFF0
3FF0000000007FF0
7FF0000000003FF0
7FE0000000001FF8
7FE0000000001FF8
7FC0000000000FF8
FFC0000000000FF8
FF80000000000FFC
FF800000000007FC
FF800000000007FC
FF800000000007FC
FF800000000007FC
FF800000000007FC
FF800000000007FC
FF800000000007FC
FF800000000007FC
FF800000000007FC
FF80000000000FF8
7FC0000000000FF8
7FC0000000000FF8
7FE0000000001FF8
7FE0000000001FF0
3FF0000000003FF0
3FF8000000007FF0
1FF800000000FFE0
1FFE00000001FFE0
0FFF00000003FFC0
0FFFC000000FFF80
07FFF000003FFF80
03FFFFFFFFFFFF00
01FFFFFFFFFFFE00
00FFFFFFFFFFFC00
007FFFFFFFFFF800
003FFFFFFFFFF000
000FFFFFFFFFC000
0003FFFFFFFF0000
0000FFFFFFFC0000
00001FFFFFC00000
ENDCHAR
STARTCHAR otilde
ENCODING 245
SWIDTH 968 0
DWIDTH 68 0
BBX 62 63 3 0
BITMAP
000000F801000000
000001FE01000000
000003FF87000000
000003FFFF000000
00000307FF000000
00000201FE000000
000004007C000000
0000000000000000
0000000000000000
0000000000000000
0000000000000000
0000000000000000
00001FFFFFE00000
0000FFFFFFFC0000
0007FFFFFFFF8000
001FFFFFFFFFE000
003FFFFFFFFFF000
00FFFFFFFFFFF800
01FFFFFFFFFFFE00
03FFFFFFFFFFFF00
07FFFFFFFFFFFF00
07FFF000007FFF80
0FFFC000000FFFC0
1FFF00000003FFE0
1FFC00000001FFE0
3FF800000000FFF0
3FF0000000007FF0
7FF0000000003FF0
7FE0000000001FF8
7FE0000000001FF8
7FC0000000000FF8
FFC0000000000FF8
FF80000000000FFC
FF800000000007FC
FF800000000007FC
FF800000000007FC
FF800000000007FC
FF800000000007FC
FF800000000007FC
FF800000000007FC
FF800000000007FC
FF800000000007FC
FF80000000000FF8
7FC0000000000FF8
7FC0000000000FF8
7FE0000000001FF8
7FE0000000001FF0
3FF0000000003FF0
3FF8000000007FF0
1FF800000000FFE0
1FFE00000001FFE0
0FFF00000003FFC0
0FFFC000000FFF80
07FFF000003FFF80
03FFFFFFFFFFFF00
01FFFFFFFFFFFE00
00FFFFFFFFFFFC00
007FFFFFFFFFF800
003FFFFFFFFFF000
000FFFFFFFFFC000
0003FFFFFFFF0000
0000FFFFFFFC0000
00001FFFFFC00000
ENDCHAR
STARTCHAR odieresis
ENCODING 246
SWIDTH 968 0
DWIDTH 68 0
BBX 62 62 3 0
BITMAP
000003C01E000000
000007F03F800000
000007F03F800000
000007F03F800000
000007F03F000000
000003E01E000000
0000000000000000
0000000000000000
0000000000000000
0000000000000000
0000000000000000
00001FFFFFE00000
0000FFFFFFFC0000
0007FFFFFFFF8000
001FFFFFFFFFE000
003FFFFFFFFFF000
00FFFFFFFFFFF800
01FFFFFFFFFFFE00
03FFFFFFFFFFFF00
07FFFFFFFFFFFF00
07FFF000007FFF80
0FFFC000000FFFC0
1FFF00000003FFE0
1FFC00000001FFE0
3FF800000000FFF0
3FF0000000007FF0
7FF0000000003FF0
7FE0000000001FF8
7FE0000000001FF8
7FC0000000000FF8
FFC0000000000FF8
FF80000000000FFC
FF800000000007FC
FF800000000007FC
FF800000000007FC
FF800000000007FC
FF800000000007FC
FF800000000007FC
FF800000000007FC
FF800000000007FC
FF800000000007FC
FF80000000000FF8
7FC0000000000FF8
7FC0000000000FF8
7FE0000000001FF8
7FE0000000001FF0
3FF0000000003FF0
3FF8000000007FF0
1FF800000000FFE0
1FFE00000001FFE0
0FFF00000003FFC0
0FFFC000000FFF80
07FFF000003FFF80
03FFFFFFFFFFFF00
01FFFFFFFFFFFE00
00FFFFFFFFFFFC00
007FFFFFFFFFF800
003FFFFFFFFFF000
000FFFFFFFFFC000
0003FFFFFFFF0000
0000FFFFFFFC0000
00001FFFFFC00000
ENDCHAR
STARTCHAR divide
ENCODING 247
SWIDTH 690 0
DWIDTH 48 0
BBX 40 47 4 3
BITMAP
00003C0000
00007F0000
0000FF0000
0000FF8000
0001FF8000
0001FF8000
0000FF8000
0000FF0000
00007F0000
00003C0000
0000000000
0000000000
0000000000
0000000000
0000000000
0000000000
0000000000
0000000000
0000000000
0000000000
0000000000
FFFFFFFFFF
FFFFFFFFFF
FFFFFFFFFF
FFFFFFFFFF
FFFFFFFFFF
FFFFFFFFFF
0000000000
0000000000
0000000000
0000000000
0000000000
0000000000
0000000000
0000000000
0000000000
0000000000
00003C0000
00007F0000
0000FF0000
0000FF8000
0001FF8000
0001FF8000
0000FF8000
0000FF0000
00007F0000
00003C0000
ENDCHAR
STARTCHAR oslash
ENCODING 248
SWIDTH 968 0
DWIDTH 68 0
BBX 62 58 3 -4
BITMAP
0000000000000600
0000000000000F00
0000000000001F00
00001FFFFFC03E00
0000FFFFFFFC7C00
0007FFFFFFFFF800
001FFFFFFFFFF000
003FFFFFFFFFF000
00FFFFFFFFFFF800
01FFFFFFFFFFFE00
03FFFFFFFFFFFF00
07FFFFFFFFFFFF00
07FFF000007FFF80
0FFFC000003FFFC0
1FFF0000007FFFC0
1FFC000000F9FFE0
3FF8000001F0FFF0
3FF0000003E07FF0
7FF0000003C03FF0
7FE0000007801FF8
7FE000000F001FF8
7FC000001F000FF8
FFC000003E000FF8
FF8000007C000FFC
FF800000F80007FC
FF800000F00007FC
FF800001E00007FC
FF800003E00007FC
FF800007C00007FC
FF80000F800007FC
FF80001F000007FC
FF80001E000007FC
FF80003C000007FC
FF80007C00000FF8
7FC000F800000FF8
7FC001F000000FF8
7FE003E000001FF8
7FE007C000001FF0
3FF0078000003FF0
3FF00F0000007FF0
1FF81F000000FFE0
1FFC3E000001FFE0
0FFF7C000003FFC0
0FFFF800000FFF80
07FFF000003FFF80
03FFFFFFFFFFFF00
01FFFFFFFFFFFE00
00FFFFFFFFFFFC00
007FFFFFFFFFF800
003FFFFFFFFFF000
003FFFFFFFFFC000
003FFFFFFFFF0000
0078FFFFFFFC0000
00F80FFFFFC00000
01F0000000000000
01E0000000000000
00C0000000000000
0040000000000000
ENDCHAR
STARTCHAR ugrave
ENCODING 249
SWIDTH 889 0
DWIDTH 62 0
BBX 55 65 4 -1
BITMAP
00008000000000
0000E000000000
0000FE00000000
0000FFC0000000
0000FFFC000000
0000FFFF800000
00003FFFC00000
000001FFC00000
0000000FC00000
00000000C00000
00000000000000
00000000000000
00000000000000
FF8000000003FE
FF8000000003FE
FF8000000003FE
FF8000000003FE
FF8000000003FE
FF8000000003FE
FF8000000003FE
FF8000000003FE
FF8000000003FE
FF8000000003FE
FF8000000003FE
FF8000000003FE
FF8000000003FE
FF8000000003FE
FF8000000003FE
FF8000000003FE
FF8000000003FE
FF8000000003FE
FF8000000003FE
FF8000000003FE
FF8000000003FE
FF8000000003FE
FF8000000003FE
FF8000000003FE
FF8000000003FE
FF8000000003FE
FF8000000003FE
FF8000000003FE
FF8000000003FE
FF8000000003FE
FF8000000003FE
FF8000000003FC
FF8000000003FC
FF8000000007FC
FFC000000007FC
FFC000000007FC
FFC00000000FFC
7FE00000000FF8
7FF00000001FF8
7FF80000003FF8
3FFC0000007FF0
3FFF000001FFF0
1FFFF0001FFFE0
0FFFFFFFFFFFE0
0FFFFFFFFFFFC0
07FFFFFFFFFF80
03FFFFFFFFFF00
00FFFFFFFFFE00
007FFFFFFFF800
001FFFFFFFE000
0003FFFFFF0000
00000FFFE00000
ENDCHAR
STARTCHAR uacute
ENCODING 250
SWIDTH 889 0
DWIDTH 62 0
BBX 55 65 4 -1
BITMAP
00000000020000
000000001C0000
00000001FC0000
0000000FFC0000
0000007FFC0000
000007FFFC0000
00000FFFF00000
00000FFE000000
00000FC0000000
00000C00000000
00000000000000
00000000000000
00000000000000
FF8000000003FE
FF8000000003FE
FF8000000003FE
FF8000000003FE
FF8000000003FE
FF8000000003FE
FF8000000003FE
FF8000000003FE
FF8000000003FE
FF8000000003FE
FF8000000003FE
FF8000000003FE
FF8000000003FE
FF8000000003FE
FF8000000003FE
FF8000000003FE
FF8000000003FE
FF8000000003FE
FF8000000003FE
FF8000000003FE
FF8000000003FE
FF8000000003FE
FF8000000003FE
FF8000000003FE
FF8000000003FE
FF8000000003FE
FF8000000003FE
FF8000000003FE
FF8000000003FE
FF8000000003FE
FF8000000003FE
FF8000000003FC
FF8000000003FC
FF8000000007FC
FFC000000007FC
FFC000000007FC
FFC00000000FFC
7FE00000000FF8
7FF00000001FF8
7FF80000003FF8
3FFC0000007FF0
3FFF000001FFF0
1FFFF0001FFFE0
0FFFFFFFFFFFE0
0FFFFFFFFFFFC0
07FFFFFFFFFF80
03FFFFFFFFFF00
00FFFFFFFFFE00
007FFFFFFFF800
001FFFFFFFE000
0003FFFFFF0000
00000FFFE00000
ENDCHAR
STARTCHAR ucircumflex
ENCODING 251
SWIDTH 889 0
DWIDTH 62 0
BBX 55 65 4 -1
BITMAP
000000FE000000
000001FE000000
000003FF000000
000003CF000000
000007CF800000
00000F87C00000
00000F83C00000
00001F03E00000
00001E01F00000
00003E01F80000
00000000000000
00000000000000
00000000000000
FF8000000003FE
FF8000000003FE
FF8000000003FE
FF8000000003FE
FF8000000003FE
FF8000000003FE
FF8000000003FE
FF8000000003FE
FF8000000003FE
FF8000000003FE
FF8000000003FE
FF8000000003FE
FF8000000003FE
FF8000000003FE
FF8000000003FE
FF8000000003FE
FF8000000003FE
FF8000000003FE
FF8000000003FE
FF8000000003FE
FF8000000003FE
FF8000000003FE
FF8000000003FE
FF8000000003FE
FF8000000003FE
FF8000000003FE
FF8000000003FE
FF8000000003FE
FF8000000003FE
FF8000000003FE
FF8000000003FE
FF8000000003FC
FF8000000003FC
FF8000000007FC
FFC000000007FC
FFC000000007FC
FFC00000000FFC
7FE00000000FF8
7FF00000001FF8
7FF80000003FF8
3FFC0000007FF0
3FFF000001FFF0
1FFFF0001FFFE0
0FFFFFFFFFFFE0
0FFFFFFFFFFFC0
07FFFFFFFFFF80
03FFFFFFFFFF00
00FFFFFFFFFE00
007FFFFFFFF800
001FFFFFFFE000
0003FFFFFF0000
00000FFFE00000
ENDCHAR
STARTCHAR udieresis
ENCODING 252
SWIDTH 889 0
DWIDTH 62 0
BBX 55 63 4 -1
BITMAP
00001E01F00000
00007F03F80000
00007F03F80000
00007F03F80000
00007F03F80000
00001E01F00000
00000000000000
00000000000000
00000000000000
00000000000000
00000000000000
FF8000000003FE
FF8000000003FE
FF8000000003FE
FF8000000003FE
FF8000000003FE
FF8000000003FE
FF8000000003FE
FF8000000003FE
FF8000000003FE
FF8000000003FE
FF8000000003FE
FF8000000003FE
FF8000000003FE
FF8000000003FE
FF8000000003FE
FF8000000003FE
FF8000000003FE
FF8000000003FE
FF8000000003FE
FF8000000003FE
FF8000000003FE
FF8000000003FE
FF8000000003FE
FF8000000003FE
FF8000000003FE
FF8000000003FE
FF8000000003FE
FF8000000003FE
FF8000000003FE
FF8000000003FE
FF8000000003FE
FF8000000003FC
FF8000000003FC
FF8000000007FC
FFC000000007FC
FFC000000007FC
FFC00000000FFC
7FE00000000FF8
7FF00000001FF8
7FF80000003FF8
3FFC0000007FF0
3FFF000001FFF0
1FFFF0001FFFE0
0FFFFFFFFFFFE0
0FFFFFFFFFFFC0
07FFFFFFFFFF80
03FFFFFFFFFF00
00FFFFFFFFFE00
007FFFFFFFF800
001FFFFFFFE000
0003FFFFFF0000
00000FFFE00000
ENDCHAR
STARTCHAR yacute
ENCODING 253
SWIDTH 926 0
DWIDTH 65 0
BBX 63 64 1 0
BITMAP
0000000000200000
0000000001E00000
000000000FE00000
000000007FE00000
00000007FFE00000
0000003FFFE00000
0000007FFF000000
0000007FF0000000
0000007E00000000
0000004000000000
0000000000000000
0000000000000000
0000000000000000
FFF0000000001FFE
7FF8000000003FFC
3FFC000000007FF8
1FFE000000007FF0
0FFF00000000FFE0
07FF80000001FFC0
07FF80000003FF80
03FFC0000007FF80
01FFE000000FFF00
00FFF000000FFE00
007FF800001FFC00
003FFC00003FF800
001FFC00007FF000
001FFE0000FFE000
000FFF0001FFE000
0007FF8003FFC000
0003FFC003FF8000
0001FFE007FF0000
0000FFE00FFE0000
00007FF01FFC0000
00007FF83FF80000
00003FFC7FF80000
00001FFE7FF00000
00000FFFFFE00000
000007FFFFC00000
000003FFFF800000
000001FFFF000000
000001FFFE000000
000000FFFE000000
0000007FFC000000
0000003FF8000000
0000001FF0000000
0000001FF0000000
0000001FF0000000
0000001FF0000000
0000001FF0000000
0000001FF0000000
0000001FF0000000
0000001FF0000000
0000001FF0000000
0000001FF0000000
0000001FF0000000
0000001FF0000000
0000001FF0000000
0000001FF0000000
0000001FF0000000
0000001FF0000000
0000001FF0000000
0000001FF0000000
0000001FF0000000
0000001FF0000000
ENDCHAR
STARTCHAR thorn
ENCODING 254
SWIDTH 843 0
DWIDTH 59 0
BBX 53 51 4 0
BITMAP
FF800000000000
FF800000000000
FF800000000000
FF800000000000
FF800000000000
FF800000000000
FF800000000000
FFFFFFFFFE0000
FFFFFFFFFFC000
FFFFFFFFFFF000
FFFFFFFFFFFC00
FFFFFFFFFFFE00
FFFFFFFFFFFF00
FFFFFFFFFFFF80
FFFFFFFFFFFFC0
FFFFFFFFFFFFE0
FF80000003FFE0
FF80000000FFE0
FF800000007FF0
FF800000003FF0
FF800000001FF0
FF800000001FF8
FF800000000FF8
FF800000000FF8
FF800000000FF8
FF800000000FF8
FF800000000FF8
FF800000000FF8
FF800000000FF8
FF800000000FF8
FF800000001FF8
FF800000001FF0
FF800000003FF0
FF800000007FF0
FF80000000FFE0
FF80000003FFE0
FF80FFFFFFFFC0
FF80FFFFFFFFC0
FF80FFFFFFFF80
FF80FFFFFFFF00
FF80FFFFFFFE00
FF80FFFFFFFC00
FF80FFFFFFF000
FF80FFFFFFC000
FF80FFFFFE0000
FF800000000000
FF800000000000
FF800000000000
FF800000000000
FF800000000000
FF800000000000
ENDCHAR
STARTCHAR ydieresis
ENCODING 255
SWIDTH 926 0
DWIDTH 65 0
BBX 63 62 1 0
BITMAP
000001E00F000000
000003F01F800000
000003F81FC00000
000003F81FC00000
000003F01F800000
000001E00F000000
0000000000000000
0000000000000000
0000000000000000
0000000000000000
0000000000000000
FFF0000000001FFE
7FF8000000003FFC
3FFC000000007FF8
1FFE000000007FF0
0FFF00000000FFE0
07FF80000001FFC0
07FF80000003FF80
03FFC0000007FF80
01FFE000000FFF00
00FFF000000FFE00
007FF800001FFC00
003FFC00003FF800
001FFC00007FF000
001FFE0000FFE000
000FFF0001FFE000
0007FF8003FFC000
0003FFC003FF8000
0001FFE007FF0000
0000FFE00FFE0000
00007FF01FFC0000
00007FF83FF80000
00003FFC7FF80000
00001FFE7FF00000
00000FFFFFE00000
000007FFFFC00000
000003FFFF800000
000001FFFF000000
000001FFFE000000
000000FFFE000000
0000007FFC000000
0000003FF8000000
0000001FF0000000
0000001FF0000000
0000001FF0000000
0000001FF0000000
0000001FF0000000
0000001FF0000000
0000001FF0000000
0000001FF0000000
0000001FF0000000
0000001FF0000000
0000001FF0000000
0000001FF0000000
0000001FF0000000
0000001FF0000000
0000001FF0000000
0000001FF0000000
0000001FF0000000
0000001FF0000000
0000001FF0000000
0000001FF0000000
ENDCHAR
STARTCHAR Amacron
ENCODING 256
SWIDTH 989 0
DWIDTH 69 0
BBX 67 61 1 0
BITMAP
0000007FFFE0000000
0000007FFFE0000000
0000007FFFE0000000
0000007FFFE0000000
000000000000000000
000000000000000000
000000000000000000
000000000000000000
000000000000000000
000000004000000000
00000001F000000000
00000003F800000000
00000007FC00000000
00000007FE00000000
0000000FFE00000000
0000001FFF00000000
0000001FFF00000000
0000003FFF80000000
0000003FFFC0000000
0000007FFFC0000000
000000FFFFE0000000
000000FFFFE0000000
000001FFFFF0000000
000001FF3FF8000000
000003FF1FF8000000
000007FE1FFC000000
000007FE0FFC000000
00000FFC0FFE000000
00000FFC07FF000000
00001FF803FF000000
00003FF003FF800000
00003FF001FF800000
00007FE001FFC00000
00007FE000FFE00000
0000FFC0007FE00000
0001FF80007FF00000
0001FF80003FF00000
0003FF00003FF80000
0007FF00001FFC0000
0007FE00000FFC0000
000FFC00000FFE0000
000FFC07FFFFFE0000
001FF80FFFFFFF0000
003FF81FFFFFFF8000
003FF01FFFFFFF8000
007FE03FFFFFFFC000
007FE03FFFFFFFC000
00FFC07FFFFFFFE000
01FFC00000007FF000
01FF800000003FF000
03FF000000003FF800
03FF000000001FF800
07FE000000001FFC00
0FFE000000000FFE00
0FFC0000000007FE00
1FF80000000007FF00
1FF80000000003FF00
3FF00000000003FF80
7FF00000000001FFC0
7FE00000000000FFC0
FFC00000000000FFE0
ENDCHAR
STARTCHAR amacron
ENCODING 257
SWIDTH 989 0
DWIDTH 69 0
BBX 67 61 1 0
BITMAP
0000007FFFE0000000
0000007FFFE0000000
0000007FFFE0000000
0000007FFFE0000000
000000000000000000
000000000000000000
000000000000000000
000000000000000000
000000000000000000
000000004000000000
00000001F000000000
00000003F800000000
00000007FC00000000
00000007FE00000000
0000000FFE00000000
0000001FFF00000000
0000001FFF00000000
0000003FFF80000000
0000003FFFC0000000
0000007FFFC0000000
000000FFFFE0000000
000000FFFFE0000000
000001FFFFF0000000
000001FF3FF8000000
000003FF1FF8000000
000007FE1FFC000000
000007FE0FFC000000
00000FFC0FFE000000
00000FFC07FF000000
00001FF803FF000000
00003FF003FF800000
00003FF001FF800000
00007FE001FFC00000
00007FE000FFE00000
0000FFC0007FE00000
0001FF80007FF00000
0001FF80003FF00000
0003FF00003FF80000
0007FF00001FFC0000
0007FE00000FFC0000
000FFC00000FFE0000
000FFC07FFFFFE0000
001FF80FFFFFFF0000
003FF81FFFFFFF8000
003FF01FFFFFFF8000
007FE03FFFFFFFC000
007FE03FFFFFFFC000
00FFC07FFFFFFFE000
01FFC00000007FF000
01FF800000003FF000
03FF000000003FF800
03FF000000001FF800
07FE000000001FFC00
0FFE000000000FFE00
0FFC0000000007FE00
1FF80000000007FF00
1FF80000000003FF00
3FF00000000003FF80
7FF00000000001FFC0
7FE00000000000FFC0
FFC00000000000FFE0
ENDCHAR
STARTCHAR Abreve
ENCODING 258
SWIDTH 989 0
DWIDTH 69 0
BBX 67 64 1 0
BITMAP
000000F803E0000000
000000F803E0000000
000000F803E0000000
000000F803E0000000
0000007C03E0000000
0000007C07C0000000
0000003E0FC0000000
0000003FFF80000000
0000001FFF00000000
00000007FC00000000
000000000000000000
000000000000000000
000000004000000000
00000001F000000000
00000003F800000000
00000007FC00000000
00000007FE00000000
0000000FFE00000000
0000001FFF00000000
0000001FFF00000000
0000003FFF80000000
0000003FFFC0000000
0000007FFFC0000000
000000FFFFE0000000
000000FFFFE0000000
000001FFFFF0000000
000001FF3FF8000000
000003FF1FF8000000
000007FE1FFC000000
000007FE0FFC000000
00000FFC0FFE000000
00000FFC07FF000000
00001FF803FF000000
00003FF003FF800000
00003FF001FF800000
00007FE001FFC00000
00007FE000FFE00000
0000FFC0007FE00000
0001FF80007FF00000
0001FF80003FF00000
0003FF00003FF80000
0007FF00001FFC0000
0007FE00000FFC0000
000FFC00000FFE0000
000FFC07FFFFFE0000
001FF80FFFFFFF0000
003FF81FFFFFFF8000
003FF01FFFFFFF8000
007FE03FFFFFFFC000
007FE03FFFFFFFC000
00FFC07FFFFFFFE000
01FFC00000007FF000
01FF800000003FF000
03FF000000003FF800
03FF000000001FF800
07FE000000001FFC00
0FFE000000000FFE00
0FFC0000000007FE00
1FF80000000007FF00
1FF80000000003FF00
3FF00000000003FF80
7FF00000000001FFC0
7FE00000000000FFC0
FFC00000000000FFE0
ENDCHAR
STARTCHAR abreve
ENCODING 259
SWIDTH 989 0
DWIDTH 69 0
BBX 67 64 1 0
BITMAP
000000F803E0000000
000000F803E0000000
000000F803E0000000
000000F803E0000000
0000007C03E0000000
0000007C07C0000000
0000003E0FC0000000
0000003FFF80000000
0000001FFF00000000
00000007FC00000000
000000000000000000
000000000000000000
000000004000000000
00000001F000000000
00000003F800000000
00000007FC00000000
00000007FE00000000
0000000FFE00000000
0000001FFF00000000
0000001FFF00000000
0000003FFF80000000
0000003FFFC0000000
0000007FFFC0000000
000000FFFFE0000000
000000FFFFE0000000
000001FFFFF0000000
000001FF3FF8000000
000003FF1FF8000000
000007FE1FFC000000
000007FE0FFC000000
00000FFC0FFE000000
00000FFC07FF000000
00001FF803FF000000
00003FF003FF800000
00003FF001FF800000
00007FE001FFC00000
00007FE000FFE00000
0000FFC0007FE00000
0001FF80007FF00000
0001FF80003FF00000
0003FF00003FF80000
0007FF00001FFC0000
0007FE00000FFC0000
000FFC00000FFE0000
000FFC07FFFFFE0000
001FF80FFFFFFF0000
003FF81FFFFFFF8000
003FF01FFFFFFF8000
007FE03FFFFFFFC000
007FE03FFFFFFFC000
00FFC07FFFFFFFE000
01FFC00000007FF000
01FF800000003FF000
03FF000000003FF800
03FF000000001FF800
07FE000000001FFC00
0FFE000000000FFE00
0FFC0000000007FE00
1FF80000000007FF00
1FF80000000003FF00
3FF00000000003FF80
7FF00000000001FFC0
7FE00000000000FFC0
FFC00000000000FFE0
ENDCHAR
STARTCHAR Aogonek
ENCODING 260
SWIDTH 989 0
DWIDTH 69 0
BBX 67 66 1 -14
BITMAP
000000004000000000
00000001F000000000
00000003F800000000
00000007FC00000000
00000007FE00000000
0000000FFE00000000
0000001FFF00000000
0000001FFF00000000
0000003FFF80000000
0000003FFFC0000000
0000007FFFC0000000
000000FFFFE0000000
000000FFFFE0000000
000001FFFFF0000000
000001FF3FF8000000
000003FF1FF8000000
000007FE1FFC000000
000007FE0FFC000000
00000FFC0FFE000000
00000FFC07FF000000
00001FF803FF000000
00003FF003FF800000
00003FF001FF800000
00007FE001FFC00000
00007FE000FFE00000
0000FFC0007FE00000
0001FF80007FF00000
0001FF80003FF00000
0003FF00003FF80000
0007FF00001FFC0000
0007FE00000FFC0000
000FFC00000FFE0000
000FFC07FFFFFE0000
001FF80FFFFFFF0000
003FF81FFFFFFF8000
003FF01FFFFFFF8000
007FE03FFFFFFFC000
007FE03FFFFFFFC000
00FFC07FFFFFFFE000
01FFC00000007FF000
01FF800000003FF000
03FF000000003FF800
03FF000000001FF800
07FE000000001FFC00
0FFE000000000FFE00
0FFC0000000007FE00
1FF80000000007FF00
1FF80000000003FF00
3FF00000000003FF80
7FF00000000001FFC0
7FE00000000000FFC0
FFC00000000000FFE0
0000000000000003C0
000000000000000780
000000000000001E00
000000000000003C00
00000000000000F000
00000000000001E000
00000000000003E000
00000000000003F000
00000000000003FFE0
00000000000003FFE0
00000000000003FFE0
00000000000001FFE0
00000000000000FFE0
000000000000007FE0
ENDCHAR
STARTCHAR aogonek
ENCODING 261
SWIDTH 989 0
DWIDTH 69 0
BBX 67 66 1 -14
BITMAP
000000004000000000
00000001F000000000
00000003F800000000
00000007FC00000000
00000007FE00000000
0000000FFE00000000
0000001FFF00000000
0000001FFF00000000
0000003FFF80000000
0000003FFFC0000000
0000007FFFC0000000
000000FFFFE0000000
000000FFFFE0000000
000001FFFFF0000000
000001FF3FF8000000
000003FF1FF8000000
000007FE1FFC000000
000007FE0FFC000000
00000FFC0FFE000000
00000FFC07FF000000
00001FF803FF000000
00003FF003FF800000
00003FF001FF800000
00007FE001FFC00000
00007FE000FFE00000
0000FFC0007FE00000
0001FF80007FF00000
0001FF80003FF00000
0003FF00003FF80000
0007FF00001FFC0000
0007FE00000FFC0000
000FFC00000FFE0000
000FFC07FFFFFE0000
001FF80FFFFFFF0000
003FF81FFFFFFF8000
003FF01FFFFFFF8000
007FE03FFFFFFFC000
007FE03FFFFFFFC000
00FFC07FFFFFFFE000
01FFC00000007FF000
01FF800000003FF000
03FF000000003FF800
03FF000000001FF800
07FE000000001FFC00
0FFE000000000FFE00
0FFC0000000007FE00
1FF80000000007FF00
1FF80000000003FF00
3FF00000000003FF80
7FF00000000001FFC0
7FE00000000000FFC0
FFC00000000000FFE0
0000000000000003C0
000000000000000780
000000000000001E00
000000000000003C00
00000000000000F000
00000000000001E000
00000000000003E000
00000000000003F000
00000000000003FFE0
00000000000003FFE0
00000000000003FFE0
00000000000001FFE0
00000000000000FFE0
000000000000007FE0
ENDCHAR
STARTCHAR Cacute
ENCODING 262
SWIDTH 829 0
DWIDTH 58 0
BBX 52 64 3 0
BITMAP
00000000008000
00000000078000
000000003F8000
00000003FF8000
0000001FFF8000
000000FFFF8000
000001FFFC0000
000001FFC00000
000001F8000000
00000100000000
00000000000000
00000000000000
00000000000000
00001FFFFFFFF0
0000FFFFFFFFF0
0007FFFFFFFFF0
001FFFFFFFFFF0
003FFFFFFFFFF0
00FFFFFFFFFFF0
01FFFFFFFFFFF0
03FFFFFFFFFFF0
07FFFFFFFFFFF0
07FFF000000000
0FFFC000000000
1FFF0000000000
1FFC0000000000
3FF80000000000
3FF00000000000
7FF00000000000
7FE00000000000
7FE00000000000
7FC00000000000
FFC00000000000
FF800000000000
FF800000000000
FF800000000000
FF800000000000
FF800000000000
FF800000000000
FF800000000000
FF800000000000
FF800000000000
FF800000000000
FF800000000000
7FC00000000000
7FC00000000000
7FE00000000000
7FE00000000000
3FF00000000000
3FF80000000000
1FF80000000000
1FFE0000000000
0FFF0000000000
0FFFC000000000
07FFF000000000
03FFFFFFFFFFF0
01FFFFFFFFFFF0
00FFFFFFFFFFF0
007FFFFFFFFFF0
003FFFFFFFFFF0
000FFFFFFFFFF0
0003FFFFFFFFF0
0000FFFFFFFFF0
00001FFFFFFFF0
ENDCHAR
STARTCHAR cacute
ENCODING 263
SWIDTH 829 0
DWIDTH 58 0
BBX 52 64 3 0
BITMAP
00000000008000
00000000078000
000000003F8000
00000003FF8000
0000001FFF8000
000000FFFF8000
000001FFFC0000
000001FFC00000
000001F8000000
00000100000000
00000000000000
00000000000000
00000000000000
00001FFFFFFFF0
0000FFFFFFFFF0
0007FFFFFFFFF0
001FFFFFFFFFF0
003FFFFFFFFFF0
00FFFFFFFFFFF0
01FFFFFFFFFFF0
03FFFFFFFFFFF0
07FFFFFFFFFFF0
07FFF000000000
0FFFC000000000
1FFF0000000000
1FFC0000000000
3FF80000000000
3FF00000000000
7FF00000000000
7FE00000000000
7FE00000000000
7FC00000000000
FFC00000000000
FF800000000000
FF800000000000
FF800000000000
FF800000000000
FF800000000000
FF800000000000
FF800000000000
FF800000000000
FF800000000000
FF800000000000
FF800000000000
7FC00000000000
7FC00000000000
7FE00000000000
7FE00000000000
3FF00000000000
3FF80000000000
1FF80000000000
1FFE0000000000
0FFF0000000000
0FFFC000000000
07FFF000000000
03FFFFFFFFFFF0
01FFFFFFFFFFF0
00FFFFFFFFFFF0
007FFFFFFFFFF0
003FFFFFFFFFF0
000FFFFFFFFFF0
0003FFFFFFFFF0
0000FFFFFFFFF0
00001FFFFFFFF0
ENDCHAR
STARTCHAR Cdotaccent
ENCODING 266
SWIDTH 829 0
DWIDTH 58 0
BBX 52 62 3 0
BITMAP
0000000F000000
0000001F800000
0000001FC00000
0000001FC00000
0000001F800000
0000000F000000
00000000000000
00000000000000
00000000000000
00000000000000
00000000000000
00001FFFFFFFF0
0000FFFFFFFFF0
0007FFFFFFFFF0
001FFFFFFFFFF0
003FFFFFFFFFF0
00FFFFFFFFFFF0
01FFFFFFFFFFF0
03FFFFFFFFFFF0
07FFFFFFFFFFF0
07FFF000000000
0FFFC000000000
1FFF0000000000
1FFC0000000000
3FF80000000000
3FF00000000000
7FF00000000000
7FE00000000000
7FE00000000000
7FC00000000000
FFC00000000000
FF800000000000
FF800000000000
FF800000000000
FF800000000000
FF800000000000
FF800000000000
FF800000000000
FF800000000000
FF800000000000
FF800000000000
FF800000000000
7FC00000000000
7FC00000000000
7FE00000000000
7FE00000000000
3FF00000000000
3FF80000000000
1FF80000000000
1FFE0000000000
0FFF0000000000
0FFFC000000000
07FFF000000000
03FFFFFFFFFFF0
01FFFFFFFFFFF0
00FFFFFFFFFFF0
007FFFFFFFFFF0
003FFFFFFFFFF0
000FFFFFFFFFF0
0003FFFFFFFFF0
0000FFFFFFFFF0
00001FFFFFFFF0
ENDCHAR
STARTCHAR cdotaccent
ENCODING 267
SWIDTH 829 0
DWIDTH 58 0
BBX 52 62 3 0
BITMAP
0000000F000000
0000001F800000
0000001FC00000
0000001FC00000
0000001F800000
0000000F000000
00000000000000
00000000000000
00000000000000
00000000000000
00000000000000
00001FFFFFFFF0
0000FFFFFFFFF0
0007FFFFFFFFF0
001FFFFFFFFFF0
003FFFFFFFFFF0
00FFFFFFFFFFF0
01FFFFFFFFFFF0
03FFFFFFFFFFF0
07FFFFFFFFFFF0
07FFF000000000
0FFFC000000000
1FFF0000000000
1FFC0000000000
3FF80000000000
3FF00000000000
7FF00000000000
7FE00000000000
7FE00000000000
7FC00000000000
FFC00000000000
FF800000000000
FF800000000000
FF800000000000
FF800000000000
FF800000000000
FF800000000000
FF800000000000
FF800000000000
FF800000000000
FF800000000000
FF800000000000
7FC00000000000
7FC00000000000
7FE00000000000
7FE00000000000
3FF00000000000
3FF80000000000
1FF80000000000
1FFE0000000000
0FFF0000000000
0FFFC000000000
07FFF000000000
03FFFFFFFFFFF0
01FFFFFFFFFFF0
00FFFFFFFFFFF0
007FFFFFFFFFF0
003FFFFFFFFFF0
000FFFFFFFFFF0
0003FFFFFFFFF0
0000FFFFFFFFF0
00001FFFFFFFF0
ENDCHAR
STARTCHAR Ccaron
ENCODING 268
SWIDTH 829 0
DWIDTH 58 0
BBX 52 64 3 0
BITMAP
00000F803E0000
000007803C0000
000007C07C0000
000003E0F80000
000001E0F00000
000001F1F00000
000000F1E00000
0000007BC00000
0000007FC00000
0000003F800000
00000000000000
00000000000000
00000000000000
00001FFFFFFFF0
0000FFFFFFFFF0
0007FFFFFFFFF0
001FFFFFFFFFF0
003FFFFFFFFFF0
00FFFFFFFFFFF0
01FFFFFFFFFFF0
03FFFFFFFFFFF0
07FFFFFFFFFFF0
07FFF000000000
0FFFC000000000
1FFF0000000000
1FFC0000000000
3FF80000000000
3FF00000000000
7FF00000000000
7FE00000000000
7FE00000000000
7FC00000000000
FFC00000000000
FF800000000000
FF800000000000
FF800000000000
FF800000000000
FF800000000000
FF800000000000
FF800000000000
FF800000000000
FF800000000000
FF800000000000
FF800000000000
7FC00000000000
7FC00000000000
7FE00000000000
7FE00000000000
3FF00000000000
3FF80000000000
1FF80000000000
1FFE0000000000
0FFF0000000000
0FFFC000000000
07FFF000000000
03FFFFFFFFFFF0
01FFFFFFFFFFF0
00FFFFFFFFFFF0
007FFFFFFFFFF0
003FFFFFFFFFF0
000FFFFFFFFFF0
0003FFFFFFFFF0
0000FFFFFFFFF0
00001FFFFFFFF0
ENDCHAR
STARTCHAR ccaron
ENCODING 269
SWIDTH 829 0
DWIDTH 58 0
BBX 52 64 3 0
BITMAP
00000F803E0000
000007803C0000
000007C07C0000
000003E0F80000
000001E0F00000
000001F1F00000
000000F1E00000
0000007BC00000
0000007FC00000
0000003F800000
00000000000000
00000000000000
00000000000000
00001FFFFFFFF0
0000FFFFFFFFF0
0007FFFFFFFFF0
001FFFFFFFFFF0
003FFFFFFFFFF0
00FFFFFFFFFFF0
01FFFFFFFFFFF0
03FFFFFFFFFFF0
07FFFFFFFFFFF0
07FFF000000000
0FFFC000000000
1FFF0000000000
1FFC0000000000
3FF80000000000
3FF00000000000
7FF00000000000
7FE00000000000
7FE00000000000
7FC00000000000
FFC00000000000
FF800000000000
FF800000000000
FF800000000000
FF800000000000
FF800000000000
FF800000000000
FF800000000000
FF800000000000
FF800000000000
FF800000000000
FF800000000000
7FC00000000000
7FC00000000000
7FE00000000000
7FE00000000000
3FF00000000000
3FF80000000000
1FF80000000000
1FFE0000000000
0FFF0000000000
0FFFC000000000
07FFF000000000
03FFFFFFFFFFF0
01FFFFFFFFFFF0
00FFFFFFFFFFF0
007FFFFFFFFFF0
003FFFFFFFFFF0
000FFFFFFFFFF0
0003FFFFFFFFF0
0000FFFFFFFFF0
00001FFFFFFFF0
ENDCHAR
STARTCHAR Dcaron
ENCODING 270
SWIDTH 879 0
DWIDTH 62 0
BBX 55 64 4 0
BITMAP
0003E007C00000
0001F00F800000
0000F01F000000
0000F81E000000
00007C3E000000
00003C3C000000
00003E78000000
00001EF8000000
00000FF0000000
00000FE0000000
00000000000000
00000000000000
00000000000000
FFFFFFFFE00000
FFFFFFFFFE0000
FFFFFFFFFF8000
FFFFFFFFFFE000
FFFFFFFFFFF800
FFFFFFFFFFFC00
FFFFFFFFFFFE00
FFFFFFFFFFFF00
FFFFFFFFFFFF80
FF8000003FFFC0
FF80000007FFE0
FF80000001FFE0
FF80000000FFF0
FF800000007FF0
FF800000003FF8
FF800000001FF8
FF800000001FF8
FF800000000FFC
FF800000000FFC
FF8000000007FC
FF8000000007FC
FF8000000007FC
FF8000000003FE
FF8000000003FE
FF8000000003FE
FF8000000003FE
FF8000000003FE
FF8000000003FE
FF8000000007FC
FF8000000007FC
FF8000000007FC
FF8000000007FC
FF800000000FFC
FF800000000FF8
FF800000001FF8
FF800000001FF8
FF800000003FF0
FF800000007FF0
FF80000000FFE0
FF80000001FFE0
FF80000007FFC0
FF8000003FFF80
FFFFFFFFFFFF80
FFFFFFFFFFFF00
FFFFFFFFFFFE00
FFFFFFFFFFFC00
FFFFFFFFFFF000
FFFFFFFFFFE000
FFFFFFFFFF8000
FFFFFFFFFE0000
FFFFFFFFE00000
ENDCHAR
STARTCHAR dcaron
ENCODING 271
SWIDTH 879 0
DWIDTH 62 0
BBX 55 64 4 0
BITMAP
0003E007C00000
0001F00F800000
0000F01F000000
0000F81E000000
00007C3E000000
00003C3C000000
00003E78000000
00001EF8000000
00000FF0000000
00000FE0000000
00000000000000
00000000000000
00000000000000
FFFFFFFFE00000
FFFFFFFFFE0000
FFFFFFFFFF8000
FFFFFFFFFFE000
FFFFFFFFFFF800
FFFFFFFFFFFC00
FFFFFFFFFFFE00
FFFFFFFFFFFF00
FFFFFFFFFFFF80
FF8000003FFFC0
FF80000007FFE0
FF80000001FFE0
FF80000000FFF0
FF800000007FF0
FF800000003FF8
FF800000001FF8
FF800000001FF8
FF800000000FFC
FF800000000FFC
FF8000000007FC
FF8000000007FC
FF8000000007FC
FF8000000003FE
FF8000000003FE
FF8000000003FE
FF8000000003FE
FF8000000003FE
FF8000000003FE
FF8000000007FC
FF8000000007FC
FF8000000007FC
FF8000000007FC
FF800000000FFC
FF800000000FF8
FF800000001FF8
FF800000001FF8
FF800000003FF0
FF800000007FF0
FF80000000FFE0
FF80000001FFE0
FF80000007FFC0
FF8000003FFF80
FFFFFFFFFFFF80
FFFFFFFFFFFF00
FFFFFFFFFFFE00
FFFFFFFFFFFC00
FFFFFFFFFFF000
FFFFFFFFFFE000
FFFFFFFFFF8000
FFFFFFFFFE0000
FFFFFFFFE00000
ENDCHAR
STARTCHAR Dcroat
ENCODING 272
SWIDTH 877 0
DWIDTH 61 0
BBX 58 51 1 0
BITMAP
1FFFFFFFFC000000
1FFFFFFFFFC00000
1FFFFFFFFFF00000
1FFFFFFFFFFC0000
1FFFFFFFFFFF0000
1FFFFFFFFFFF8000
1FFFFFFFFFFFC000
1FFFFFFFFFFFE000
1FFFFFFFFFFFF000
1FF0000007FFF800
1FF0000000FFF800
1FF00000003FFC00
1FF00000001FFE00
1FF00000000FFE00
1FF000000007FF00
1FF000000003FF00
1FF000000003FF00
1FF000000001FF80
1FF000000001FF80
1FF000000000FF80
1FF000000000FF80
FFFFFFFF0000FF80
FFFFFFFF0000FF80
FFFFFFFF00007FC0
FFFFFFFF00007FC0
FFFFFFFF00007FC0
FFFFFFFF00007FC0
FFFFFFFF0000FF80
FFFFFFFF0000FF80
1FF000000000FF80
1FF000000000FF80
1FF000000000FF80
1FF000000001FF80
1FF000000001FF00
1FF000000003FF00
1FF000000003FF00
1FF000000007FE00
1FF00000000FFE00
1FF00000001FFC00
1FF00000003FFC00
1FF0000000FFF800
1FF0000007FFF000
1FFFFFFFFFFFF000
1FFFFFFFFFFFE000
1FFFFFFFFFFFC000
1FFFFFFFFFFF0000
1FFFFFFFFFFE0000
1FFFFFFFFFFC0000
1FFFFFFFFFF00000
1FFFFFFFFF800000
1FFFFFFFFC000000
ENDCHAR
STARTCHAR dcroat
ENCODING 273
SWIDTH 877 0
DWIDTH 61 0
BBX 58 51 1 0
BITMAP
1FFFFFFFFC000000
1FFFFFFFFFC00000
1FFFFFFFFFF00000
1FFFFFFFFFFC0000
1FFFFFFFFFFF0000
1FFFFFFFFFFF8000
1FFFFFFFFFFFC000
1FFFFFFFFFFFE000
1FFFFFFFFFFFF000
1FF0000007FFF800
1FF0000000FFF800
1FF00000003FFC00
1FF00000001FFE00
1FF00000000FFE00
1FF000000007FF00
1FF000000003FF00
1FF000000003FF00
1FF000000001FF80
1FF000000001FF80
1FF000000000FF80
1FF000000000FF80
FFFFFFFF0000FF80
FFFFFFFF0000FF80
FFFFFFFF00007FC0
FFFFFFFF00007FC0
FFFFFFFF00007FC0
FFFFFFFF00007FC0
FFFFFFFF0000FF80
FFFFFFFF0000FF80
1FF000000000FF80
1FF000000000FF80
1FF000000000FF80
1FF000000001FF80
1FF000000001FF00
1FF000000003FF00
1FF000000003FF00
1FF000000007FE00
1FF00000000FFE00
1FF00000001FFC00
1FF00000003FFC00
1FF0000000FFF800
1FF0000007FFF000
1FFFFFFFFFFFF000
1FFFFFFFFFFFE000
1FFFFFFFFFFFC000
1FFFFFFFFFFF0000
1FFFFFFFFFFE0000
1FFFFFFFFFFC0000
1FFFFFFFFFF00000
1FFFFFFFFF800000
1FFFFFFFFC000000
ENDCHAR
STARTCHAR Emacron
ENCODING 274
SWIDTH 759 0
DWIDTH 53 0
BBX 46 61 4 0
BITMAP
0003FFFE0000
0003FFFE0000
0003FFFE0000
0003FFFE0000
000000000000
000000000000
000000000000
000000000000
000000000000
000000000000
FFFFFFFFFFFC
FFFFFFFFFFFC
FFFFFFFFFFFC
FFFFFFFFFFFC
FFFFFFFFFFFC
FFFFFFFFFFFC
FFFFFFFFFFFC
FFFFFFFFFFFC
FFFFFFFFFFFC
FF8000000000
FF8000000000
FF8000000000
FF8000000000
FF8000000000
FF8000000000
FF8000000000
FF8000000000
FF8000000000
FF8000000000
FF8000000000
FF8000000000
FF80FFFFFFF0
FF80FFFFFFF0
FF80FFFFFFF0
FF80FFFFFFF0
FF80FFFFFFF0
FF80FFFFFFF0
FF80FFFFFFF0
FF80FFFFFFF0
FF8000000000
FF8000000000
FF8000000000
FF8000000000
FF8000000000
FF8000000000
FF8000000000
FF8000000000
FF8000000000
FF8000000000
FF8000000000
FF8000000000
FF8000000000
FFFFFFFFFFFC
FFFFFFFFFFFC
FFFFFFFFFFFC
FFFFFFFFFFFC
FFFFFFFFFFFC
FFFFFFFFFFFC
FFFFFFFFFFFC
FFFFFFFFFFFC
FFFFFFFFFFFC
ENDCHAR
STARTCHAR emacron
ENCODING 275
SWIDTH 759 0
DWIDTH 53 0
BBX 46 61 4 0
BITMAP
0003FFFE0000
0003FFFE0000
0003FFFE0000
0003FFFE0000
000000000000
000000000000
000000000000
000000000000
000000000000
000000000000
FFFFFFFFFFFC
FFFFFFFFFFFC
FFFFFFFFFFFC
FFFFFFFFFFFC
FFFFFFFFFFFC
FFFFFFFFFFFC
FFFFFFFFFFFC
FFFFFFFFFFFC
FFFFFFFFFFFC
FF8000000000
FF8000000000
FF8000000000
FF8000000000
FF8000000000
FF8000000000
FF8000000000
FF8000000000
FF8000000000
FF8000000000
FF8000000000
FF8000000000
FF80FFFFFFF0
FF80FFFFFFF0
FF80FFFFFFF0
FF80FFFFFFF0
FF80FFFFFFF0
FF80FFFFFFF0
FF80FFFFFFF0
FF80FFFFFFF0
FF8000000000
FF8000000000
FF8000000000
FF8000000000
FF8000000000
FF8000000000
FF8000000000
FF8000000000
FF8000000000
FF8000000000
FF8000000000
FF8000000000
FF8000000000
FFFFFFFFFFFC
FFFFFFFFFFFC
FFFFFFFFFFFC
FFFFFFFFFFFC
FFFFFFFFFFFC
FFFFFFFFFFFC
FFFFFFFFFFFC
FFFFFFFFFFFC
FFFFFFFFFFFC
ENDCHAR
STARTCHAR Ebreve
ENCODING 276
SWIDTH 759 0
DWIDTH 53 0
BBX 46 64 4 0
BITMAP
0007C01F0000
0007C01F0000
0007C01F0000
0007C01F0000
0003E01E0000
0003E03E0000
0001F07C0000
0001FFFC0000
0000FFF80000
00003FE00000
000000000000
000000000000
000000000000
FFFFFFFFFFFC
FFFFFFFFFFFC
FFFFFFFFFFFC
FFFFFFFFFFFC
FFFFFFFFFFFC
FFFFFFFFFFFC
FFFFFFFFFFFC
FFFFFFFFFFFC
FFFFFFFFFFFC
FF8000000000
FF8000000000
FF8000000000
FF8000000000
FF8000000000
FF8000000000
FF8000000000
FF8000000000
FF8000000000
FF8000000000
FF8000000000
FF8000000000
FF80FFFFFFF0
FF80FFFFFFF0
FF80FFFFFFF0
FF80FFFFFFF0
FF80FFFFFFF0
FF80FFFFFFF0
FF80FFFFFFF0
FF80FFFFFFF0
FF8000000000
FF8000000000
FF8000000000
FF8000000000
FF8000000000
FF8000000000
FF8000000000
FF8000000000
FF8000000000
FF8000000000
FF8000000000
FF8000000000
FF8000000000
FFFFFFFFFFFC
FFFFFFFFFFFC
FFFFFFFFFFFC
FFFFFFFFFFFC
FFFFFFFFFFFC
FFFFFFFFFFFC
FFFFFFFFFFFC
FFFFFFFFFFFC
FFFFFFFFFFFC
ENDCHAR
STARTCHAR ebreve
ENCODING 277
SWIDTH 759 0
DWIDTH 53 0
BBX 46 64 4 0
BITMAP
0007C01F0000
0007C01F0000
0007C01F0000
0007C01F0000
0003E01E0000
0003E03E0000
0001F07C0000
0001FFFC0000
0000FFF80000
00003FE00000
000000000000
000000000000
000000000000
FFFFFFFFFFFC
FFFFFFFFFFFC
FFFFFFFFFFFC
FFFFFFFFFFFC
FFFFFFFFFFFC
FFFFFFFFFFFC
FFFFFFFFFFFC
FFFFFFFFFFFC
FFFFFFFFFFFC
FF8000000000
FF8000000000
FF8000000000
FF8000000000
FF8000000000
FF8000000000
FF8000000000
FF8000000000
FF8000000000
FF8000000000
FF8000000000
FF8000000000
FF80FFFFFFF0
FF80FFFFFFF0
FF80FFFFFFF0
FF80FFFFFFF0
FF80FFFFFFF0
FF80FFFFFFF0
FF80FFFFFFF0
FF80FFFFFFF0
FF8000000000
FF8000000000
FF8000000000
FF8000000000
FF8000000000
FF8000000000
FF8000000000
FF8000000000
FF8000000000
FF8000000000
FF8000000000
FF8000000000
FF8000000000
FFFFFFFFFFFC
FFFFFFFFFFFC
FFFFFFFFFFFC
FFFFFFFFFFFC
FFFFFFFFFFFC
FFFFFFFFFFFC
FFFFFFFFFFFC
FFFFFFFFFFFC
FFFFFFFFFFFC
ENDCHAR
STARTCHAR Edotaccent
ENCODING 278
SWIDTH 759 0
DWIDTH 53 0
BBX 46 62 4 0
BITMAP
00000F800000
00001FC00000
00001FC00000
00001FC00000
00001FC00000
00000F800000
000000000000
000000000000
000000000000
000000000000
000000000000
FFFFFFFFFFFC
FFFFFFFFFFFC
FFFFFFFFFFFC
FFFFFFFFFFFC
FFFFFFFFFFFC
FFFFFFFFFFFC
FFFFFFFFFFFC
FFFFFFFFFFFC
FFFFFFFFFFFC
FF8000000000
FF8000000000
FF8000000000
FF8000000000
FF8000000000
FF8000000000
FF8000000000
FF8000000000
FF8000000000
FF8000000000
FF8000000000
FF8000000000
FF80FFFFFFF0
FF80FFFFFFF0
FF80FFFFFFF0
FF80FFFFFFF0
FF80FFFFFFF0
FF80FFFFFFF0
FF80FFFFFFF0
FF80FFFFFFF0
FF8000000000
FF8000000000
FF8000000000
FF8000000000
FF8000000000
FF8000000000
FF8000000000
FF8000000000
FF8000000000
FF8000000000
FF8000000000
FF8000000000
FF8000000000
FFFFFFFFFFFC
FFFFFFFFFFFC
FFFFFFFFFFFC
FFFFFFFFFFFC
FFFFFFFFFFFC
FFFFFFFFFFFC
FFFFFFFFFFFC
FFFFFFFFFFFC
FFFFFFFFFFFC
ENDCHAR
STARTCHAR edotaccent
ENCODING 279
SWIDTH 759 0
DWIDTH 53 0
BBX 46 62 4 0
BITMAP
00000F800000
00001FC00000
00001FC00000
00001FC00000
00001FC00000
00000F800000
000000000000
000000000000
000000000000
000000000000
000000000000
FFFFFFFFFFFC
FFFFFFFFFFFC
FFFFFFFFFFFC
FFFFFFFFFFFC
FFFFFFFFFFFC
FFFFFFFFFFFC
FFFFFFFFFFFC
FFFFFFFFFFFC
FFFFFFFFFFFC
FF8000000000
FF8000000000
FF8000000000
FF8000000000
FF8000000000
FF8000000000
FF8000000000
FF8000000000
FF8000000000
FF8000000000
FF8000000000
FF8000000000
FF80FFFFFFF0
FF80FFFFFFF0
FF80FFFFFFF0
FF80FFFFFFF0
FF80FFFFFFF0
FF80FFFFFFF0
FF80FFFFFFF0
FF80FFFFFFF0
FF8000000000
FF8000000000
FF8000000000
FF8000000000
FF8000000000
FF8000000000
FF8000000000
FF8000000000
FF8000000000
FF8000000000
FF8000000000
FF8000000000
FF8000000000
FFFFFFFFFFFC
FFFFFFFFFFFC
FFFFFFFFFFFC
FFFFFFFFFFFC
FFFFFFFFFFFC
FFFFFFFFFFFC
FFFFFFFFFFFC
FFFFFFFFFFFC
FFFFFFFFFFFC
ENDCHAR
STARTCHAR Eogonek
ENCODING 280
SWIDTH 759 0
DWIDTH 53 0
BBX 46 65 4 -14
BITMAP
FFFFFFFFFFFC
FFFFFFFFFFFC
FFFFFFFFFFFC
FFFFFFFFFFFC
FFFFFFFFFFFC
FFFFFFFFFFFC
FFFFFFFFFFFC
FFFFFFFFFFFC
FFFFFFFFFFFC
FF8000000000
FF8000000000
FF8000000000
FF8000000000
FF8000000000
FF8000000000
FF8000000000
FF8000000000
FF8000000000
FF8000000000
FF8000000000
FF8000000000
FF80FFFFFFF0
FF80FFFFFFF0
FF80FFFFFFF0
FF80FFFFFFF0
FF80FFFFFFF0
FF80FFFFFFF0
FF80FFFFFFF0
FF80FFFFFFF0
FF8000000000
FF8000000000
FF8000000000
FF8000000000
FF8000000000
FF8000000000
FF8000000000
FF8000000000
FF8000000000
FF8000000000
FF8000000000
FF8000000000
FF8000000000
FFFFFFFFFFFC
FFFFFFFFFFFC
FFFFFFFFFFFC
FFFFFFFFFFFC
FFFFFFFFFFFC
FFFFFFFFFFFC
FFFFFFFFFFFC
FFFFFFFFFFFC
FFFFFFFFFFFC
000000000078
0000000001F0
0000000003C0
000000000F80
000000001E00
000000003C00
000000007C00
000000007C00
000000007FFC
000000007FFC
000000007FFC
000000007FFC
000000003FFC
000000000FFC
ENDCHAR
STARTCHAR eogonek
ENCODING 281
SWIDTH 759 0
DWIDTH 53 0
BBX 46 65 4 -14
BITMAP
FFFFFFFFFFFC
FFFFFFFFFFFC
FFFFFFFFFFFC
FFFFFFFFFFFC
FFFFFFFFFFFC
FFFFFFFFFFFC
FFFFFFFFFFFC
FFFFFFFFFFFC
FFFFFFFFFFFC
FF8000000000
FF8000000000
FF8000000000
FF8000000000
FF8000000000
FF8000000000
FF8000000000
FF8000000000
FF8000000000
FF8000000000
FF8000000000
FF8000000000
FF80FFFFFFF0
FF80FFFFFFF0
FF80FFFFFFF0
FF80FFFFFFF0
FF80FFFFFFF0
FF80FFFFFFF0
FF80FFFFFFF0
FF80FFFFFFF0
FF8000000000
FF8000000000
FF8000000000
FF8000000000
FF8000000000
FF8000000000
FF8000000000
FF8000000000
FF8000000000
FF8000000000
FF8000000000
FF8000000000
FF8000000000
FFFFFFFFFFFC
FFFFFFFFFFFC
FFFFFFFFFFFC
FFFFFFFFFFFC
FFFFFFFFFFFC
FFFFFFFFFFFC
FFFFFFFFFFFC
FFFFFFFFFFFC
FFFFFFFFFFFC
000000000078
0000000001F0
0000000003C0
000000000F80
000000001E00
000000003C00
000000007C00
000000007C00
000000007FFC
000000007FFC
000000007FFC
000000007FFC
000000003FFC
000000000FFC
ENDCHAR
STARTCHAR Ecaron
ENCODING 282
SWIDTH 759 0
DWIDTH 53 0
BBX 46 64 4 0
BITMAP
0007C01F0000
0003C01E0000
0003E03E0000
0001F07C0000
0000F0780000
0000F8F80000
000078F00000
00003DE00000
00003FE00000
00001FC00000
000000000000
000000000000
000000000000
FFFFFFFFFFFC
FFFFFFFFFFFC
FFFFFFFFFFFC
FFFFFFFFFFFC
FFFFFFFFFFFC
FFFFFFFFFFFC
FFFFFFFFFFFC
FFFFFFFFFFFC
FFFFFFFFFFFC
FF8000000000
FF8000000000
FF8000000000
FF8000000000
FF8000000000
FF8000000000
FF8000000000
FF8000000000
FF8000000000
FF8000000000
FF8000000000
FF8000000000
FF80FFFFFFF0
FF80FFFFFFF0
FF80FFFFFFF0
FF80FFFFFFF0
FF80FFFFFFF0
FF80FFFFFFF0
FF80FFFFFFF0
FF80FFFFFFF0
FF8000000000
FF8000000000
FF8000000000
FF8000000000
FF8000000000
FF8000000000
FF8000000000
FF8000000000
FF8000000000
FF8000000000
FF8000000000
FF8000000000
FF8000000000
FFFFFFFFFFFC
FFFFFFFFFFFC
FFFFFFFFFFFC
FFFFFFFFFFFC
FFFFFFFFFFFC
FFFFFFFFFFFC
FFFFFFFFFFFC
FFFFFFFFFFFC
FFFFFFFFFFFC
ENDCHAR
STARTCHAR ecaron
ENCODING 283
SWIDTH 759 0
DWIDTH 53 0
BBX 46 64 4 0
BITMAP
0007C01F0000
0003C01E0000
0003E03E0000
0001F07C0000
0000F0780000
0000F8F80000
000078F00000
00003DE00000
00003FE00000
00001FC00000
000000000000
000000000000
000000000000
FFFFFFFFFFFC
FFFFFFFFFFFC
FFFFFFFFFFFC
FFFFFFFFFFFC
FFFFFFFFFFFC
FFFFFFFFFFFC
FFFFFFFFFFFC
FFFFFFFFFFFC
FFFFFFFFFFFC
FF8000000000
FF8000000000
FF8000000000
FF8000000000
FF8000000000
FF8000000000
FF8000000000
FF8000000000
FF8000000000
FF8000000000
FF8000000000
FF8000000000
FF80FFFFFFF0
FF80FFFFFFF0
FF80FFFFFFF0
FF80FFFFFFF0
FF80FFFFFFF0
FF80FFFFFFF0
FF80FFFFFFF0
FF80FFFFFFF0
FF8000000000
FF8000000000
FF8000000000
FF8000000000
FF8000000000
FF8000000000
FF8000000000
FF8000000000
FF8000000000
FF8000000000
FF8000000000
FF8000000000
FF8000000000
FFFFFFFFFFFC
FFFFFFFFFFFC
FFFFFFFFFFFC
FFFFFFFFFFFC
FFFFFFFFFFFC
FFFFFFFFFFFC
FFFFFFFFFFFC
FFFFFFFFFFFC
FFFFFFFFFFFC
ENDCHAR
STARTCHAR Gbreve
ENCODING 286
SWIDTH 888 0
DWIDTH 62 0
BBX 55 64 3 0
BITMAP
000007801F0000
000007801F0000
000007C01F0000
000007C01E0000
000007C03E0000
000003E03E0000
000003F07C0000
000001FFF80000
000000FFF00000
0000003FE00000
00000000000000
00000000000000
00000000000000
00001FFFFFFFF0
0000FFFFFFFFF0
0007FFFFFFFFF0
001FFFFFFFFFF0
003FFFFFFFFFF0
00FFFFFFFFFFF0
01FFFFFFFFFFF0
03FFFFFFFFFFF0
07FFFFFFFFFFF0
07FFF000000000
0FFFC000000000
1FFF0000000000
1FFC0000000000
3FF80000000000
3FF00000000000
7FF00000000000
7FE00000000000
7FE00000000000
7FC00000000000
FFC00000000000
FF800000000000
FF8001FFFFFFFE
FF8001FFFFFFFE
FF8001FFFFFFFE
FF8001FFFFFFFE
FF8001FFFFFFFE
FF8001FFFFFFFE
FF8001FFFFFFFE
FF8001FFFFFFFE
FF8000000003FE
FF8000000003FE
7FC000000003FE
7FC000000003FE
7FE000000003FE
7FE000000003FE
3FF000000003FE
3FF800000003FE
1FF800000003FE
1FFE00000003FE
0FFF00000003FE
0FFFC0000003FE
07FFF0000003FE
03FFFFFFFFFFFE
01FFFFFFFFFFFE
00FFFFFFFFFFFE
007FFFFFFFFFFE
003FFFFFFFFFFE
000FFFFFFFFFFE
0003FFFFFFFFFE
0000FFFFFFFFFE
00001FFFFFFFFE
ENDCHAR
STARTCHAR gbreve
ENCODING 287
SWIDTH 888 0
DWIDTH 62 0
BBX 55 64 3 0
BITMAP
000007801F0000
000007801F0000
000007C01F0000
000007C01E0000
000007C03E0000
000003E03E0000
000003F07C0000
000001FFF80000
000000FFF00000
0000003FE00000
00000000000000
00000000000000
00000000000000
00001FFFFFFFF0
0000FFFFFFFFF0
0007FFFFFFFFF0
001FFFFFFFFFF0
003FFFFFFFFFF0
00FFFFFFFFFFF0
01FFFFFFFFFFF0
03FFFFFFFFFFF0
07FFFFFFFFFFF0
07FFF000000000
0FFFC000000000
1FFF0000000000
1FFC0000000000
3FF80000000000
3FF00000000000
7FF00000000000
7FE00000000000
7FE00000000000
7FC00000000000
FFC00000000000
FF800000000000
FF8001FFFFFFFE
FF8001FFFFFFFE
FF8001FFFFFFFE
FF8001FFFFFFFE
FF8001FFFFFFFE
FF8001FFFFFFFE
FF8001FFFFFFFE
FF8001FFFFFFFE
FF8000000003FE
FF8000000003FE
7FC000000003FE
7FC000000003FE
7FE000000003FE
7FE000000003FE
3FF000000003FE
3FF800000003FE
1FF800000003FE
1FFE00000003FE
0FFF00000003FE
0FFFC0000003FE
07FFF0000003FE
03FFFFFFFFFFFE
01FFFFFFFFFFFE
00FFFFFFFFFFFE
007FFFFFFFFFFE
003FFFFFFFFFFE
000FFFFFFFFFFE
0003FFFFFFFFFE
0000FFFFFFFFFE
00001FFFFFFFFE
ENDCHAR
STARTCHAR Gdotaccent
ENCODING 288
SWIDTH 888 0
DWIDTH 62 0
BBX 55 62 3 0
BITMAP
00000007800000
0000000FC00000
0000001FC00000
0000001FC00000
0000000FC00000
00000007800000
00000000000000
00000000000000
00000000000000
00000000000000
00000000000000
00001FFFFFFFF0
0000FFFFFFFFF0
0007FFFFFFFFF0
001FFFFFFFFFF0
003FFFFFFFFFF0
00FFFFFFFFFFF0
01FFFFFFFFFFF0
03FFFFFFFFFFF0
07FFFFFFFFFFF0
07FFF000000000
0FFFC000000000
1FFF0000000000
1FFC0000000000
3FF80000000000
3FF00000000000
7FF00000000000
7FE00000000000
7FE00000000000
7FC00000000000
FFC00000000000
FF800000000000
FF8001FFFFFFFE
FF8001FFFFFFFE
FF8001FFFFFFFE
FF8001FFFFFFFE
FF8001FFFFFFFE
FF8001FFFFFFFE
FF8001FFFFFFFE
FF8001FFFFFFFE
FF8000000003FE
FF8000000003FE
7FC000000003FE
7FC000000003FE
7FE000000003FE
7FE000000003FE
3FF000000003FE
3FF800000003FE
1FF800000003FE
1FFE00000003FE
0FFF00000003FE
0FFFC0000003FE
07FFF0000003FE
03FFFFFFFFFFFE
01FFFFFFFFFFFE
00FFFFFFFFFFFE
007FFFFFFFFFFE
003FFFFFFFFFFE
000FFFFFFFFFFE
0003FFFFFFFFFE
0000FFFFFFFFFE
00001FFFFFFFFE
ENDCHAR
STARTCHAR gdotaccent
ENCODING 289
SWIDTH 888 0
DWIDTH 62 0
BBX 55 62 3 0
BITMAP
00000007800000
0000000FC00000
0000001FC00000
0000001FC00000
0000000FC00000
00000007800000
00000000000000
00000000000000
00000000000000
00000000000000
00000000000000
00001FFFFFFFF0
0000FFFFFFFFF0
0007FFFFFFFFF0
001FFFFFFFFFF0
003FFFFFFFFFF0
00FFFFFFFFFFF0
01FFFFFFFFFFF0
03FFFFFFFFFFF0
07FFFFFFFFFFF0
07FFF000000000
0FFFC000000000
1FFF0000000000
1FFC0000000000
3FF80000000000
3FF00000000000
7FF00000000000
7FE00000000000
7FE00000000000
7FC00000000000
FFC00000000000
FF800000000000
FF8001FFFFFFFE
FF8001FFFFFFFE
FF8001FFFFFFFE
FF8001FFFFFFFE
FF8001FFFFFFFE
FF8001FFFFFFFE
FF8001FFFFFFFE
FF8001FFFFFFFE
FF8000000003FE
FF8000000003FE
7FC000000003FE
7FC000000003FE
7FE000000003FE
7FE000000003FE
3FF000000003FE
3FF800000003FE
1FF800000003FE
1FFE00000003FE
0FFF00000003FE
0FFFC0000003FE
07FFF0000003FE
03FFFFFFFFFFFE
01FFFFFFFFFFFE
00FFFFFFFFFFFE
007FFFFFFFFFFE
003FFFFFFFFFFE
000FFFFFFFFFFE
0003FFFFFFFFFE
0000FFFFFFFFFE
00001FFFFFFFFE
ENDCHAR
STARTCHAR Gcommaaccent
ENCODING 290
SWIDTH 888 0
DWIDTH 62 0
BBX 55 65 3 -14
BITMAP
00001FFFFFFFF0
0000FFFFFFFFF0
0007FFFFFFFFF0
001FFFFFFFFFF0
003FFFFFFFFFF0
00FFFFFFFFFFF0
01FFFFFFFFFFF0
03FFFFFFFFFFF0
07FFFFFFFFFFF0
07FFF000000000
0FFFC000000000
1FFF0000000000
1FFC0000000000
3FF80000000000
3FF00000000000
7FF00000000000
7FE00000000000
7FE00000000000
7FC00000000000
FFC00000000000
FF800000000000
FF8001FFFFFFFE
FF8001FFFFFFFE
FF8001FFFFFFFE
FF8001FFFFFFFE
FF8001FFFFFFFE
FF8001FFFFFFFE
FF8001FFFFFFFE
FF8001FFFFFFFE
FF8000000003FE
FF8000000003FE
7FC000000003FE
7FC000000003FE
7FE000000003FE
7FE000000003FE
3FF000000003FE
3FF800000003FE
1FF800000003FE
1FFE00000003FE
0FFF00000003FE
0FFFC0000003FE
07FFF0000003FE
03FFFFFFFFFFFE
01FFFFFFFFFFFE
00FFFFFFFFFFFE
007FFFFFFFFFFE
003FFFFFFFFFFE
000FFFFFFFFFFE
0003FFFFFFFFFE
0000FFFFFFFFFE
00001FFFFFFFFE
00000000000000
00000000000000
00000000000000
000000FF800000
0000007F800000
0000007F000000
0000003F000000
0000003E000000
0000003E000000
0000001E000000
0000001C000000
0000000C000000
00000008000000
00000008000000
ENDCHAR
STARTCHAR gcommaaccent
ENCODING 291
SWIDTH 888 0
DWIDTH 62 0
BBX 55 65 3 -14
BITMAP
00001FFFFFFFF0
0000FFFFFFFFF0
0007FFFFFFFFF0
001FFFFFFFFFF0
003FFFFFFFFFF0
00FFFFFFFFFFF0
01FFFFFFFFFFF0
03FFFFFFFFFFF0
07FFFFFFFFFFF0
07FFF000000000
0FFFC000000000
1FFF0000000000
1FFC0000000000
3FF80000000000
3FF00000000000
7FF00000000000
7FE00000000000
7FE00000000000
7FC00000000000
FFC00000000000
FF800000000000
FF8001FFFFFFFE
FF8001FFFFFFFE
FF8001FFFFFFFE
FF8001FFFFFFFE
FF8001FFFFFFFE
FF8001FFFFFFFE
FF8001FFFFFFFE
FF8001FFFFFFFE
FF8000000003FE
FF8000000003FE
7FC000000003FE
7FC000000003FE
7FE000000003FE
7FE000000003FE
3FF000000003FE
3FF800000003FE
1FF800000003FE
1FFE00000003FE
0FFF00000003FE
0FFFC0000003FE
07FFF0000003FE
03FFFFFFFFFFFE
01FFFFFFFFFFFE
00FFFFFFFFFFFE
007FFFFFFFFFFE
003FFFFFFFFFFE
000FFFFFFFFFFE
0003FFFFFFFFFE
0000FFFFFFFFFE
00001FFFFFFFFE
00000000000000
00000000000000
00000000000000
000000FF800000
0000007F800000
0000007F000000
0000003F000000
0000003E000000
0000003E000000
0000001E000000
0000001C000000
0000000C000000
00000008000000
00000008000000
ENDCHAR
STARTCHAR Hbar
ENCODING 294
SWIDTH 838 0
DWIDTH 59 0
BBX 50 51 4 0
BITMAP
FF800000007FC0
FF800000007FC0
FF800000007FC0
FF800000007FC0
FF800000007FC0
FF800000007FC0
FF800000007FC0
FF800000007FC0
FF80FFFFFFFFC0
FF80FFFFFFFFC0
FF80FFFFFFFFC0
FF80FFFFFFFFC0
FF800000007FC0
FF800000007FC0
FF800000007FC0
FF800000007FC0
FF800000007FC0
FF800000007FC0
FF800000007FC0
FF800000007FC0
FF800000007FC0
FF80FFFFFFFFC0
FF80FFFFFFFFC0
FF80FFFFFFFFC0
FF80FFFFFFFFC0
FF80FFFFFFFFC0
FF80FFFFFFFFC0
FF80FFFFFFFFC0
FF80FFFFFFFFC0
FF800000007FC0
FF800000007FC0
FF800000007FC0
FF800000007FC0
FF800000007FC0
FF800000007FC0
FF800000007FC0
FF800000007FC0
FF800000007FC0
FF800000007FC0
FF800000007FC0
FF800000007FC0
FF800000007FC0
FF800000007FC0
FF800000007FC0
FF800000007FC0
FF800000007FC0
FF800000007FC0
FF800000007FC0
FF800000007FC0
FF800000007FC0
FF800000007FC0
ENDCHAR
STARTCHAR hbar
ENCODING 295
SWIDTH 838 0
DWIDTH 59 0
BBX 50 51 4 0
BITMAP
FF800000007FC0
FF800000007FC0
FF800000007FC0
FF800000007FC0
FF800000007FC0
FF800000007FC0
FF800000007FC0
FF800000007FC0
FF80FFFFFFFFC0
FF80FFFFFFFFC0
FF80FFFFFFFFC0
FF80FFFFFFFFC0
FF800000007FC0
FF800000007FC0
FF800000007FC0
FF800000007FC0
FF800000007FC0
FF800000007FC0
FF800000007FC0
FF800000007FC0
FF800000007FC0
FF80FFFFFFFFC0
FF80FFFFFFFFC0
FF80FFFFFFFFC0
FF80FFFFFFFFC0
FF80FFFFFFFFC0
FF80FFFFFFFFC0
FF80FFFFFFFFC0
FF80FFFFFFFFC0
FF800000007FC0
FF800000007FC0
FF800000007FC0
FF800000007FC0
FF800000007FC0
FF800000007FC0
FF800000007FC0
FF800000007FC0
FF800000007FC0
FF800000007FC0
FF800000007FC0
FF800000007FC0
FF800000007FC0
FF800000007FC0
FF800000007FC0
FF800000007FC0
FF800000007FC0
FF800000007FC0
FF800000007FC0
FF800000007FC0
FF800000007FC0
FF800000007FC0
ENDCHAR
STARTCHAR uni012A
ENCODING 298
SWIDTH 267 0
DWIDTH 19 0
BBX 18 61 0 0
BITMAP
FFFFC0
FFFFC0
FFFFC0
FFFFC0
000000
000000
000000
000000
000000
000000
07FC00
07FC00
07FC00
07FC00
07FC00
07FC00
07FC00
07FC00
07FC00
07FC00
07FC00
07FC00
07FC00
07FC00
07FC00
07FC00
07FC00
07FC00
07FC00
07FC00
07FC00
07FC00
07FC00
07FC00
07FC00
07FC00
07FC00
07FC00
07FC00
07FC00
07FC00
07FC00
07FC00
07FC00
07FC00
07FC00
07FC00
07FC00
07FC00
07FC00
07FC00
07FC00
07FC00
07FC00
07FC00
07FC00
07FC00
07FC00
07FC00
07FC00
07FC00
ENDCHAR
STARTCHAR imacron
ENCODING 299
SWIDTH 267 0
DWIDTH 19 0
BBX 18 61 0 0
BITMAP
FFFFC0
FFFFC0
FFFFC0
FFFFC0
000000
000000
000000
000000
000000
000000
07FC00
07FC00
07FC00
07FC00
07FC00
07FC00
07FC00
07FC00
07FC00
07FC00
07FC00
07FC00
07FC00
07FC00
07FC00
07FC00
07FC00
07FC00
07FC00
07FC00
07FC00
07FC00
07FC00
07FC00
07FC00
07FC00
07FC00
07FC00
07FC00
07FC00
07FC00
07FC00
07FC00
07FC00
07FC00
07FC00
07FC00
07FC00
07FC00
07FC00
07FC00
07FC00
07FC00
07FC00
07FC00
07FC00
07FC00
07FC00
07FC00
07FC00
07FC00
ENDCHAR
STARTCHAR Ibreve
ENCODING 300
SWIDTH 267 0
DWIDTH 19 0
BBX 19 64 0 0
BITMAP
F803E0
F803E0
F803E0
F803E0
7803C0
7C07C0
3E0F80
3FFF80
1FFF00
07FC00
000000
000000
000000
07FC00
07FC00
07FC00
07FC00
07FC00
07FC00
07FC00
07FC00
07FC00
07FC00
07FC00
07FC00
07FC00
07FC00
07FC00
07FC00
07FC00
07FC00
07FC00
07FC00
07FC00
07FC00
07FC00
07FC00
07FC00
07FC00
07FC00
07FC00
07FC00
07FC00
07FC00
07FC00
07FC00
07FC00
07FC00
07FC00
07FC00
07FC00
07FC00
07FC00
07FC00
07FC00
07FC00
07FC00
07FC00
07FC00
07FC00
07FC00
07FC00
07FC00
07FC00
ENDCHAR
STARTCHAR ibreve
ENCODING 301
SWIDTH 267 0
DWIDTH 19 0
BBX 19 64 0 0
BITMAP
F803E0
F803E0
F803E0
F803E0
7803C0
7C07C0
3E0F80
3FFF80
1FFF00
07FC00
000000
000000
000000
07FC00
07FC00
07FC00
07FC00
07FC00
07FC00
07FC00
07FC00
07FC00
07FC00
07FC00
07FC00
07FC00
07FC00
07FC00
07FC00
07FC00
07FC00
07FC00
07FC00
07FC00
07FC00
07FC00
07FC00
07FC00
07FC00
07FC00
07FC00
07FC00
07FC00
07FC00
07FC00
07FC00
07FC00
07FC00
07FC00
07FC00
07FC00
07FC00
07FC00
07FC00
07FC00
07FC00
07FC00
07FC00
07FC00
07FC00
07FC00
07FC00
07FC00
07FC00
ENDCHAR
STARTCHAR Iogonek
ENCODING 302
SWIDTH 267 0
DWIDTH 19 0
BBX 13 65 1 -14
BITMAP
0FF8
0FF8
0FF8
0FF8
0FF8
0FF8
0FF8
0FF8
0FF8
0FF8
0FF8
0FF8
0FF8
0FF8
0FF8
0FF8
0FF8
0FF8
0FF8
0FF8
0FF8
0FF8
0FF8
0FF8
0FF8
0FF8
0FF8
0FF8
0FF8
0FF8
0FF8
0FF8
0FF8
0FF8
0FF8
0FF8
0FF8
0FF8
0FF8
0FF8
0FF8
0FF8
0FF8
0FF8
0FF8
0FF8
0FF8
0FF8
0FF8
0FF8
0FF8
00F0
03E0
0780
1E00
3C00
7800
F800
F800
FFF8
FFF8
FFF8
FFF8
7FF8
1FF8
ENDCHAR
STARTCHAR iogonek
ENCODING 303
SWIDTH 267 0
DWIDTH 19 0
BBX 13 65 1 -14
BITMAP
0FF8
0FF8
0FF8
0FF8
0FF8
0FF8
0FF8
0FF8
0FF8
0FF8
0FF8
0FF8
0FF8
0FF8
0FF8
0FF8
0FF8
0FF8
0FF8
0FF8
0FF8
0FF8
0FF8
0FF8
0FF8
0FF8
0FF8
0FF8
0FF8
0FF8
0FF8
0FF8
0FF8
0FF8
0FF8
0FF8
0FF8
0FF8
0FF8
0FF8
0FF8
0FF8
0FF8
0FF8
0FF8
0FF8
0FF8
0FF8
0FF8
0FF8
0FF8
00F0
03E0
0780
1E00
3C00
7800
F800
F800
FFF8
FFF8
FFF8
FFF8
7FF8
1FF8
ENDCHAR
STARTCHAR Idotaccent
ENCODING 304
SWIDTH 267 0
DWIDTH 19 0
BBX 9 62 5 0
BITMAP
3C00
7E00
7F00
7F00
7E00
3C00
0000
0000
0000
0000
0000
FF80
FF80
FF80
FF80
FF80
FF80
FF80
FF80
FF80
FF80
FF80
FF80
FF80
FF80
FF80
FF80
FF80
FF80
FF80
FF80
FF80
FF80
FF80
FF80
FF80
FF80
FF80
FF80
FF80
FF80
FF80
FF80
FF80
FF80
FF80
FF80
FF80
FF80
FF80
FF80
FF80
FF80
FF80
FF80
FF80
FF80
FF80
FF80
FF80
FF80
FF80
ENDCHAR
STARTCHAR dotlessi
ENCODING 305
SWIDTH 267 0
DWIDTH 19 0
BBX 9 51 5 0
BITMAP
FF80
FF80
FF80
FF80
FF80
FF80
FF80
FF80
FF80
FF80
FF80
FF80
FF80
FF80
FF80
FF80
FF80
FF80
FF80
FF80
FF80
FF80
FF80
FF80
FF80
FF80
FF80
FF80
FF80
FF80
FF80
FF80
FF80
FF80
FF80
FF80
FF80
FF80
FF80
FF80
FF80
FF80
FF80
FF80
FF80
FF80
FF80
FF80
FF80
FF80
FF80
ENDCHAR
STARTCHAR IJ
ENCODING 306
SWIDTH 975 0
DWIDTH 68 0
BBX 60 51 5 0
BITMAP
FF80000000001FF0
FF80000000001FF0
FF80000000001FF0
FF80000000001FF0
FF80000000001FF0
FF80000000001FF0
FF80000000001FF0
FF80000000001FF0
FF80000000001FF0
FF80000000001FF0
FF80000000001FF0
FF80000000001FF0
FF80000000001FF0
FF80000000001FF0
FF80000000001FF0
FF80000000001FF0
FF80000000001FF0
FF80000000001FF0
FF80000000001FF0
FF80000000001FF0
FF80000000001FF0
FF80000000001FF0
FF80000000001FF0
FF80000000001FF0
FF80000000001FF0
FF80000000001FF0
FF80000000001FF0
FF80000000001FF0
FF80000000001FF0
FF80000000001FF0
FF80000000001FF0
FF80000000003FE0
FF80000000003FE0
FF80000000003FE0
FF80000000003FE0
FF80000000007FE0
FF80000000007FE0
FF8000000000FFC0
FF8000000001FFC0
FF8000000003FF80
FF800000000FFF80
FF80000000FFFF00
FF81FFFFFFFFFF00
FF81FFFFFFFFFE00
FF81FFFFFFFFFC00
FF81FFFFFFFFF800
FF81FFFFFFFFF000
FF81FFFFFFFFC000
FF81FFFFFFFF0000
FF81FFFFFFFC0000
FF81FFFFFF800000
ENDCHAR
STARTCHAR ij
ENCODING 307
SWIDTH 975 0
DWIDTH 68 0
BBX 60 51 5 0
BITMAP
FF80000000001FF0
FF80000000001FF0
FF80000000001FF0
FF80000000001FF0
FF80000000001FF0
FF80000000001FF0
FF80000000001FF0
FF80000000001FF0
FF80000000001FF0
FF80000000001FF0
FF80000000001FF0
FF80000000001FF0
FF80000000001FF0
FF80000000001FF0
FF80000000001FF0
FF80000000001FF0
FF80000000001FF0
FF80000000001FF0
FF80000000001FF0
FF80000000001FF0
FF80000000001FF0
FF80000000001FF0
FF80000000001FF0
FF80000000001FF0
FF80000000001FF0
FF80000000001FF0
FF80000000001FF0
FF80000000001FF0
FF80000000001FF0
FF80000000001FF0
FF80000000001FF0
FF80000000003FE0
FF80000000003FE0
FF80000000003FE0
FF80000000003FE0
FF80000000007FE0
FF80000000007FE0
FF8000000000FFC0
FF8000000001FFC0
FF8000000003FF80
FF800000000FFF80
FF80000000FFFF00
FF81FFFFFFFFFF00
FF81FFFFFFFFFE00
FF81FFFFFFFFFC00
FF81FFFFFFFFF800
FF81FFFFFFFFF000
FF81FFFFFFFFC000
FF81FFFFFFFF0000
FF81FFFFFFFC0000
FF81FFFFFF800000
ENDCHAR
STARTCHAR Kcommaaccent
ENCODING 310
SWIDTH 875 0
DWIDTH 61 0
BBX 56 65 4 -14
BITMAP
FF800000007FFE
FF80000001FFF8
FF80000003FFF0
FF80000007FFC0
FF8000001FFF80
FF8000003FFF00
FF8000007FFC00
FF800001FFF800
FF800003FFF000
FF800007FFC000
FF80000FFF8000
FF80003FFE0000
FF80007FFC0000
FF8000FFF80000
FF8003FFE00000
FF8007FFC00000
FF800FFF800000
FF803FFE000000
FF807FFC000000
FF80FFF8000000
FF81FFE0000000
FF87FFC0000000
FF87FF80000000
FF8FFE00000000
FF8FFC00000000
FF8FFC00000000
FF8FFF00000000
FF87FF80000000
FF83FFC0000000
FF81FFF0000000
FF80FFF8000000
FF803FFC000000
FF801FFF000000
FF800FFF800000
FF8007FFC00000
FF8001FFF00000
FF8000FFF80000
FF80007FFC0000
FF80003FFE0000
FF80000FFF8000
FF800007FFC000
FF800003FFE000
FF800000FFF800
FF8000007FFC00
FF8000003FFE00
FF8000001FFF80
FF80000007FFC0
FF80000003FFE0
FF80000001FFF8
FF80000000FFFC
FF800000003FFF
00000000000000
00000000000000
00000000000000
000003FE000000
000001FE000000
000001FC000000
000001FC000000
000000F8000000
000000F8000000
00000070000000
00000070000000
00000030000000
00000020000000
00000020000000
ENDCHAR
STARTCHAR kcommaaccent
ENCODING 311
SWIDTH 875 0
DWIDTH 61 0
BBX 56 65 4 -14
BITMAP
FF800000007FFE
FF80000001FFF8
FF80000003FFF0
FF80000007FFC0
FF8000001FFF80
FF8000003FFF00
FF8000007FFC00
FF800001FFF800
FF800003FFF000
FF800007FFC000
FF80000FFF8000
FF80003FFE0000
FF80007FFC0000
FF8000FFF80000
FF8003FFE00000
FF8007FFC00000
FF800FFF800000
FF803FFE000000
FF807FFC000000
FF80FFF8000000
FF81FFE0000000
FF87FFC0000000
FF87FF80000000
FF8FFE00000000
FF8FFC00000000
FF8FFC00000000
FF8FFF00000000
FF87FF80000000
FF83FFC0000000
FF81FFF0000000
FF80FFF8000000
FF803FFC000000
FF801FFF000000
FF800FFF800000
FF8007FFC00000
FF8001FFF00000
FF8000FFF80000
FF80007FFC0000
FF80003FFE0000
FF80000FFF8000
FF800007FFC000
FF800003FFE000
FF800000FFF800
FF8000007FFC00
FF8000003FFE00
FF8000001FFF80
FF80000007FFC0
FF80000003FFE0
FF80000001FFF8
FF80000000FFFC
FF800000003FFF
00000000000000
00000000000000
00000000000000
000003FE000000
000001FE000000
000001FC000000
000001FC000000
000000F8000000
000000F8000000
00000070000000
00000070000000
00000030000000
00000020000000
00000020000000
ENDCHAR
STARTCHAR Lacute
ENCODING 313
SWIDTH 707 0
DWIDTH 49 0
BBX 46 64 2 0
BITMAP
000040000000
0003C0000000
001FC0000000
00FFC0000000
0FFFC0000000
7FFFC0000000
FFFE00000000
FFE000000000
FC0000000000
800000000000
000000000000
000000000000
000000000000
3FE000000000
3FE000000000
3FE000000000
3FE000000000
3FE000000000
3FE000000000
3FE000000000
3FE000000000
3FE000000000
3FE000000000
3FE000000000
3FE000000000
3FE000000000
3FE000000000
3FE000000000
3FE000000000
3FE000000000
3FE000000000
3FE000000000
3FE000000000
3FE000000000
3FE000000000
3FE000000000
3FE000000000
3FE000000000
3FE000000000
3FE000000000
3FE000000000
3FE000000000
3FE000000000
3FE000000000
3FE000000000
3FE000000000
3FE000000000
3FE000000000
3FE000000000
3FE000000000
3FE000000000
3FE000000000
3FE000000000
3FE000000000
3FE000000000
3FFFFFFFFFFC
3FFFFFFFFFFC
3FFFFFFFFFFC
3FFFFFFFFFFC
3FFFFFFFFFFC
3FFFFFFFFFFC
3FFFFFFFFFFC
3FFFFFFFFFFC
3FFFFFFFFFFC
ENDCHAR
STARTCHAR lacute
ENCODING 314
SWIDTH 707 0
DWIDTH 49 0
BBX 46 64 2 0
BITMAP
000040000000
0003C0000000
001FC0000000
00FFC0000000
0FFFC0000000
7FFFC0000000
FFFE00000000
FFE000000000
FC0000000000
800000000000
000000000000
000000000000
000000000000
3FE000000000
3FE000000000
3FE000000000
3FE000000000
3FE000000000
3FE000000000
3FE000000000
3FE000000000
3FE000000000
3FE000000000
3FE000000000
3FE000000000
3FE000000000
3FE000000000
3FE000000000
3FE000000000
3FE000000000
3FE000000000
3FE000000000
3FE000000000
3FE000000000
3FE000000000
3FE000000000
3FE000000000
3FE000000000
3FE000000000
3FE000000000
3FE000000000
3FE000000000
3FE000000000
3FE000000000
3FE000000000
3FE000000000
3FE000000000
3FE000000000
3FE000000000
3FE000000000
3FE000000000
3FE000000000
3FE000000000
3FE000000000
3FE000000000
3FFFFFFFFFFC
3FFFFFFFFFFC
3FFFFFFFFFFC
3FFFFFFFFFFC
3FFFFFFFFFFC
3FFFFFFFFFFC
3FFFFFFFFFFC
3FFFFFFFFFFC
3FFFFFFFFFFC
ENDCHAR
STARTCHAR Lcommaaccent
ENCODING 315
SWIDTH 707 0
DWIDTH 49 0
BBX 44 65 4 -14
BITMAP
FF8000000000
FF8000000000
FF8000000000
FF8000000000
FF8000000000
FF8000000000
FF8000000000
FF8000000000
FF8000000000
FF8000000000
FF8000000000
FF8000000000
FF8000000000
FF8000000000
FF8000000000
FF8000000000
FF8000000000
FF8000000000
FF8000000000
FF8000000000
FF8000000000
FF8000000000
FF8000000000
FF8000000000
FF8000000000
FF8000000000
FF8000000000
FF8000000000
FF8000000000
FF8000000000
FF8000000000
FF8000000000
FF8000000000
FF8000000000
FF8000000000
FF8000000000
FF8000000000
FF8000000000
FF8000000000
FF8000000000
FF8000000000
FF8000000000
FFFFFFFFFFF0
FFFFFFFFFFF0
FFFFFFFFFFF0
FFFFFFFFFFF0
FFFFFFFFFFF0
FFFFFFFFFFF0
FFFFFFFFFFF0
FFFFFFFFFFF0
FFFFFFFFFFF0
000000000000
000000000000
000000000000
00007FE00000
00003FC00000
00003FC00000
00001F800000
00001F800000
00000F000000
00000F000000
000006000000
000006000000
000006000000
000004000000
ENDCHAR
STARTCHAR lcommaaccent
ENCODING 316
SWIDTH 707 0
DWIDTH 49 0
BBX 44 65 4 -14
BITMAP
FF8000000000
FF8000000000
FF8000000000
FF8000000000
FF8000000000
FF8000000000
FF8000000000
FF8000000000
FF8000000000
FF8000000000
FF8000000000
FF8000000000
FF8000000000
FF8000000000
FF8000000000
FF8000000000
FF8000000000
FF8000000000
FF8000000000
FF8000000000
FF8000000000
FF8000000000
FF8000000000
FF8000000000
FF8000000000
FF8000000000
FF8000000000
FF8000000000
FF8000000000
FF8000000000
FF8000000000
FF8000000000
FF8000000000
FF8000000000
FF8000000000
FF8000000000
FF8000000000
FF8000000000
FF8000000000
FF8000000000
FF8000000000
FF8000000000
FFFFFFFFFFF0
FFFFFFFFFFF0
FFFFFFFFFFF0
FFFFFFFFFFF0
FFFFFFFFFFF0
FFFFFFFFFFF0
FFFFFFFFFFF0
FFFFFFFFFFF0
FFFFFFFFFFF0
000000000000
000000000000
000000000000
00007FE00000
00003FC00000
00003FC00000
00001F800000
00001F800000
00000F000000
00000F000000
000006000000
000006000000
000006000000
000004000000
ENDCHAR
STARTCHAR Lcaron
ENCODING 317
SWIDTH 707 0
DWIDTH 49 0
BBX 44 51 4 0
BITMAP
FF803FE00000
FF803FE00000
FF803FC00000
FF803FC00000
FF803FC00000
FF803FC00000
FF803FC00000
FF803F800000
FF803F800000
FF803F800000
FF803F800000
FF803F800000
FF803F000000
FF803F000000
FF803F000000
FF803F000000
FF803F000000
FF803E000000
FF8000000000
FF8000000000
FF8000000000
FF8000000000
FF8000000000
FF8000000000
FF8000000000
FF8000000000
FF8000000000
FF8000000000
FF8000000000
FF8000000000
FF8000000000
FF8000000000
FF8000000000
FF8000000000
FF8000000000
FF8000000000
FF8000000000
FF8000000000
FF8000000000
FF8000000000
FF8000000000
FF8000000000
FFFFFFFFFFF0
FFFFFFFFFFF0
FFFFFFFFFFF0
FFFFFFFFFFF0
FFFFFFFFFFF0
FFFFFFFFFFF0
FFFFFFFFFFF0
FFFFFFFFFFF0
FFFFFFFFFFF0
ENDCHAR
STARTCHAR lcaron
ENCODING 318
SWIDTH 707 0
DWIDTH 49 0
BBX 44 51 4 0
BITMAP
FF803FE00000
FF803FE00000
FF803FC00000
FF803FC00000
FF803FC00000
FF803FC00000
FF803FC00000
FF803F800000
FF803F800000
FF803F800000
FF803F800000
FF803F800000
FF803F000000
FF803F000000
FF803F000000
FF803F000000
FF803F000000
FF803E000000
FF8000000000
FF8000000000
FF8000000000
FF8000000000
FF8000000000
FF8000000000
FF8000000000
FF8000000000
FF8000000000
FF8000000000
FF8000000000
FF8000000000
FF8000000000
FF8000000000
FF8000000000
FF8000000000
FF8000000000
FF8000000000
FF8000000000
FF8000000000
FF8000000000
FF8000000000
FF8000000000
FF8000000000
FFFFFFFFFFF0
FFFFFFFFFFF0
FFFFFFFFFFF0
FFFFFFFFFFF0
FFFFFFFFFFF0
FFFFFFFFFFF0
FFFFFFFFFFF0
FFFFFFFFFFF0
FFFFFFFFFFF0
ENDCHAR
STARTCHAR Ldot
ENCODING 319
SWIDTH 707 0
DWIDTH 49 0
BBX 44 51 4 0
BITMAP
FF8000000000
FF8000000000
FF8000000000
FF8000000000
FF8000000000
FF8000000000
FF8000000000
FF8000000000
FF8000000000
FF8000000000
FF8000000000
FF8000000000
FF8000000000
FF8000000000
FF8000000000
FF8000000000
FF8000000000
FF8000000000
FF8000000000
FF8000000000
FF8000000000
FF8000000000
FF8078000000
FF80FC000000
FF80FE000000
FF80FE000000
FF80FC000000
FF8078000000
FF8000000000
FF8000000000
FF8000000000
FF8000000000
FF8000000000
FF8000000000
FF8000000000
FF8000000000
FF8000000000
FF8000000000
FF8000000000
FF8000000000
FF8000000000
FF8000000000
FFFFFFFFFFF0
FFFFFFFFFFF0
FFFFFFFFFFF0
FFFFFFFFFFF0
FFFFFFFFFFF0
FFFFFFFFFFF0
FFFFFFFFFFF0
FFFFFFFFFFF0
FFFFFFFFFFF0
ENDCHAR
STARTCHAR ldot
ENCODING 320
SWIDTH 707 0
DWIDTH 49 0
BBX 44 51 4 0
BITMAP
FF8000000000
FF8000000000
FF8000000000
FF8000000000
FF8000000000
FF8000000000
FF8000000000
FF8000000000
FF8000000000
FF8000000000
FF8000000000
FF8000000000
FF8000000000
FF8000000000
FF8000000000
FF8000000000
FF8000000000
FF8000000000
FF8000000000
FF8000000000
FF8000000000
FF8000000000
FF8078000000
FF80FC000000
FF80FE000000
FF80FE000000
FF80FC000000
FF8078000000
FF8000000000
FF8000000000
FF8000000000
FF8000000000
FF8000000000
FF8000000000
FF8000000000
FF8000000000
FF8000000000
FF8000000000
FF8000000000
FF8000000000
FF8000000000
FF8000000000
FFFFFFFFFFF0
FFFFFFFFFFF0
FFFFFFFFFFF0
FFFFFFFFFFF0
FFFFFFFFFFF0
FFFFFFFFFFF0
FFFFFFFFFFF0
FFFFFFFFFFF0
FFFFFFFFFFF0
ENDCHAR
STARTCHAR Lslash
ENCODING 321
SWIDTH 707 0
DWIDTH 49 0
BBX 44 51 4 0
BITMAP
FF8000000000
FF8000000000
FF8000000000
FF8000000000
FF8000000000
FF8000000000
FF8000000000
FF8000000000
FF8000000000
FF8000000000
FF8000000000
FF8000000000
FF8000000000
FF8000000000
FF8000080000
FF8000300000
FF8000F00000
FF8007F00000
FF801FF00000
FF807FF00000
FF83FFF00000
FF8FFFF00000
FFBFFFF00000
FFFFFF800000
FFFFFE000000
FFFFF8000000
FFFFC0000000
FFFF00000000
FFFC00000000
FFF000000000
FF8000000000
FF8000000000
FF8000000000
FF8000000000
FF8000000000
FF8000000000
FF8000000000
FF8000000000
FF8000000000
FF8000000000
FF8000000000
FF8000000000
FFFFFFFFFFF0
FFFFFFFFFFF0
FFFFFFFFFFF0
FFFFFFFFFFF0
FFFFFFFFFFF0
FFFFFFFFFFF0
FFFFFFFFFFF0
FFFFFFFFFFF0
FFFFFFFFFFF0
ENDCHAR
STARTCHAR lslash
ENCODING 322
SWIDTH 707 0
DWIDTH 49 0
BBX 44 51 4 0
BITMAP
FF8000000000
FF8000000000
FF8000000000
FF8000000000
FF8000000000
FF8000000000
FF8000000000
FF8000000000
FF8000000000
FF8000000000
FF8000000000
FF8000000000
FF8000000000
FF8000000000
FF8000080000
FF8000300000
FF8000F00000
FF8007F00000
FF801FF00000
FF807FF00000
FF83FFF00000
FF8FFFF00000
FFBFFFF00000
FFFFFF800000
FFFFFE000000
FFFFF8000000
FFFFC0000000
FFFF00000000
FFFC00000000
FFF000000000
FF8000000000
FF8000000000
FF8000000000
FF8000000000
FF8000000000
FF8000000000
FF8000000000
FF8000000000
FF8000000000
FF8000000000
FF8000000000
FF8000000000
FFFFFFFFFFF0
FFFFFFFFFFF0
FFFFFFFFFFF0
FFFFFFFFFFF0
FFFFFFFFFFF0
FFFFFFFFFFF0
FFFFFFFFFFF0
FFFFFFFFFFF0
FFFFFFFFFFF0
ENDCHAR
ENDFONT
